<?xml version="1.0" encoding="UTF-8"?>
<svg width="21px" height="16px" viewBox="0 0 21 16" version="1.1" xmlns="http://www.w3.org/2000/svg" xmlns:xlink="http://www.w3.org/1999/xlink">
    <!-- Generator: sketchtool 52.5 (67469) - http://www.bohemiancoding.com/sketch -->
    <title>58395F80-EDB3-48A9-9F19-5C4BE7494EC6</title>
    <desc>Created with sketchtool.</desc>
    <g id="Web-App" stroke="none" stroke-width="1" fill="none" fill-rule="evenodd">
        <g id="Create-Request-&gt;-2-Trip-Details-&gt;-Show-Comments" transform="translate(-361.000000, -921.000000)" fill-rule="nonzero" stroke="#3359DB">
            <g id="Group-7" transform="translate(362.000000, 919.000000)">
                <g id="Shape">
                    <path d="M9.5,2.5 C4.26,2.5 0,5.43629579 0,9.08203218 C0,10.8753403 1.04,12.510995 2.72,13.693396 C2.46,14.3437166 1.94,15.5261176 1.24,16.4523317 C0.86,16.9449988 1.34,17.6347327 1.96,17.4770792 C3.9,16.9647054 5.68,15.999078 6.7,15.3684641 C7.58,15.5655309 8.52,15.6640644 9.5,15.6640644 C14.74,15.6640644 19,12.7277686 19,9.08203218 C19,5.43629579 14.74,2.5 9.5,2.5 Z M5,10.3826733 C4.28,10.3826733 3.68,9.81117946 3.68,9.08203218 C3.68,8.37259158 4.26,7.78139109 5,7.78139109 C5.74,7.78139109 6.32,8.3528849 6.32,9.08203218 C6.3,9.81117946 5.72,10.3826733 5,10.3826733 Z M9.5,10.3826733 C8.78,10.3826733 8.18,9.81117946 8.18,9.08203218 C8.18,8.37259158 8.76,7.78139109 9.5,7.78139109 C10.24,7.78139109 10.82,8.3528849 10.82,9.08203218 C10.82,9.81117946 10.22,10.3826733 9.5,10.3826733 Z M14,10.3826733 C13.28,10.3826733 12.68,9.81117946 12.68,9.08203218 C12.68,8.37259158 13.26,7.78139109 14,7.78139109 C14.72,7.78139109 15.32,8.3528849 15.32,9.08203218 C15.32,9.81117946 14.74,10.3826733 14,10.3826733 Z"></path>
                </g>
            </g>
        </g>
    </g>
</svg>
