<?xml version="1.0" encoding="UTF-8"?>
<svg width="19px" height="15px" viewBox="0 0 19 15" version="1.1" xmlns="http://www.w3.org/2000/svg" xmlns:xlink="http://www.w3.org/1999/xlink">
    <!-- Generator: sketchtool 52.5 (67469) - http://www.bohemiancoding.com/sketch -->
    <title>B3B997A1-029D-4CAE-98BD-A2D798D9D545</title>
    <desc>Created with sketchtool.</desc>
    <g id="Web-App" stroke="none" stroke-width="1" fill="none" fill-rule="evenodd">
        <g id="Create-Request-&gt;-2-Trip-Details-3-(One-way)" transform="translate(-362.000000, -809.000000)" fill="#3359DB" fill-rule="nonzero">
            <g id="Group-7" transform="translate(362.000000, 806.000000)">
                <path d="M9.5,3 C4.26,3 0,5.93629579 0,9.58203218 C0,11.3753403 1.04,13.010995 2.72,14.193396 C2.46,14.8437166 1.94,16.0261176 1.24,16.9523317 C0.86,17.4449988 1.34,18.1347327 1.96,17.9770792 C3.9,17.4647054 5.68,16.499078 6.7,15.8684641 C7.58,16.0655309 8.52,16.1640644 9.5,16.1640644 C14.74,16.1640644 19,13.2277686 19,9.58203218 C19,5.93629579 14.74,3 9.5,3 Z M5,10.8826733 C4.28,10.8826733 3.68,10.3111795 3.68,9.58203218 C3.68,8.87259158 4.26,8.28139109 5,8.28139109 C5.74,8.28139109 6.32,8.8528849 6.32,9.58203218 C6.3,10.3111795 5.72,10.8826733 5,10.8826733 Z M9.5,10.8826733 C8.78,10.8826733 8.18,10.3111795 8.18,9.58203218 C8.18,8.87259158 8.76,8.28139109 9.5,8.28139109 C10.24,8.28139109 10.82,8.8528849 10.82,9.58203218 C10.82,10.3111795 10.22,10.8826733 9.5,10.8826733 Z M14,10.8826733 C13.28,10.8826733 12.68,10.3111795 12.68,9.58203218 C12.68,8.87259158 13.26,8.28139109 14,8.28139109 C14.72,8.28139109 15.32,8.8528849 15.32,9.58203218 C15.32,10.3111795 14.74,10.8826733 14,10.8826733 Z" id="Chat"></path>
            </g>
        </g>
    </g>
</svg>
