<?xml version="1.0" encoding="UTF-8"?>
<svg width="12px" height="12px" viewBox="0 0 12 12" version="1.1" xmlns="http://www.w3.org/2000/svg" xmlns:xlink="http://www.w3.org/1999/xlink">
    <!-- Generator: sketchtool 52.5 (67469) - http://www.bohemiancoding.com/sketch -->
    <title>1AAB1986-4457-404B-9C7A-F8D3871ABE70</title>
    <desc>Created with sketchtool.</desc>
    <g id="Web-App" stroke="none" stroke-width="1" fill="none" fill-rule="evenodd">
        <g id="Create-Request-&gt;-2-Trip-Details" transform="translate(-1226.000000, -469.000000)" fill="#9B9B9B" fill-rule="nonzero">
            <g id="Trip-1-section" transform="translate(817.000000, 461.000000)">
                <path d="M419.825817,8.25400888 C419.498334,7.92652636 418.969324,7.92652636 418.641841,8.25400888 L414.535714,12.351739 L410.429587,8.2456119 C410.102105,7.91812937 409.573094,7.91812937 409.245612,8.2456119 C408.918129,8.57309443 408.918129,9.10210466 409.245612,9.42958719 L413.351739,13.5357143 L409.245612,17.6418414 C408.918129,17.9693239 408.918129,18.4983341 409.245612,18.8258167 C409.573094,19.1532992 410.102105,19.1532992 410.429587,18.8258167 L414.535714,14.7196896 L418.641841,18.8258167 C418.969324,19.1532992 419.498334,19.1532992 419.825817,18.8258167 C420.153299,18.4983341 420.153299,17.9693239 419.825817,17.6418414 L415.71969,13.5357143 L419.825817,9.42958719 C420.144902,9.11050165 420.144902,8.57309443 419.825817,8.25400888 Z" id="Shape"></path>
            </g>
        </g>
    </g>
</svg>
