<?xml version="1.0" encoding="UTF-8"?>
<svg width="16px" height="16px" viewBox="0 0 16 16" version="1.1" xmlns="http://www.w3.org/2000/svg" xmlns:xlink="http://www.w3.org/1999/xlink">
    <!-- Generator: sketchtool 51.3 (57544) - http://www.bohemiancoding.com/sketch -->
    <title>746E9DE2-55E5-4533-80AA-566C64D778E9</title>
    <desc>Created with sketchtool.</desc>
    <defs></defs>
    <g id="Web-App" stroke="none" stroke-width="1" fill="none" fill-rule="evenodd">
        <g id="Request-&gt;-Multi-City-Trip-Delete" transform="translate(-286.000000, -615.000000)" fill="#4F4F4F">
            <g id="Modal" transform="translate(240.000000, 50.000000)">
                <g id="Group-2" transform="translate(30.000000, 148.000000)">
                    <g id="Group-7" transform="translate(0.000000, 399.000000)">
                        <g id="Group-9">
                            <path d="M18.8320312,21.0820312 C20.2617259,19.6523366 21.9843649,18.9375 24,18.9375 C26.0156351,18.9375 27.7382741,19.6523366 29.1679688,21.0820312 C30.5976634,22.5117259 31.3125,24.2343649 31.3125,26.25 C31.3125,28.2656351 30.5976634,29.9882741 29.1679688,31.4179688 C27.7382741,32.8476634 26.0156351,33.5625 24,33.5625 C21.9843649,33.5625 20.2617259,32.8476634 18.8320312,31.4179688 C17.4023366,29.9882741 16.6875,28.2656351 16.6875,26.25 C16.6875,24.2343649 17.4023366,22.5117259 18.8320312,21.0820312 Z M28.359375,21.890625 C27.1640565,20.6718689 25.7109461,20.0625 24,20.0625 C22.2890539,20.0625 20.8300842,20.6660096 19.6230469,21.8730469 C18.4160096,23.0800842 17.8125,24.5390539 17.8125,26.25 C17.8125,27.9609461 18.4160096,29.4199158 19.6230469,30.6269531 C20.8300842,31.8339904 22.2890539,32.4375 24,32.4375 C25.7109461,32.4375 27.1699158,31.8339904 28.3769531,30.6269531 C29.5839904,29.4199158 30.1875,27.9609461 30.1875,26.25 C30.1875,24.5390539 29.5781311,23.0859435 28.359375,21.890625 Z M23.4375,22.875 L24.5625,22.875 L24.5625,25.6875 L27.375,25.6875 L27.375,26.8125 L24.5625,26.8125 L24.5625,29.625 L23.4375,29.625 L23.4375,26.8125 L20.625,26.8125 L20.625,25.6875 L23.4375,25.6875 L23.4375,22.875 Z" id=""></path>
                        </g>
                    </g>
                </g>
            </g>
        </g>
    </g>
</svg>