<?xml version="1.0" encoding="UTF-8"?>
<svg width="47px" height="47px" viewBox="0 0 47 47" version="1.1" xmlns="http://www.w3.org/2000/svg" xmlns:xlink="http://www.w3.org/1999/xlink">
    <!-- Generator: sketchtool 51.3 (57544) - http://www.bohemiancoding.com/sketch -->
    <title>99E34A89-A35B-4661-B707-4293AEBA597C</title>
    <desc>Created with sketchtool.</desc>
    <defs>
        <path d="M44.2991667,7.375 L39.3333333,7.375 L39.3333333,2.40916667 C39.3333333,1.08166667 38.2516667,0 36.9241667,0 L36.8504167,0 C35.4983333,0 34.4166667,1.08166667 34.4166667,2.40916667 L34.4166667,7.375 L29.4754167,7.375 C28.1479167,7.375 27.06625,8.45666667 27.0416667,9.78416667 L27.0416667,9.85791667 C27.0416667,11.21 28.1233333,12.2916667 29.4754167,12.2916667 L34.4166667,12.2916667 L34.4166667,17.2329167 C34.4166667,18.5604167 35.4983333,19.6666667 36.8504167,19.6420833 L36.9241667,19.6420833 C38.2516667,19.6420833 39.3333333,18.5604167 39.3333333,17.2329167 L39.3333333,12.2916667 L44.2991667,12.2916667 C45.6266667,12.2916667 46.7083333,11.21 46.7083333,9.8825 L46.7083333,9.78416667 C46.7083333,8.45666667 45.6266667,7.375 44.2991667,7.375 Z M31.9583333,17.2329167 L31.9583333,14.75 L29.4754167,14.75 C28.1725,14.75 26.9433333,14.23375 26.0091667,13.3241667 C25.0995833,12.39 24.5833333,11.1608333 24.5833333,9.78416667 C24.5833333,8.89916667 24.8291667,8.08791667 25.2470833,7.375 L4.91666667,7.375 C2.2125,7.375 0,9.5875 0,12.2916667 L0,41.7916667 C0,44.4958333 2.2125,46.7083333 4.91666667,46.7083333 L34.4166667,46.7083333 C37.1208333,46.7083333 39.3333333,44.4958333 39.3333333,41.7916667 L39.3333333,21.4366667 C38.5958333,21.8545833 37.76,22.125 36.8258333,22.125 C34.14625,22.1004167 31.9583333,19.9125 31.9583333,17.2329167 Z M31.86,41.7916667 L7.375,41.7916667 C6.36708333,41.7916667 5.77708333,40.63625 6.39166667,39.825 L11.2591667,33.3595833 C11.7754167,32.67125 12.7833333,32.7204167 13.275,33.40875 L17.2083333,39.3333333 L23.6245833,30.7783333 C24.11625,30.1391667 25.075,30.1145833 25.5666667,30.75375 L32.81875,39.8004167 C33.4579167,40.6116667 32.8925,41.7916667 31.86,41.7916667 Z" id="path-1"></path>
    </defs>
    <g id="Web-App" stroke="none" stroke-width="1" fill="none" fill-rule="evenodd">
        <g id="Accomodation-&gt;-Add-Guest-House" transform="translate(-477.000000, -214.000000)">
            <g id="icon/image/add_photo_alternate_24px" transform="translate(477.000000, 214.000000)">
                <mask id="mask-2" fill="white">
                    <use xlink:href="#path-1"></use>
                </mask>
                <use fill="#D4D4D4" fill-rule="nonzero" xlink:href="#path-1"></use>
            </g>
        </g>
    </g>
</svg>