<?xml version="1.0" encoding="UTF-8"?>
<svg width="120px" height="35px" viewBox="0 0 120 35" version="1.1" xmlns="http://www.w3.org/2000/svg" xmlns:xlink="http://www.w3.org/1999/xlink">
    <!-- Generator: sketchtool 51.1 (57501) - http://www.bohemiancoding.com/sketch -->
    <title>761EB404-50B4-4F20-811D-C7E3D6576A3F</title>
    <desc>Created with sketchtool.</desc>
    <defs>
        <polygon id="path-1" points="0.402846552 1.36057222 12.8176552 1.36057222 12.8176552 15.0382389 0.402846552 15.0382389"></polygon>
        <polygon id="path-3" points="1.96958793 0.651611111 11.97295 0.651611111 11.97295 7.43658889 1.96958793 7.43658889"></polygon>
    </defs>
    <g id="Web-App" stroke="none" stroke-width="1" fill="none" fill-rule="evenodd">
        <g id="Landing-Page" transform="translate(-80.000000, -83.000000)">
            <g id="Logo_blue" transform="translate(80.000000, 80.000000)">
                <g id="Group-31" transform="translate(0.000000, 1.000000)">
                    <path d="M66.2264293,15.2109056 C64.5240845,15.2109056 63.1117224,15.8542944 62.3231362,16.9827944 L62.3231362,15.8830722 C62.3231362,15.6754611 62.1750155,15.5295167 61.9643086,15.5295167 L60.0804638,15.5295167 C59.8697569,15.5295167 59.71955,15.6754611 59.71955,15.8830722 L59.71955,28.1300722 C59.71955,28.3417944 59.8697569,28.4856833 60.0804638,28.4856833 L61.9643086,28.4856833 C62.1750155,28.4856833 62.3231362,28.3417944 62.3231362,28.1300722 L62.3231362,20.92535 C62.3231362,18.9355722 63.5957224,17.6015167 65.4920845,17.6015167 C67.5073603,17.6015167 68.5713259,18.7999056 68.5713259,21.0692389 L68.5713259,28.1300722 C68.5713259,28.3417944 68.7194466,28.4856833 68.9301534,28.4856833 L70.8139983,28.4856833 C71.0267914,28.4856833 71.1749121,28.3417944 71.1749121,28.1300722 L71.1749121,20.4916278 C71.1749121,17.2335722 69.27855,15.2109056 66.2264293,15.2109056" id="Fill-1" fill="#3359DB"></path>
                    <path d="M89.6973,19.5838944 C90.1541793,18.2313389 91.4434552,17.4563944 92.9997655,17.4563944 C94.5581621,17.4563944 95.7139207,18.2313389 96.1708,19.5838944 C96.3105759,19.9970611 96.3752483,20.47395 96.3752483,21.1255611 C96.3752483,21.2077833 96.2146103,21.2345056 96.1311621,21.2345056 L89.5408345,21.2345056 C89.4615586,21.2345056 89.4323517,21.2077833 89.4323517,21.1255611 C89.4323517,20.47395 89.5575241,19.9970611 89.6973,19.5838944 M92.8683345,15.1808944 C90.1082828,15.1808944 88.0700586,16.5581167 87.2773,18.9610611 C86.9706276,19.8408389 86.7995586,20.7391167 86.7995586,22.2992833 C86.7995586,23.1770056 86.9393345,24.0012833 87.1792483,24.8296722 L87.206369,24.9098389 C87.9761793,27.3333389 90.1583517,28.7763389 93.0164552,28.7763389 C95.3154552,28.7763389 97.3411621,27.9006722 98.5657655,26.37545 C98.7118,26.1966167 98.6951103,26.0116167 98.5282138,25.8800611 L97.3203,24.8050056 C97.1534034,24.67345 96.9698172,24.69195 96.786231,24.8728389 C96.181231,25.56145 95.0671966,26.3857278 93.2209034,26.3857278 C91.4747483,26.3857278 90.1354034,25.6416167 89.626369,24.0876167 C89.5345759,23.8101167 89.4907655,23.4606722 89.4907655,23.41545 C89.4907655,23.3352833 89.5199724,23.3085611 89.6034207,23.3085611 L98.5156966,23.3085611 C98.7514379,23.3085611 98.903731,23.1687833 98.903731,22.9508944 C98.903731,20.7493944 98.7410069,19.8223389 98.459369,18.9610611 C97.6561793,16.5581167 95.6179552,15.1808944 92.8683345,15.1808944" id="Fill-3" fill="#3359DB"></path>
                    <path d="M105.251016,26.2114167 L104.691912,26.2114167 C103.711395,26.2114167 103.346309,25.8126389 103.346309,24.7416944 L103.346309,10.0300833 C103.346309,9.82041667 103.346309,9.67036111 103.337964,9.67447222 L101.105722,9.67447222 C100.892929,9.67447222 100.744809,9.82041667 100.744809,10.0300833 L100.744809,24.8855833 C100.744809,27.4899722 101.794171,28.6020278 104.251722,28.6020278 L105.251016,28.6020278 C105.463809,28.6020278 105.611929,28.4560833 105.611929,28.2464167 L105.611929,26.5649722 C105.611929,26.3573611 105.463809,26.2114167 105.251016,26.2114167" id="Fill-5" fill="#3359DB"></path>
                    <g id="Group-9" transform="translate(106.396552, 13.737278)">
                        <mask id="mask-2" fill="white">
                            <use xlink:href="#path-1"></use>
                        </mask>
                        <g id="Clip-8"></g>
                        <path d="M5.79151897,12.8202944 C3.93896724,12.8202944 2.91672586,12.0720722 2.91672586,10.71335 C2.91672586,9.17579444 3.94313966,8.52007222 6.35062241,8.52007222 L9.17326034,8.52007222 C9.25462241,8.52007222 9.2817431,8.54679444 9.2817431,8.62696111 L9.2817431,10.1645167 C9.2817431,11.8274611 7.97786379,12.8202944 5.79151897,12.8202944 M12.5028466,12.8264611 C11.9771224,12.8264611 11.8331741,12.6825722 11.7997948,12.0617944 L11.7997948,6.23018333 C11.7997948,2.78507222 10.228881,1.36057222 6.20250172,1.36057222 C4.24355345,1.36057222 2.52660517,1.93201667 1.36250172,2.82412778 C1.21646724,2.96596111 1.19560517,3.11601667 1.29157069,3.30923889 L2.08850172,4.64123889 C2.19072586,4.81185 2.42229483,4.82829444 2.59545,4.69057222 C3.55093276,4.01840556 4.59195,3.63607222 5.96676034,3.63607222 C8.71846724,3.63607222 9.27339828,4.68029444 9.2817431,6.34118333 C9.2817431,6.41929444 9.25462241,6.44601667 9.17326034,6.44601667 L5.96676034,6.44601667 C2.32632931,6.44601667 0.402846552,7.95273889 0.402846552,10.8017389 C0.402846552,13.41435 2.24079483,15.0382389 5.20320862,15.0382389 C7.0432431,15.0382389 8.51193276,14.4400722 9.29008793,13.3917389 C9.35893276,14.4647389 9.69481207,14.8552944 11.0925707,14.8552944 L12.8178638,14.8676278 L12.8178638,13.1389056 C12.8178638,12.9497944 12.6906052,12.8264611 12.5028466,12.8264611" id="Fill-7" fill="#3359DB" mask="url(#mask-2)"></path>
                    </g>
                    <path d="M82.4577448,23.0828611 C82.4577448,25.0171389 80.8951759,26.5855278 78.9654345,26.5855278 C77.0356931,26.5855278 75.4731241,25.2206389 75.4731241,22.7580833 L75.4731241,22.3675278 C75.4710379,22.2996944 75.4710379,22.2298056 75.4710379,22.1578611 C75.4710379,22.0591944 75.4710379,21.96875 75.4731241,21.8783056 L75.4731241,21.2863056 C75.4731241,18.8525278 77.0356931,17.3273056 78.9654345,17.3273056 C80.8951759,17.3273056 82.4577448,18.8956944 82.4577448,20.8299722 L82.4577448,23.0828611 Z M82.7811069,9.62719444 C82.5662276,9.62719444 82.4181069,9.77313889 82.4181069,9.98280556 L82.4181069,16.3694167 C81.7692966,15.6109167 80.2776586,15.1669167 78.587831,15.1669167 C76.0822966,15.1669167 74.1024862,16.4578056 73.3618828,18.6551944 C73.0134862,19.6973611 72.8173828,20.7251389 72.8841414,22.0838611 C72.9342103,23.0520278 72.9947103,24.3203056 73.4140379,25.4015278 C74.2777276,27.6400278 76.0656069,28.77675 78.4626586,28.77675 C80.3590207,28.77675 81.8110207,28.2916389 82.4181069,27.4694167 L82.4181069,28.1004722 C82.4181069,28.3101389 82.5662276,28.4560833 82.7811069,28.4560833 L84.6628655,28.4560833 C84.8735724,28.4560833 85.0237793,28.3101389 85.0237793,28.1004722 L85.0237793,9.98280556 L85.0237793,9.62719444 L82.7811069,9.62719444 Z" id="Fill-10" fill="#3359DB"></path>
                    <path d="M49.9583966,21.6836444 L49.9542241,21.6836444 L47.0752586,21.6836444 L49.9542241,14.7954778 L49.9542241,14.7995889 L49.9563103,14.7954778 L49.9583966,14.7995889 L49.9583966,14.7954778 L52.8394483,21.6836444 L49.9583966,21.6836444 Z M58.0069828,27.7639778 L51.3081724,11.4264222 C51.1600517,11.0009222 50.7741034,10.2773667 49.9542241,10.2773667 C49.1322586,10.2773667 48.7504828,11.0009222 48.6002759,11.4264222 L41.9035517,27.7639778 C41.9035517,27.7701444 41.6469483,28.3148667 41.6970172,28.3847556 C41.7470862,28.4525889 41.8326207,28.4916444 41.9411034,28.4916444 L43.9960172,28.4916444 C44.2004655,28.4916444 44.3402414,28.3868111 44.4382931,28.1565889 L46.0822241,24.1852556 L49.9542241,24.1852556 L49.9583966,24.1852556 L53.8178793,24.1852556 L55.4722414,28.1565889 C55.5682069,28.3868111 55.710069,28.4916444 55.9145172,28.4916444 L57.969431,28.4916444 C58.0779138,28.4916444 58.1655345,28.4525889 58.2156034,28.3847556 C58.2656724,28.3148667 58.0069828,27.7701444 58.0069828,27.7639778 Z" id="Fill-12" fill="#3359DB"></path>
                    <g id="Group-16" transform="translate(10.431034, 1.403944)">
                        <mask id="mask-4" fill="white">
                            <use xlink:href="#path-3"></use>
                        </mask>
                        <g id="Clip-15"></g>
                        <path d="M9.1002431,7.43658889 L6.97022586,4.85686667 L4.84229483,7.43658889 L1.96958793,5.89903333 C1.96958793,5.89903333 5.41182931,1.88864444 5.76439828,1.47753333 C6.11279483,1.07053333 6.4382431,0.667644444 6.96605345,0.653255556 L6.96605345,0.6512 C6.96813966,0.6512 6.97022586,0.653255556 6.97022586,0.653255556 C6.97231207,0.653255556 6.97439828,0.6512 6.97857069,0.6512 L6.97857069,0.653255556 C7.50638103,0.667644444 7.8297431,1.07053333 8.17813966,1.47753333 C8.53279483,1.88864444 11.97295,5.89903333 11.97295,5.89903333 L9.1002431,7.43658889 Z" id="Fill-14" fill="#3359DB" mask="url(#mask-4)"></path>
                    </g>
                    <path d="M12.4006224,31.10035 C12.4006224,31.10035 15.8428638,35.1127944 16.1954328,35.5259611 C16.5438293,35.92885 16.8671914,36.3317389 17.3970879,36.3481833 C17.3991741,36.3481833 17.3991741,36.3481833 17.4012603,36.3481833 C17.4012603,36.3481833 17.4054328,36.3481833 17.407519,36.3481833 C17.9374155,36.3317389 18.2607776,35.92885 18.6091741,35.5259611 C18.9617431,35.1127944 22.4039845,31.10035 22.4039845,31.10035 L19.5312776,29.5627944 L17.4012603,32.1445722 L15.2712431,29.5627944 L12.4006224,31.10035 Z" id="Fill-17" fill="#3359DB"></path>
                    <path d="M11.4726776,10.3922722 L8.11597069,10.05105 L8.46019483,13.3584389 L5.32671207,14.2731611 C5.32671207,14.2731611 4.88026379,9.03971667 4.83645345,8.50116111 C4.7905569,7.97288333 4.7300569,7.46105 5.0951431,7.08282778 L5.0930569,7.08077222 C5.0951431,7.08077222 5.09722931,7.07871667 5.09722931,7.07871667 C5.09931552,7.07666111 5.09931552,7.07460556 5.10140172,7.07255 L5.10348793,7.07460556 C5.48735,6.71488333 6.00472931,6.77655 6.54297069,6.81971667 C7.08747069,6.86493889 12.4010397,7.30482778 12.4010397,7.30482778 L11.4726776,10.3922722 Z" id="Fill-19" fill="#3359DB"></path>
                    <path d="M22.4037759,31.10035 C22.4037759,31.10035 27.7173448,31.5402389 28.2660172,31.5854611 C28.798,31.6286278 29.3174655,31.6882389 29.7034138,31.3305722 C29.7034138,31.3285167 29.7055,31.3264611 29.7055,31.3264611 C29.7055,31.3264611 29.7096724,31.32235 29.7117586,31.32235 L29.7096724,31.3202944 C30.0747586,30.9420722 30.0121724,30.4322944 29.9704483,29.9040167 C29.9224655,29.3654611 29.4781034,24.1299611 29.4781034,24.1299611 L26.3446207,25.0446833 L26.690931,28.3541278 L23.3321379,28.0129056 L22.4037759,31.10035 Z" id="Fill-21" fill="#3359DB"></path>
                    <path d="M6.88656897,17.1038667 L4.26837931,19.2025889 L6.88656897,21.3013111 L5.32608621,24.1297556 C5.32608621,24.1297556 1.25381034,20.7401444 0.836568966,20.3907 C0.425586207,20.0474222 0.0166896552,19.7288111 0.0020862069,19.2067 L0,19.2067 L0,19.2025889 C0,19.2005333 0,19.1984778 0,19.1943667 L0.0020862069,19.1943667 C0.0166896552,18.6743111 0.425586207,18.3557 0.836568966,18.0124222 C1.25381034,17.6629778 5.32608621,14.2733667 5.32608621,14.2733667 L6.88656897,17.1038667 Z" id="Fill-23" fill="#3359DB"></path>
                    <path d="M29.4774776,24.1307833 C29.4774776,24.1307833 33.5518397,20.7391167 33.969081,20.3896722 C34.3779776,20.04845 34.7889603,19.7298389 34.8035638,19.2077278 L34.8035638,19.2015611 L34.8035638,19.1953944 C34.7889603,18.6753389 34.3779776,18.3567278 33.969081,18.0113944 C33.5518397,17.6640056 29.4774776,14.2743944 29.4774776,14.2743944 L27.919081,17.1048944 L30.5372707,19.2015611 L27.919081,21.3023389 L29.4774776,24.1307833 Z" id="Fill-25" fill="#3359DB"></path>
                    <path d="M8.46040345,25.0450944 L8.1140931,28.3524833 L11.4708,28.0112611 L12.4012483,31.1007611 C12.4012483,31.1007611 7.08767931,31.54065 6.54317931,31.5838167 C6.00493793,31.6290389 5.48547241,31.6865944 5.10161034,31.3289278 L5.10161034,31.3309833 L5.09743793,31.3268722 C5.09535172,31.3248167 5.09535172,31.3248167 5.09117931,31.3207056 L5.09326552,31.3207056 C4.72817931,30.9424833 4.79076552,30.4327056 4.83457586,29.9023722 C4.88047241,29.3658722 5.32692069,24.1303722 5.32692069,24.1303722 L8.46040345,25.0450944 Z" id="Fill-27" fill="#3359DB"></path>
                    <path d="M29.4774776,14.2733667 C29.4774776,14.2733667 29.9239259,9.03786667 29.9698224,8.49931111 C30.0136328,7.97308889 30.076219,7.46125556 29.7111328,7.08303333 L29.7111328,7.08097778 C29.7090466,7.08097778 29.7069603,7.07892222 29.7069603,7.07892222 L29.7027879,7.07481111 C29.3189259,6.71714444 28.7994603,6.77675556 28.2633052,6.81786667 C27.7188052,6.86514444 22.40315,7.30297778 22.40315,7.30297778 L23.3335983,10.3904222 L26.6903052,10.0512556 L26.346081,13.3586444 L29.4774776,14.2733667 Z" id="Fill-29" fill="#3359DB"></path>
                </g>
            </g>
        </g>
    </g>
</svg>