<?xml version="1.0" encoding="UTF-8"?>
<svg width="13px" height="13px" viewBox="0 0 13 13" version="1.1" xmlns="http://www.w3.org/2000/svg" xmlns:xlink="http://www.w3.org/1999/xlink">
    <!-- Generator: sketchtool 51.3 (57544) - http://www.bohemiancoding.com/sketch -->
    <title>1AFD3916-2637-4F89-A545-B9E984097F3D</title>
    <desc>Created with sketchtool.</desc>
    <defs></defs>
    <g id="Web-App" stroke="none" stroke-width="1" fill="none" fill-rule="evenodd">
        <g id="Requests" transform="translate(-1307.000000, -416.000000)" fill="#4F4F4F">
            <g id="Group-12" transform="translate(1291.000000, 366.000000)">
                <path d="M18.1933594,52.0683594 C19.3847716,50.8769472 20.8203041,50.28125 22.5,50.28125 C24.1796959,50.28125 25.6152284,50.8769472 26.8066406,52.0683594 C27.9980528,53.2597716 28.59375,54.6953041 28.59375,56.375 C28.59375,58.0546959 27.9980528,59.4902284 26.8066406,60.6816406 C25.6152284,61.8730528 24.1796959,62.46875 22.5,62.46875 C20.8203041,62.46875 19.3847716,61.8730528 18.1933594,60.6816406 C17.0019472,59.4902284 16.40625,58.0546959 16.40625,56.375 C16.40625,54.6953041 17.0019472,53.2597716 18.1933594,52.0683594 Z M26.1328125,52.7421875 C25.1367138,51.7265574 23.9257884,51.21875 22.5,51.21875 C21.0742116,51.21875 19.8584035,51.7216747 18.8525391,52.7275391 C17.8466747,53.7334035 17.34375,54.9492116 17.34375,56.375 C17.34375,57.8007884 17.8466747,59.0165965 18.8525391,60.0224609 C19.8584035,61.0283253 21.0742116,61.53125 22.5,61.53125 C23.9257884,61.53125 25.1415965,61.0283253 26.1474609,60.0224609 C27.1533253,59.0165965 27.65625,57.8007884 27.65625,56.375 C27.65625,54.9492116 27.1484426,53.7382862 26.1328125,52.7421875 Z M20.7421875,53.9140625 L22.5,55.7011719 L24.2578125,53.9140625 L24.9609375,54.6171875 L23.1738281,56.375 L24.9609375,58.1328125 L24.2578125,58.8359375 L22.5,57.0488281 L20.7421875,58.8359375 L20.0390625,58.1328125 L21.8261719,56.375 L20.0390625,54.6171875 L20.7421875,53.9140625 Z" id="ï„"></path>
            </g>
        </g>
    </g>
</svg>