<?xml version="1.0" encoding="UTF-8"?>
<svg width="11px" height="9px" viewBox="0 0 11 9" version="1.1" xmlns="http://www.w3.org/2000/svg" xmlns:xlink="http://www.w3.org/1999/xlink">
    <!-- Generator: sketchtool 52.1 (67048) - http://www.bohemiancoding.com/sketch -->
    <title>23FB2A94-C9C3-40D5-B4C0-9882ECB3930A</title>
    <desc>Created with sketchtool.</desc>
    <defs>
        <path d="M0.8617188,3.4468752 C0.384901064,3.4468752 0,3.83177626 0,4.308594 C0,4.78541174 0.384901064,5.1703128 0.8617188,5.1703128 C1.33853654,5.1703128 1.7234376,4.78541174 1.7234376,4.308594 C1.7234376,3.83177626 1.33853654,3.4468752 0.8617188,3.4468752 Z M0.8617188,0 C0.384901064,0 0,0.384901064 0,0.8617188 C0,1.33853654 0.384901064,1.7234376 0.8617188,1.7234376 C1.33853654,1.7234376 1.7234376,1.33853654 1.7234376,0.8617188 C1.7234376,0.384901064 1.33853654,0 0.8617188,0 Z M0.8617188,6.8937504 C0.384901064,6.8937504 0,7.28439626 0,7.7554692 C0,8.22654214 0.390645856,8.617188 0.8617188,8.617188 C1.33279174,8.617188 1.7234376,8.22654214 1.7234376,7.7554692 C1.7234376,7.28439626 1.33853654,6.8937504 0.8617188,6.8937504 Z M3.1596356,8.3299484 L10.053386,8.3299484 C10.3693496,8.3299484 10.6278652,8.07143276 10.6278652,7.7554692 C10.6278652,7.43950564 10.3693496,7.18099 10.053386,7.18099 L3.1596356,7.18099 C2.84367204,7.18099 2.5851564,7.43950564 2.5851564,7.7554692 C2.5851564,8.07143276 2.84367204,8.3299484 3.1596356,8.3299484 Z M3.1596356,4.8830732 L10.053386,4.8830732 C10.3693496,4.8830732 10.6278652,4.62455756 10.6278652,4.308594 C10.6278652,3.99263044 10.3693496,3.7341148 10.053386,3.7341148 L3.1596356,3.7341148 C2.84367204,3.7341148 2.5851564,3.99263044 2.5851564,4.308594 C2.5851564,4.62455756 2.84367204,4.8830732 3.1596356,4.8830732 Z M2.5851564,0.8617188 C2.5851564,1.17768236 2.84367204,1.436198 3.1596356,1.436198 L10.053386,1.436198 C10.3693496,1.436198 10.6278652,1.17768236 10.6278652,0.8617188 C10.6278652,0.54575524 10.3693496,0.2872396 10.053386,0.2872396 L3.1596356,0.2872396 C2.84367204,0.2872396 2.5851564,0.54575524 2.5851564,0.8617188 Z" id="path-1"></path>
    </defs>
    <g id="Web-App" stroke="none" stroke-width="1" fill="none" fill-rule="evenodd">
        <g id="Request-&gt;-Travel-Checklist" transform="translate(-1161.000000, -465.000000)">
            <g id="Request-Options" transform="translate(1145.000000, 413.000000)">
                <g id="icon/editor/format_list_bulleted_24px" transform="translate(16.000000, 52.000000)">
                    <mask id="mask-2" fill="white">
                        <use xlink:href="#path-1"></use>
                    </mask>
                    <use fill="#4F4F4F" fill-rule="nonzero" xlink:href="#path-1"></use>
                </g>
            </g>
        </g>
    </g>
</svg>