<?xml version="1.0" encoding="UTF-8"?>
<svg width="10px" height="10px" viewBox="0 0 10 10" version="1.1" xmlns="http://www.w3.org/2000/svg" xmlns:xlink="http://www.w3.org/1999/xlink">
    <!-- Generator: sketchtool 51.2 (57519) - http://www.bohemiancoding.com/sketch -->
    <title>DCB88FB6-C7A3-48AE-AAB1-3DCFA6F8B053</title>
    <desc>Created with sketchtool.</desc>
    <defs></defs>
    <g id="Web-App" stroke="none" stroke-width="1" fill="none" fill-rule="evenodd">
        <g id="Notifications" transform="translate(-1403.000000, -115.000000)" fill="#999999" fill-rule="nonzero">
            <g id="Group-11" transform="translate(1079.000000, 78.000000)">
                <g id="Group-8" transform="translate(317.000000, 30.000000)">
                    <g id="round-clear-24px" transform="translate(7.000000, 7.000000)">
                        <g id="Rounded_1_">
                            <path d="M9.5,0.507142857 C9.22142857,0.228571429 8.77142857,0.228571429 8.49285714,0.507142857 L5,3.99285714 L1.50714286,0.5 C1.22857143,0.221428571 0.778571429,0.221428571 0.5,0.5 C0.221428571,0.778571429 0.221428571,1.22857143 0.5,1.50714286 L3.99285714,5 L0.5,8.49285714 C0.221428571,8.77142857 0.221428571,9.22142857 0.5,9.5 C0.778571429,9.77857143 1.22857143,9.77857143 1.50714286,9.5 L5,6.00714286 L8.49285714,9.5 C8.77142857,9.77857143 9.22142857,9.77857143 9.5,9.5 C9.77857143,9.22142857 9.77857143,8.77142857 9.5,8.49285714 L6.00714286,5 L9.5,1.50714286 C9.77142857,1.23571429 9.77142857,0.778571429 9.5,0.507142857 Z" id="Shape"></path>
                        </g>
                    </g>
                </g>
            </g>
        </g>
    </g>
</svg>
