<?xml version="1.0" encoding="UTF-8"?>
<svg width="898px" height="826px" viewBox="0 0 898 826" version="1.1" xmlns="http://www.w3.org/2000/svg" xmlns:xlink="http://www.w3.org/1999/xlink">
    <!-- Generator: Sketch 51.1 (57501) - http://www.bohemiancoding.com/sketch -->
    <title>cover</title>
    <desc>Created with Sketch.</desc>
    <defs>
        <path d="M127,0 L14.5406894,185.070834 C5.02980114,200.722611 4.95136988e-13,218.685767 4.97379915e-13,237.000654 L5.82645043e-13,530.186742 C5.86959605e-13,565.417814 18.5391267,598.049504 48.8026641,616.086875 L401,826 L898,826 L898,0 L127,0 Z" id="path-1"></path>
        <polygon id="path-3" points="0.000368625 0.00024575 983 0.00024575 983 983 0.000368625 983"></polygon>
        <polygon id="path-5" points="0 983 983 983 983 0 0 0"></polygon>
    </defs>
    <g id="Web-App" stroke="none" stroke-width="1" fill="none" fill-rule="evenodd">
        <g id="Landing-Page" transform="translate(-542.000000, 0.000000)">
            <g id="cover" transform="translate(542.000000, 0.000000)">
                <g id="Group-22">
                    <mask id="mask-2" fill="white">
                        <use xlink:href="#path-1"></use>
                    </mask>
                    <use id="Mask" fill="#3359DB" fill-rule="nonzero" xlink:href="#path-1"></use>
                    <g id="Group-13" opacity="0.353180804" mask="url(#mask-2)">
                        <g transform="translate(-3.000000, -79.000000)">
                            <polygon id="Fill-1" stroke="none" fill="#A8C8EA" fill-rule="evenodd" points="650 455.603389 697.359606 562 761 562 739.759419 466.767363 713.698324 421"></polygon>
                            <path d="M4.12246437,536.047427 C5.85516487,533.047624 4.94257683,529.144049 2.08435108,527.32502 L0,526 L0,539 C1.65482631,538.691084 3.18310708,537.673704 4.12246437,536.047427" id="Fill-3" stroke="none" fill="#FEF4F1" fill-rule="evenodd"></path>
                            <g id="Group-7" stroke="none" stroke-width="1" fill="none" fill-rule="evenodd">
                                <mask id="mask-4" fill="white">
                                    <use xlink:href="#path-3"></use>
                                </mask>
                                <g id="Clip-6"></g>
                                <path d="M681.810397,839.278273 C681.14933,835.803368 679.765757,831.393384 677.7973,826.181027 C677.719889,825.952479 677.637562,825.728847 677.544177,825.507672 C674.235154,816.846213 669.354559,806.019697 663.466389,793.534368 L752.758422,772.533802 L754.760056,813.463464 L755.921225,869.925756 C746.939062,870.588052 738.421367,871.260178 730.589315,871.939677 C720.126509,872.846494 710.152745,873.668528 700.639762,874.451242 C697.057956,874.746142 693.556019,875.036127 690.105689,875.321197 C685.851756,857.575589 682.750391,844.232593 681.810397,839.278273 Z M557.680844,900.768609 C536.253901,911.823673 498.800372,916.868921 469.988642,918.461381 C475.642121,901.894144 476.343737,886.752258 475.932106,874.179688 C485.024856,878.470483 496.14873,879.981846 509.214029,878.707632 C518.112636,877.838906 527.911917,875.679992 538.57501,872.229662 C587.442397,856.418107 639.557371,845.940556 660.18194,842.085967 C660.287612,842.523402 660.383455,842.943634 660.455951,843.331919 C661.387344,848.237089 664.260161,860.659752 668.210592,877.199956 C619.914574,881.542358 585.380555,886.475789 557.680844,900.768609 Z M456.88771,834.25883 C455.811325,836.140046 455.112166,838.01389 454.667359,839.823838 C451.859665,838.56437 448.792705,837.36511 445.401355,836.238346 C455.554516,832.62705 457.081852,830.629102 458.26391,829.077191 C461.560646,824.756906 467.698252,816.711051 460.456,725.611526 C459.43368,712.753886 458.201244,699.286786 456.875422,686.199369 C471.482802,685.217598 498.050835,682.620021 510.28427,676.288272 C515.911945,673.373677 522.387457,670.300573 529.085374,667.271704 L533.761996,678.111737 C526.348947,681.752523 518.437026,685.862692 511.48353,689.956887 C493.064567,700.799377 478.492821,702.909141 478.365031,702.926343 C475.149392,703.35272 472.827055,706.216936 473.074034,709.451006 L481.289456,817.257845 C469.03759,821.504405 460.968389,827.125936 456.88771,834.25883 Z M446.413845,919.027834 C441.185514,918.954109 436.959842,918.716961 434.114057,918.355708 C416.429887,916.121841 387.722601,928.062833 375.629244,933.586064 C371.777112,931.029036 365.422017,926.040311 358.36162,917.377623 C351.967205,909.532054 351.54943,877.054963 354.781042,850.411977 C358.822401,848.745792 368.04417,847.740675 379.91881,847.891811 C381.881124,848.025745 383.936822,848.084725 386.088364,848.068751 C396.713365,848.530761 408.896421,849.857811 421.167947,852.348487 C443.308794,856.840797 451.895299,862.424237 453.645039,864.467648 C454.634182,879.084858 455.744972,898.086248 446.413845,919.027834 Z M427.595539,946.763179 C423.997759,950.999909 420.275875,955.381632 417.003714,959.708061 C415.31664,961.937013 413.74384,964.140162 412.247222,966.323651 C409.9298,963.223514 407.623436,960.077914 405.341647,956.880707 C402.889062,953.442664 400.191956,950.523154 397.295792,948.026334 C410.174321,943.048668 424.128006,938.995022 431.381317,939.917813 C431.928111,939.987852 432.530199,940.054204 433.181436,940.114413 C431.425552,942.253667 429.532049,944.482619 427.595539,946.763179 Z M441.849039,804.950684 C441.645066,809.473713 441.319447,812.646346 440.947136,814.683613 C433.449304,817.617868 413.168785,824.034401 394.316074,825.872611 C391.293349,826.167511 388.660137,826.300216 386.3378,826.327248 C384.502047,826.249837 382.68104,826.192086 380.89198,826.162596 C375.56412,825.737448 372.881759,824.630344 371.742707,823.987708 C367.408906,821.537581 364.055647,818.711456 361.632552,815.476157 L441.849039,804.950684 Z M322.135612,645.611299 C320.415362,641.282413 318.381781,637.676032 316.140541,634.633647 C342.674169,627.298009 376.24239,610.718486 414.847257,589.566783 C420.00555,598.255274 424.15381,607.496703 426.006765,616.697583 C427.369449,623.458166 429.202744,635.829221 431.160142,651.598998 L409.529227,656.602468 L407.539881,640.492327 C407.127021,637.141526 404.055146,634.800757 400.725234,635.175526 C397.374432,635.588386 394.993115,638.639372 395.407204,641.988944 L398.228414,664.836322 C398.440987,666.555343 399.373609,668.102339 400.791586,669.096398 C401.992075,669.936863 403.446915,670.311632 404.888239,670.171554 C405.151191,670.145751 405.412915,670.102744 405.67341,670.043764 L432.618669,663.809087 C434.653479,681.467453 436.727609,702.095708 438.471205,723.381344 C441.108102,755.569679 442.028436,777.823571 442.070214,792.590688 L357.049315,803.747738 C357.045629,803.715791 357.039485,803.683843 357.037027,803.651896 C356.1597,795.575322 354.874427,786.457997 353.29917,776.763159 L422.663336,769.393117 C426.020281,769.036779 428.451977,766.026342 428.09564,762.668168 C427.740531,759.329654 424.759584,756.905331 421.424756,757.230949 C421.406325,757.233407 421.389122,757.233407 421.370691,757.234636 L351.241014,764.687004 C343.112832,719.000851 329.92343,665.211091 322.135612,645.611299 Z M287.859631,951.551618 C270.173004,957.010954 251.885517,962.654603 235.636527,965.252181 C214.59787,968.618956 196.573336,963.566336 177.810324,957.746976 C179.077165,954.552226 183.62354,944.670618 194.306292,935.801501 C194.867831,935.479568 195.376534,935.071623 195.809054,934.593639 C201.18975,930.403602 208.00194,926.531811 216.55404,923.818731 C216.949697,923.738862 217.33061,923.620902 217.691862,923.468537 C228.04531,920.369629 240.879604,918.963939 256.716962,920.673131 C259.578721,920.977861 262.278285,919.247781 263.178959,916.507668 C263.475087,915.604537 269.971489,895.095471 259.146201,863.515367 L260.927889,863.338427 C264.287291,863.006664 266.741105,860.013429 266.409342,856.654027 C266.078809,853.297082 263.08926,850.844497 259.733544,851.171344 C259.731086,851.172573 259.728629,851.172573 259.724942,851.172573 L254.673551,851.671446 C249.835962,839.096418 246.04404,828.683991 243.801571,820.300229 L309.178444,818.876108 L317.88168,892.606023 C318.202384,895.314188 320.276514,897.482932 322.967476,897.922824 L331.76164,899.356776 C332.938782,912.137004 335.746476,924.031304 341.514229,931.107676 C343.217276,933.197779 344.890834,935.103571 346.531215,936.879114 C328.031155,939.157217 307.797329,945.399267 287.859631,951.551618 Z M164.711849,923.146604 L163.962311,872.923906 L205.368729,868.830939 L208.865751,913.618877 C200.932941,916.591223 194.473402,920.386832 189.301594,924.281969 L164.711849,923.146604 Z M143.895595,922.186951 L146.086456,874.690848 L151.753451,874.129309 L152.478414,922.582608 L143.895595,922.186951 Z M246.611722,864.752718 C254.205397,885.308477 253.54433,900.73912 252.501121,908.029293 C245.303104,907.536565 238.685056,907.654525 232.601515,908.24924 C228.436052,908.654727 224.523712,909.283847 220.853436,910.091136 L217.538269,867.626764 L246.611722,864.752718 Z M147.543754,843.104601 C152.259696,842.297312 157.132919,841.347488 162.108127,840.231783 C189.202065,834.150699 211.941312,824.647547 229.699207,812.124127 C229.80488,812.984252 229.931441,813.860351 230.08012,814.756109 C230.108381,815.203374 230.187021,815.637123 230.30621,816.052441 C232.110015,825.844349 236.291451,837.824662 242.055517,852.918627 L146.657825,862.349283 L147.543754,843.104601 Z M331.089514,886.860388 L329.482309,886.597436 L321.457342,818.610698 L338.469386,818.240844 C340.26459,822.729468 342.774926,826.881414 345.967219,830.651219 C339.296335,833.467514 334.134356,838.043379 333.49172,845.515408 C332.71515,851.479761 330.728261,868.806364 331.089514,886.860388 Z M241.919126,802.312558 C246.695277,797.935751 250.970099,793.270187 254.719015,788.334298 C254.978281,788.048 255.206829,787.742041 255.405886,787.420108 C258.192691,783.661362 260.678452,779.749022 262.858255,775.685546 C296.80616,712.379117 283.518457,663.696042 278.202885,649.343013 L292.809036,642.396889 C296.621847,644.561947 299.610167,647.780043 301.936191,653.637494 C310.708237,675.711988 330.183925,757.694188 335.430687,806.001266 C335.431916,806.025841 335.436831,806.051645 335.440517,806.077448 L320.017247,806.414126 L302.992916,662.176078 C302.59603,658.824048 299.518011,656.398496 296.205301,656.822414 C292.852042,657.216843 290.454751,660.256771 290.851637,663.607572 L307.738349,806.679536 L241.582449,808.119631 C241.459574,805.941057 241.564017,804.008233 241.919126,802.312558 Z M224.356602,737.494767 L269.362029,724.074359 C266.319644,737.828987 260.98564,753.307551 252.084575,769.906734 C251.43088,771.125654 250.751381,772.319999 250.04485,773.493456 L224.356602,737.494767 Z M241.505037,653.255353 L173.816886,607.817407 L182.539782,595.375084 L192.41156,602.931897 C195.092692,604.983909 198.930079,604.477664 200.982091,601.794075 C203.034104,599.114171 202.524172,595.276785 199.84304,593.224772 L184.908812,581.792482 C183.589135,580.781221 181.929094,580.348701 180.262909,580.604281 C178.615155,580.858632 177.14557,581.77528 176.188374,583.137963 L170.582816,591.134668 L166.117539,587.361177 L182.903492,565.344435 C215.553837,596.654213 243.823689,620.924483 264.901666,631.937769 C264.906581,631.940227 264.911496,631.945142 264.91764,631.948828 C268.622321,634.176552 272.425302,635.595758 276.197565,636.759384 L241.505037,653.255353 Z M219.391224,663.770996 L155.590837,653.857441 L162.261721,624.301088 L166.798266,617.829262 L228.6646,659.361012 L219.391224,663.770996 Z M125.109236,592.949532 L161.49621,544.467972 C167.094395,550.007177 172.591822,555.391559 177.977434,560.600231 L158.757326,585.812952 C157.661281,587.250589 157.883685,589.296458 159.267257,590.464999 L166.668019,596.719337 L160.283434,605.826832 C160.246571,605.87844 160.20848,605.930047 160.172846,605.982883 L155.023155,613.330808 L125.109236,592.949532 Z M143.482735,651.976224 L131.212437,650.070433 L126.88478,608.952772 L149.686694,624.489087 L143.482735,651.976224 Z M54.6281361,638.171218 C54.8026186,637.771874 54.9328661,637.351642 55.0078199,636.914207 C55.0237936,636.818364 56.7305274,627.160389 65.5234624,605.160849 C69.3891099,595.490587 75.0204711,583.067924 81.5353036,570.582596 C81.6041136,570.623144 81.6643224,570.673523 81.7368186,570.710386 L114.306066,586.976578 L111.491,590.729181 C110.489569,592.064832 110.076709,593.753134 110.349491,595.398431 C110.622274,597.044956 111.558581,598.509626 112.938467,599.448391 L120.834415,604.829087 C120.17089,605.518416 119.794892,606.471926 119.903022,607.501618 L124.268771,648.991591 L54.6281361,638.171218 Z M102.674719,535.867951 C107.761744,539.084818 112.761527,542.227961 115.947676,544.187817 C121.126857,547.372737 125.551586,547.158934 128.344535,546.416769 C133.113314,545.153614 136.236796,541.692226 137.748159,539.603351 L151.367624,534.397137 C151.828405,534.857918 152.281814,535.307641 152.741366,535.765964 L118.45064,581.455804 L84.7718311,564.634217 C84.7546286,564.626844 84.7349686,564.623158 84.7165374,564.614557 C90.3552711,554.263567 96.5076224,544.165699 102.674719,535.867951 Z M116.329817,498.996849 C117.486071,500.171534 118.661985,501.368337 119.840356,502.565139 C115.719129,506.640903 111.570869,510.570446 107.651156,514.008488 C104.906129,516.416838 102.143899,519.301943 99.3951849,522.533556 C97.2252124,521.154898 95.2542974,519.900344 93.6470924,518.876796 L116.329817,498.996849 Z M95.9202799,451.478629 L112.2774,435.633898 L142.266272,467.231204 L127.927989,479.798859 C124.768872,476.591822 121.689625,473.473254 118.720965,470.477562 C111.959154,463.655542 104.26595,457.342224 95.9202799,451.478629 Z M51.4616474,426.507972 C60.3147911,413.881337 70.4962136,398.427348 80.7415311,382.427794 L111.38287,409.402543 C109.011382,409.67164 106.775057,410.70379 105.041291,412.38472 L77.0049024,439.542552 C68.8091399,434.867158 60.2373799,430.532128 51.4616474,426.507972 Z M101.12035,350.089552 L121.952577,359.661514 L125.021995,417.490176 L120.484221,412.709109 C120.404352,412.625554 120.317111,412.553058 120.236014,412.471961 C121.367692,411.065042 121.21287,409.008114 119.842814,407.802711 L84.4376111,376.634238 C90.0996911,367.735631 95.7310524,358.760841 101.12035,350.089552 Z M158.968671,397.695013 C158.974815,399.551654 157.661281,401.887508 155.164461,404.476484 C155.013325,404.419962 154.865875,404.364668 154.714739,404.309374 C151.368852,403.076938 148.414937,400.138997 147.693661,397.323931 C147.22305,395.483263 147.927124,394.399506 148.498492,393.743353 C149.777621,392.274997 151.12556,391.464022 152.510361,391.328859 C152.576714,391.322716 152.644295,391.317801 152.710647,391.314114 C154.096677,391.245304 155.066161,391.855993 155.209925,391.987469 C155.436015,392.235677 155.730915,392.529348 156.073736,392.866026 C157.596157,394.355271 158.962527,395.845744 158.968671,397.695013 Z M115.730187,326.390651 L184.8228,371.052027 C185.730846,371.638141 186.803545,371.894949 187.865185,371.790506 C188.126909,371.765931 188.387404,371.718009 188.645441,371.649199 C189.94423,371.297777 191.03536,370.410619 191.643591,369.208902 L205.137724,342.590491 C206.324696,340.249722 205.388389,337.387963 203.04762,336.200991 C200.705622,335.012789 197.845092,335.950326 196.65812,338.291095 L185.55022,360.199707 L120.684507,318.269842 C124.089374,312.677801 127.172307,307.584632 129.83378,303.172191 L189.420782,339.357649 C190.334972,339.911816 191.358521,340.123161 192.346436,340.026089 C193.785302,339.886012 195.143071,339.093468 195.951589,337.762732 C197.314272,335.517806 196.600369,332.593381 194.355442,331.230697 L134.735264,295.023121 C137.841544,289.847626 139.792799,286.565635 140.217946,285.851731 C140.32239,285.674791 140.421919,285.496622 140.516532,285.315996 C140.856896,284.659843 142.811837,280.891267 145.839477,274.904797 C149.17922,275.538832 163.100957,278.387075 176.504162,284.148683 C176.500476,284.183088 176.499247,284.216265 176.498019,284.251898 L175.707932,302.066316 C175.618234,304.094982 176.826095,305.95531 178.714684,306.699932 C185.303241,309.293823 216.717464,321.281508 231.224086,319.901622 L252.234482,334.543407 C255.5988,342.865731 259.565205,352.151394 264.143527,362.031773 C269.33131,373.229372 274.710777,383.907209 280.257355,394.025966 L226.80673,459.306996 L198.223547,432.254836 C197.133646,431.223914 195.76359,430.698009 194.373874,430.619369 L193.707891,429.904237 C193.628022,429.818224 193.543239,429.734669 193.457226,429.654801 C192.781414,429.029367 179.348719,416.693946 164.168741,408.606313 C167.041559,404.949553 168.487797,401.281734 168.47551,397.665523 C168.458307,391.682739 164.586516,387.892046 162.726189,386.071038 C162.532046,385.880582 162.36125,385.718387 162.235917,385.581996 C160.074546,383.209279 156.448505,381.760583 152.774542,381.801132 C149.787451,381.830622 145.377467,382.851713 141.331194,387.496388 C138.355161,390.909856 137.3439,395.237513 138.481722,399.681902 C139.990627,405.573758 145.073966,410.893017 151.432747,413.232557 C167.518314,419.151446 185.241804,435.036726 186.882185,436.525971 L188.021236,437.749806 C188.239954,438.999444 188.827296,440.193789 189.820126,441.133783 L190.805584,442.066404 L169.699345,464.564817 L132.227385,425.083851 L128.627147,357.251936 C128.623461,357.191727 128.606259,357.136433 128.600115,357.076224 C128.587827,356.958264 128.570625,356.842762 128.54605,356.72726 C128.522704,356.619129 128.494442,356.514686 128.462495,356.410242 C128.429319,356.307027 128.392456,356.207498 128.350679,356.107969 C128.306444,356.004754 128.258522,355.905226 128.204457,355.806926 C128.15285,355.712312 128.096327,355.621384 128.03489,355.531686 C127.974681,355.441987 127.910786,355.355974 127.841976,355.273648 C127.771937,355.187636 127.695755,355.105309 127.615886,355.026669 C127.538475,354.950487 127.458606,354.879219 127.375051,354.810409 C127.290267,354.741599 127.205484,354.677705 127.113327,354.617496 C127.013799,354.549914 126.910584,354.490934 126.803682,354.435641 C126.752075,354.408608 126.70784,354.371746 126.653775,354.347171 L104.72796,344.272649 C108.580091,338.049031 112.274942,332.039214 115.730187,326.390651 Z M150.877352,264.852393 C151.540877,263.515513 152.225291,262.134398 152.93428,260.699218 C167.228329,263.43073 198.890759,268.315011 219.77828,262.788093 C220.962795,262.474762 222.122735,262.173718 223.269159,261.878818 C224.687136,267.780505 227.787272,275.192324 231.016427,282.000828 L189.852074,280.099952 C189.288077,279.792765 188.726539,279.490492 188.171144,279.194363 C180.45828,275.084195 171.138211,271.514676 160.471432,268.582878 C156.232245,267.418023 153.124736,266.637767 150.817144,266.142581 L150.877352,264.852393 Z M167.098081,231.24731 L170.580359,225.623321 C177.900022,225.085128 201.131999,223.420172 230.47332,221.736785 C228.589646,229.073651 224.665019,244.532554 223.059042,252.117628 C221.206087,252.587011 219.30644,253.077282 217.346584,253.595814 C199.60712,258.288411 171.829997,254.428907 157.284055,251.814127 C160.362074,245.481149 163.685842,238.539941 167.098081,231.24731 Z M197.578454,158.383663 C202.965294,142.556135 207.387565,122.660215 212.069102,101.593296 C215.496086,86.1712545 219.211826,69.4553395 223.73977,52.505962 L274.005475,62.689842 L256.504389,157.424009 C256.465069,157.636583 256.440494,157.851615 256.431892,158.067875 L255.67744,174.427452 L254.587539,210.874634 C218.875149,212.680897 187.632951,214.847183 174.19657,215.821582 C182.989505,196.37047 191.648506,175.806109 197.578454,158.383663 Z M277.737189,3.8056845 C283.970637,5.39445825 298.193419,8.433157 312.19994,11.342837 L303.227607,58.920037 L266.060377,51.3890283 C269.699935,31.5643758 274.68866,10.1165445 277.737189,3.8056845 Z M318.852392,12.719037 C325.367225,14.060832 331.52572,15.3153857 336.477582,16.3192745 C343.515862,26.176307 351.41181,37.308782 360.252666,49.866607 C366.583186,58.861057 372.112561,66.7852657 376.944006,73.8579507 L309.884975,60.2692045 L318.852392,12.719037 Z M370.682296,20.7046833 L411.537005,24.5457558 C412.754696,38.8729807 413.197046,60.3613608 409.70371,67.3762945 C408.067015,70.6644295 405.78154,72.913042 403.507124,74.461267 C396.674045,64.031637 388.273081,51.916162 378.025306,37.3567033 C375.286422,33.4664808 372.638466,29.7126495 370.077751,26.0902945 L370.682296,20.7046833 Z M416.461835,74.707017 L446.208644,79.823532 L438.168932,113.443361 C433.793354,114.229761 429.691786,115.603503 426.15913,117.093977 C422.970524,107.207454 417.409201,96.4300882 408.658044,82.482547 C411.409215,80.6664545 414.175131,78.1585757 416.461835,74.707017 Z M421.147059,25.448887 L471.948499,30.2250382 L459.388216,72.441202 L420.207065,65.702737 C422.874681,53.8760182 421.899054,35.0319082 421.147059,25.448887 Z M475.069524,127.252053 L456.807841,199.939988 L420.483534,200.016171 C420.950459,197.021707 421.468991,193.964577 422.067392,190.825121 C422.769009,187.132727 423.44605,183.661508 424.086229,180.380746 C428.447062,158.011352 430.99549,143.529304 428.975425,129.203308 C434.080881,126.809703 441.063867,124.430843 447.756869,125.088224 C450.913527,125.396641 461.015081,126.189185 475.069524,127.252053 Z M529.913551,174.84277 C530.064687,183.072937 530.771219,191.427208 531.897982,199.782708 L466.906937,199.919099 L476.749225,167.043893 L529.913551,174.84277 Z M484.693094,127.978244 C498.909731,129.043571 515.86771,130.296896 533.323332,131.578482 C532.426345,140.161301 531.601854,147.672649 530.891636,153.634544 C530.43577,157.451042 530.155615,161.330206 530.005707,165.245003 L477.273901,157.510022 L484.693094,127.978244 Z M500.527995,64.945827 L533.331934,72.1487595 L538.659794,77.5650895 C537.254104,92.3444945 535.863159,106.664347 534.572971,119.410171 C517.842311,118.181421 501.567517,116.979703 487.717047,115.943867 L500.527995,64.945827 Z M545.538336,259.381998 L419.748741,266.278972 C417.701644,253.830506 416.208712,234.631287 419.17983,209.527924 L533.354051,209.288318 C536.306737,226.610007 540.805191,243.695776 545.538336,259.381998 Z M553.484662,284.242068 L488.68776,283.843953 C487.412317,283.836581 486.20077,284.335453 485.302554,285.231212 C484.404337,286.125742 483.901779,287.342204 483.904236,288.610274 C483.943556,305.034976 483.44837,324.244024 482.568585,330.244011 C477.354999,331.097992 461.885036,330.815379 446.768954,329.966313 C434.252906,304.275608 425.63814,286.682366 423.635277,282.594314 C423.355122,281.815287 422.567494,279.476976 421.64716,275.697341 L548.435729,268.746302 C550.14492,274.140514 551.84551,279.324611 553.484662,284.242068 Z M660.120502,177.741391 C661.132992,185.14461 663.493421,202.473671 666.175782,222.619027 L562.517204,239.820298 C556.316931,217.189181 551.408075,192.717396 551.621877,170.214068 L660.120502,177.741391 Z M552.472172,156.208776 C553.213109,150.004817 554.072005,142.151876 555.009541,133.166027 C595.259705,136.107654 633.223165,138.847767 641.453332,139.442482 L668.29169,154.939477 L661.495474,168.305819 L552.03228,160.712145 C552.152697,159.199553 552.295232,157.695563 552.472172,156.208776 Z M559.229069,90.7778382 C588.508952,92.6307932 629.156002,96.3367032 643.015074,100.440728 L640.485077,127.114433 C629.771606,126.34155 594.070275,123.761174 556.256722,120.997716 C557.205317,111.605151 558.207977,101.389323 559.229069,90.7778382 Z M649.577827,103.180841 C661.749825,108.734791 687.160375,119.117728 713.776329,126.475483 L695.918905,156.775229 L647.164562,128.62211 L649.577827,103.180841 Z M658.765191,6.28898825 L690.103231,16.0010282 L677.61053,86.2400645 C677.367237,87.6101207 677.735862,89.0182683 678.619334,90.0934245 C679.502805,91.1685808 680.81511,91.801387 682.206055,91.825962 C694.456692,92.0434508 714.272744,92.863027 720.551656,94.2502857 C721.656302,97.163652 720.38086,107.364734 717.710786,117.718182 C688.756521,109.859097 660.862667,98.082757 650.530109,93.133352 L658.765191,6.28898825 Z M699.377836,18.1562558 L777.808949,26.363077 L777.589002,30.9659745 L764.378711,126.013473 C759.525149,125.467908 754.964029,124.938317 751.014826,124.477536 C743.295819,123.57932 735.143062,122.022493 726.935012,120.067552 C729.238919,111.247585 732.391891,95.9435033 728.68721,89.2627895 C727.250801,86.6725845 725.208619,85.6502645 723.747635,85.2472345 C717.295469,83.470462 697.817324,82.7209245 687.94186,82.448142 L699.377836,18.1562558 Z M724.213331,187.231027 L714.540611,191.219549 C712.832649,191.924852 711.687454,193.551717 711.60267,195.396071 L710.969864,209.105235 L700.204785,212.452349 L695.347536,202.723107 L688.989984,179.191316 L696.740939,171.367865 L724.213331,187.231027 Z M741.852037,240.986382 L717.871752,247.840349 L704.507867,221.072031 L716.977222,217.195324 C718.887929,216.601838 720.22358,214.872987 720.314507,212.87504 L720.96083,198.857459 L732.067501,194.27668 L741.852037,240.986382 Z M743.80575,250.31751 L754.846069,303.027198 C747.704574,306.922336 742.037579,309.787781 738.352557,311.28317 L730.728164,313.777532 L720.565172,256.958903 L743.80575,250.31751 Z M758.362751,314.996452 L779.550087,357.781527 C766.209549,364.854212 754.071956,372.128412 743.723424,379.540232 C703.634226,408.243832 670.714785,430.229856 643.051936,447.454473 C639.827696,433.304188 632.258596,409.624947 614.532649,379.559892 C612.001424,375.266639 609.650825,371.058171 607.467336,366.955374 L742.349681,322.838334 C742.475014,322.796557 742.600346,322.751093 742.72445,322.701943 C746.317315,321.260619 751.673436,318.596689 758.362751,314.996452 Z M791.344859,441.042856 L741.940507,459.518341 L721.922941,421.463953 C732.802294,413.945232 744.266531,405.880946 756.375862,397.209657 C763.11187,392.385585 770.709231,387.60329 778.973804,382.886118 C781.414101,388.854157 784.215651,398.287271 785.110181,411.556542 C785.539015,417.89935 787.990371,428.679173 791.344859,441.042856 Z M813.49062,511.961391 L757.533345,514.311989 L747.833592,471.174263 C747.778299,470.927284 747.70826,470.683992 747.622247,470.445614 L794.671085,452.849915 C801.188375,475.251256 809.339902,499.730413 813.49062,511.961391 Z M816.337634,399.626608 C818.840597,399.931338 821.978825,400.403178 825.609781,400.948743 C831.854289,401.888737 839.659309,403.059736 848.297421,403.961638 L852.070912,510.339441 L826.227842,511.425656 C820.311411,494.086764 798.566222,429.339012 797.307982,410.732051 C797.169134,408.678809 796.984821,406.712809 796.76979,404.813162 C798.760365,402.856992 804.803357,398.220918 816.337634,399.626608 Z M853.993906,564.483081 C854.00005,564.648962 854.03937,564.802556 854.057801,564.964751 L805.638907,559.864209 L801.208035,524.713358 L822.063609,523.836031 C822.142249,523.834802 822.220889,523.831116 822.2983,523.826201 L852.50589,522.556902 L853.993906,564.483081 Z M872.935087,580.612882 L872.76552,662.053203 L849.508969,662.663892 C849.391009,662.269463 849.233729,661.893466 849.042044,661.539586 L848.494021,578.038651 L872.935087,580.612882 Z M893.139424,404.168068 L904.028606,570.228716 L865.898036,566.213161 C866.126584,565.534891 866.2384,564.805013 866.211367,564.049332 L860.56649,404.976586 C871.11408,405.605706 882.323966,405.586046 893.139424,404.168068 Z M916.527451,398.236892 C917.802894,397.712216 919.110284,397.221944 920.433647,396.748876 L925.348647,570.975796 C925.364621,571.509073 925.469065,572.014089 925.610371,572.503132 L916.346825,571.527504 C916.346825,571.485727 916.350511,571.445178 916.349282,571.403401 L916.349282,571.380054 C916.346825,571.263323 916.340681,571.145363 916.33208,571.032318 L905.24384,401.903482 C909.13652,400.931541 912.917384,399.723679 916.527451,398.236892 Z M941.926942,391.244076 L964.575262,572.818921 L964.501537,576.601013 L936.83746,573.686418 C937.325274,572.775915 937.601742,571.737621 937.569795,570.631746 L932.563867,393.181814 C935.678749,392.434734 938.819434,391.795784 941.926942,391.244076 Z M963.400577,633.827587 L914.019572,622.115142 L915.728764,585.121166 L964.241042,590.231537 L963.400577,633.827587 Z M927.07627,708.837859 L926.873526,860.211258 C919.65462,860.547936 911.62351,860.928848 902.979254,861.351538 L910.054396,708.051459 L927.07627,708.837859 Z M901.580936,626.496864 C901.576021,626.577962 901.572335,626.659059 901.569877,626.740157 L899.972502,661.340528 L884.990354,661.733728 L885.157464,581.900612 L903.549394,583.838351 L901.580936,626.496864 Z M898.128149,701.314223 C898.125691,701.336341 898.125691,701.359687 898.123234,701.381805 C898.123234,701.403922 898.122005,701.42604 898.120776,701.448157 L896.640132,733.535735 C895.560061,733.319475 894.433297,733.260495 893.288102,733.391971 L763.813486,748.316368 L763.688154,745.728621 C763.68201,745.606975 763.67218,745.4841 763.658664,745.361225 C763.213856,741.290376 762.706382,734.419206 762.567534,726.643676 L846.25401,723.74997 C847.878417,723.694676 849.424185,722.984458 850.532517,721.787656 C851.639621,720.588396 852.222049,718.995936 852.148324,717.365385 L850.243761,674.872752 L899.407277,673.585022 L898.128149,701.314223 Z M890.712642,861.957312 C853.230852,863.828698 807.33704,866.324289 768.131314,869.050886 L766.979975,813.128016 C766.978746,813.070264 766.977517,813.012513 766.976289,812.954762 L764.878812,770.071387 L784.52161,767.806801 L781.283854,825.822232 C781.095855,829.192693 783.675001,832.076569 787.046691,832.265797 C787.364937,832.284228 787.679497,832.276856 787.986685,832.246137 C790.938142,831.958609 793.31946,829.553946 793.490256,826.502959 L796.843515,766.386366 L824.662415,763.179328 L823.987831,795.261991 C823.916564,798.637367 826.595239,801.430316 829.970615,801.501583 C830.217594,801.506498 830.460886,801.495439 830.700492,801.472093 C833.74042,801.175964 836.146312,798.647197 836.210207,795.518799 L836.919196,761.767494 L869.252524,758.040696 L871.431097,832.178556 C871.529397,835.552703 874.346921,838.208032 877.71984,838.108503 C877.862375,838.104817 878.002452,838.094987 878.140072,838.081471 C881.311476,837.771826 883.74563,835.052602 883.651016,831.818532 L881.440495,756.636234 L895.648531,754.998311 L890.712642,861.957312 Z M789.881417,558.204168 C789.698334,558.173449 789.511564,558.158704 789.323565,558.145188 L766.859557,555.777387 L760.259941,526.433608 L788.950025,525.228204 L793.15235,558.548218 L789.881417,558.204168 Z M838.021385,675.194684 L839.659309,711.745082 L762.697781,714.407783 C763.124157,704.368896 764.431547,694.413563 767.418639,688.021606 C768.463076,685.791424 769.706571,683.338839 771.023791,680.742491 C771.655369,679.502682 772.30292,678.223553 772.968902,676.897732 L838.021385,675.194684 Z M778.804236,664.515618 C787.04792,645.500712 795.274401,617.991457 795.113435,572.413433 L836.260586,576.749692 L836.825811,662.995654 L778.804236,664.515618 Z M693.886552,548.090327 L688.279766,534.112067 L711.030072,524.202198 C714.125294,522.853031 715.540814,519.252793 714.192875,516.157572 C712.847394,513.062351 709.242241,511.644373 706.149477,512.994769 L683.727247,522.759646 L659.640061,462.715548 C675.312767,452.854829 692.587764,441.533127 711.775924,428.433423 L736.084285,474.645482 L746.699456,521.849142 C746.716659,521.938841 746.736319,522.028539 746.757207,522.115781 L754.024035,554.425762 L693.886552,548.090327 Z M650.82378,767.142047 C636.309785,737.056103 619.861737,702.958291 608.296742,672.894464 C605.215037,664.881786 599.954759,652.645893 593.12168,637.390962 L695.460581,564.578923 C696.362484,563.938744 697.032152,563.083534 697.46713,562.126338 L713.792302,563.847817 L716.957562,699.898703 L672.202801,710.866526 C668.923267,711.670128 666.916719,714.980381 667.719092,718.258686 C668.523924,721.538219 671.837862,723.544768 675.111252,722.741166 L717.247547,712.415979 L718.315331,758.307334 L653.872309,773.462737 C652.870877,771.386149 651.854701,769.278843 650.82378,767.142047 Z M549.182809,746.881188 L489.196462,760.124656 L485.671179,713.886793 C492.287997,712.255013 504.03239,708.528214 517.685031,700.490961 C523.96763,696.792423 531.180392,693.029991 538.06385,689.630039 L549.182809,746.881188 Z M540.048281,574.304479 C543.959392,582.624346 547.747629,590.709521 551.368755,598.482593 L510.217917,619.925509 L504.03239,603.434456 C502.847875,600.271653 499.326277,598.669363 496.164704,599.856336 C493.00313,601.042079 491.402069,604.564906 492.586584,607.725251 L501.196435,630.684445 C501.81081,632.322368 503.097311,633.6187 504.732777,634.246591 C505.626079,634.588183 506.579589,634.712287 507.51221,634.62136 C508.282636,634.546406 509.042004,634.324002 509.74362,633.957834 L556.52459,609.581892 C561.096769,619.452441 565.347015,628.71353 569.193002,637.195591 C555.188939,642.704077 525.042786,654.882218 504.663967,665.429808 C495.083404,670.390272 470.863512,672.980477 455.603666,674.021228 C452.740679,647.445823 449.628255,623.891914 447.31329,612.404331 C447.285029,612.26794 447.249395,612.132777 447.221134,611.995157 L540.048281,574.304479 Z M451.310414,569.19288 C459.724894,564.426558 467.673677,559.924418 475.175196,555.754041 C490.929,546.991824 505.098945,541.000439 521.145191,534.343072 C526.624187,545.868747 531.986452,557.195364 537.150889,568.152128 L445.56355,605.339018 C442.888561,596.159027 438.742759,587.292367 433.891654,579.009363 C439.605341,575.80847 445.411185,572.533851 451.310414,569.19288 Z M394.348021,530.387726 L393.136474,529.183551 C391.391649,527.441183 389.248709,526.214891 386.729771,525.505902 L386.989037,519.870855 C387.462106,509.605877 381.091037,503.118077 369.524814,491.339279 C368.989079,490.796172 368.441056,490.237091 367.879517,489.664493 L391.614052,473.825906 L438.90864,551.238385 C433.424729,554.343436 427.660662,557.605767 421.702454,560.94551 C411.253164,547.221601 400.381184,536.393856 394.348021,530.387726 Z M309.550755,577.505373 C335.118585,563.491479 367.040281,548.165281 379.831569,546.605997 C384.811692,551.570147 393.693097,560.543708 402.418451,571.638092 C376.92066,585.574574 349.78986,599.487711 327.032181,608.184803 L309.550755,577.505373 Z M274.563327,599.197726 C278.093526,595.880101 289.442261,588.761952 303.610977,580.800881 L320.56527,610.552604 C305.091621,615.964019 292.106191,618.501388 283.738404,616.331416 C282.838959,616.064777 281.965317,615.790766 281.124852,615.506924 C280.288074,615.203423 279.425491,614.859373 278.534647,614.472317 C275.682719,608.451442 273.854339,601.628193 274.563327,599.197726 Z M240.760415,539.438698 L264.59325,511.902411 L272.846764,519.716032 C275.255114,521.995363 279.038435,521.937612 281.379204,519.5907 L332.114291,468.677443 C344.208877,483.009583 353.68254,492.6565 360.800689,499.906125 C371.591571,510.892378 374.995209,514.593373 374.776491,519.308087 L374.491421,525.4887 C351.408124,530.022787 300.01074,556.289776 273.228905,573.650785 L240.760415,539.438698 Z M206.280461,534.67975 L220.375452,549.531651 C220.726875,550.372116 221.250322,551.154829 221.986344,551.790093 C222.40289,552.150117 222.861214,552.420442 223.333054,552.648989 L256.284442,587.367321 C254.179594,590.664057 253.157274,594.358908 252.874661,598.153288 C236.093622,585.317766 216.166984,567.226879 196.143274,547.977282 L206.280461,534.67975 Z M183.118524,510.276774 L201.54363,529.689796 L191.223359,543.226934 C184.287065,536.501986 177.370431,529.679966 170.597561,522.930442 L183.118524,510.276774 Z M188.79412,470.621326 C188.298934,471.165662 187.936452,471.815671 187.736166,472.522202 L185.320444,481.023923 L174.382111,469.499477 L195.739015,446.735654 L201.259789,451.961528 L203.545264,454.414113 L188.79412,470.621326 Z M235.846644,484.695428 L214.890312,512.182566 L192.926406,489.039059 L196.577022,476.196164 L210.594602,460.796241 L235.846644,484.695428 Z M250.325005,465.702639 L243.300241,474.917036 L235.709024,467.732534 L242.555619,459.370891 L250.325005,465.702639 Z M255.70693,503.491617 L232.304157,530.529032 L219.627144,517.172519 L240.807107,489.390482 L255.70693,503.491617 Z M309.967301,440.702492 C315.059241,447.519597 319.832935,453.654746 324.30067,459.198866 L276.924985,506.741661 L268.410976,498.684747 C268.3778,498.650342 268.342166,498.618394 268.306532,498.585218 L248.261934,479.613318 L257.719622,467.205401 C258.830412,465.748103 258.583434,463.671516 257.164227,462.514033 L246.858701,454.116756 L286.719351,405.431223 C294.207354,418.213909 301.973054,430.001308 309.967301,440.702492 Z M305.69248,355.332628 C307.447135,358.935323 310.985935,367.604154 314.99166,377.773289 L290.398229,387.090901 C286.348269,379.654506 282.386779,371.907237 278.523589,363.862611 C289.968166,358.902147 301.501214,355.273648 305.69248,355.332628 Z M282.271276,219.147808 L275.891606,259.305816 L266.661236,246.385509 L264.605537,219.936666 C270.431041,219.658968 276.338871,219.394787 282.271276,219.147808 Z M314.980601,218.016129 C314.881072,218.408101 314.819635,218.816046 314.798746,219.237507 L312.290867,273.574061 L312.279809,273.916882 L290.897101,276.208501 L283.861279,269.737903 L291.95997,218.763209 C299.683892,218.471996 307.396756,218.218873 314.980601,218.016129 Z M402.7539,176.222656 C402.107577,179.532908 401.425621,183.036074 400.716632,186.762873 C399.15612,194.963551 398.023212,202.721878 397.235584,210.025568 C369.05666,206.632989 313.552794,208.059568 264.114037,210.407709 L265.178135,174.788704 L265.914156,158.830928 L283.328001,64.5784307 L384.48976,85.0739808 C396.063356,102.604557 402.3607,114.05405 405.471895,123.934428 C410.089537,138.590958 407.638181,151.167214 402.7539,176.222656 Z M485.693296,460.248218 L454.31225,474.453797 L415.058602,391.892856 L420.68382,390.626014 C423.955981,389.888764 426.02151,386.652237 425.314979,383.373932 L406.849324,297.737429 C416.755506,317.992145 450.071834,386.206201 485.693296,460.248218 Z M459.56147,485.497802 L490.991666,471.268877 C497.92796,485.706689 504.910946,500.283351 511.78826,514.695359 C500.809379,519.254022 490.619355,523.574307 480.104941,528.703109 L459.56147,485.497802 Z M396.245211,252.262621 C396.798149,260.281443 397.7406,267.104692 398.771521,272.700419 L324.545191,273.242298 L325.213631,258.755336 L396.245211,252.262621 Z M326.729909,217.739661 C355.188987,217.183037 380.727327,217.49514 396.392661,219.461139 C395.688587,229.238303 395.606261,238.074244 395.913449,245.944388 L325.51959,252.133602 L327.012521,219.800274 C327.045697,219.080227 326.930195,218.392127 326.729909,217.739661 Z M385.23684,463.385217 L359.252464,480.724108 C354.493515,475.687462 349.058754,469.721881 342.911317,462.504203 L377.452709,450.643079 L385.23684,463.385217 Z M378.123606,437.486853 L334.56319,452.445656 C329.968894,446.770059 325.039149,440.451827 319.761667,433.386514 C311.750217,422.660756 303.964857,410.791031 296.459652,397.868267 L319.433591,389.163802 C322.70821,397.631118 325.975456,406.229911 328.602524,413.231328 C329.178807,414.768494 330.348577,416.009532 331.85011,416.674286 C333.352871,417.340268 335.057147,417.372216 336.583255,416.765213 L395.068069,393.518492 C398.203839,392.271311 399.73609,388.716537 398.488909,385.580767 C397.241727,382.442539 393.683267,380.909059 390.551184,382.157469 L337.850096,403.105199 C336.118787,398.523191 333.605994,391.914973 330.869567,384.831229 L352.307569,376.706734 C353.87914,376.112019 355.136151,374.896786 355.782474,373.347332 C356.430025,371.796649 356.410365,370.048138 355.729637,368.513429 L323.703497,296.320681 L324.193769,282.754052 L391.118866,282.265009 C391.131154,282.626262 391.163101,282.991201 391.241741,283.357368 L397.476419,312.267398 L382.05192,314.111752 C381.980652,314.117896 381.909385,314.126497 381.838117,314.136327 L355.789846,317.251208 L339.980749,286.878966 C338.420236,283.884502 334.729071,282.722104 331.734607,284.278931 C328.740144,285.836986 327.576517,289.529379 329.134572,292.522614 L346.896154,326.645002 C348.072067,328.900987 350.578717,330.188717 353.04359,329.892588 L378.298089,326.872321 L386.348859,353.484588 L363.877479,363.410431 C360.78963,364.774343 359.392541,368.384411 360.756454,371.472259 C362.121595,374.560108 365.732891,375.953511 368.818282,374.593284 L396.234152,362.482724 C399.059049,361.234314 400.510202,358.076427 399.615672,355.121283 L390.62368,325.397821 L400.064166,324.269828 L412.087485,380.030503 L404.910356,381.647538 C403.099179,382.055483 401.570614,383.267031 400.757181,384.938131 C399.944977,386.608002 399.936376,388.558028 400.733835,390.236501 L469.21453,534.268118 C467.689651,535.085237 466.169687,535.893754 464.611632,536.760023 C459.771586,539.450986 454.74477,542.282026 449.55453,545.215052 L385.32531,440.081973 C383.83115,437.635532 380.845287,436.555461 378.123606,437.486853 Z M615.261297,536.699815 L600.045686,497.683316 C614.434349,489.944648 630.587496,480.679873 649.102301,469.279531 L663.650701,505.547316 L615.261297,536.699815 Z M630.521144,541.414528 L668.284317,517.103709 L680.134382,546.641631 L630.521144,541.414528 Z M587.997792,626.033626 C584.267307,617.816974 580.187857,608.935569 575.828252,599.523344 L601.332187,586.233184 L605.433755,593.395568 C607.110999,596.324908 610.846399,597.341084 613.775739,595.661383 C616.705079,593.984139 617.718797,590.249968 616.041554,587.319399 L612.18205,580.580934 L638.532594,566.850882 C641.525829,565.291598 642.688226,561.599204 641.128942,558.604741 C640.470332,557.342814 639.425895,556.431082 638.222949,555.885517 L680.354329,560.324991 L587.997792,626.033626 Z M570.673646,588.424046 C561.653392,569.061403 551.656282,547.860551 541.23894,525.935965 C554.858405,520.12152 569.963429,513.306872 587.949871,504.050698 L605.372317,548.729277 C606.295109,551.097078 608.462624,552.749747 610.987705,553.016386 L634.400307,555.483716 C633.885461,555.596761 633.373072,555.754041 632.882801,556.009621 L570.673646,588.424046 Z M604.725995,774.326548 C606.469591,773.912459 607.94532,772.753748 608.76121,771.156373 C609.575871,769.558998 609.648367,767.683926 608.959039,766.030028 L568.594601,669.060764 C567.969167,667.556774 566.768679,666.363658 565.259774,665.749283 C563.752097,665.134908 562.060109,665.147196 560.559805,665.784917 C560.006867,666.019608 553.558387,668.769551 544.801086,672.840399 L540.269456,662.333358 C553.675119,656.538573 566.605255,651.356934 574.219819,648.362471 C580.425006,662.248574 585.192556,673.367533 588.012537,680.697027 C599.897007,711.596403 616.552714,746.121821 631.249792,776.586219 C631.678626,777.477063 632.108689,778.367907 632.536294,779.255064 C618.950005,783.242358 595.654134,789.947647 571.248701,796.372781 L568.629006,782.877419 L604.725995,774.326548 Z M589.273235,750.550236 L594.908282,764.088603 L566.29561,770.866388 L563.457197,756.250407 L589.273235,750.550236 Z M549.45682,684.169475 C553.450257,682.30669 556.985371,680.711772 559.69968,679.503911 L584.501999,739.084769 L561.123801,744.245519 L549.45682,684.169475 Z M491.367664,788.615682 L490.133999,772.436731 L551.516205,758.886076 L554.389022,773.685141 L491.367664,788.615682 Z M556.722419,785.697401 L559.393721,799.445884 C539.474455,804.524308 519.741959,809.100173 504.800359,811.567503 C500.697562,812.245773 496.882294,813.011285 493.289429,813.846835 L492.306429,800.957247 L556.722419,785.697401 Z M584.858336,370.588788 C588.104694,376.997948 591.738107,383.690949 595.811414,390.597753 C616.357342,425.447561 621.853541,450.495629 623.259231,459.512197 C583.216726,483.333973 555.313042,496.310802 531.886924,506.294396 C511.728051,464.033997 490.652531,420.35685 472.484234,382.877517 L535.123451,376.028464 L567.418687,454.500126 C568.469269,457.053468 571.048415,458.514452 573.660737,458.258872 C574.244394,458.20235 574.829279,458.059814 575.396961,457.826352 C578.517986,456.542308 580.007231,452.969103 578.723187,449.84685 L547.774661,374.644892 L584.858336,370.588788 Z M579.207315,358.909519 L554.51927,361.609083 C552.420565,347.686117 548.93583,315.835688 553.708295,305.552279 L557.726307,296.894507 C558.473387,299.128374 559.192206,301.284831 559.864332,303.334386 C560.753947,307.721023 565.547301,329.261011 579.207315,358.909519 Z M671.189082,260.815949 L577.190936,286.584066 C577.057002,286.185951 576.927984,285.796437 576.790364,285.393407 C573.192584,274.682393 569.02835,262.280619 565.133212,249.024864 L667.427879,232.049683 C668.679975,241.506143 669.965247,251.31034 671.189082,260.815949 Z M702.406705,252.258935 L680.450171,258.278581 C679.227565,248.811062 677.949665,239.075676 676.711085,229.71383 L695.306987,223.931332 L708.568886,250.498136 L702.406705,252.258935 Z M686.832299,295.880788 C685.821037,293.688698 684.396916,289.589588 683.53802,282.642236 C682.955592,277.925064 682.326472,272.937568 681.671549,267.802622 L704.971106,261.414351 L711.37658,259.584742 L716.461147,288.025389 L686.832299,295.880788 Z M587.683232,321.709113 C582.818611,307.528109 581.115564,298.776952 581.083616,298.608613 C580.996375,298.135544 580.877186,297.668619 580.727279,297.210296 C580.55894,296.690534 580.379542,296.149884 580.203831,295.617836 L672.41046,270.341219 C673.001489,274.992038 673.5704,279.515067 674.102449,283.810777 C674.924482,290.458314 676.251532,295.126336 677.54172,298.344432 L656.877831,303.823428 L587.683232,321.709113 Z M659.28741,313.020622 L716.787995,297.776749 L721.303651,316.859237 L601.859321,355.927343 C597.37807,346.688372 593.785205,338.175592 590.934505,330.688818 L659.28741,313.020622 Z M679.097317,179.030349 L686.291649,205.662277 C686.373975,205.967007 686.48702,206.263136 686.627097,206.545748 L691.003905,215.311651 L675.4381,220.150468 C672.475584,197.924838 669.936986,179.338766 669.218167,174.094461 L676.537831,159.702112 L688.228159,166.451636 L680.308865,174.443426 C679.116977,175.647601 678.656196,177.393655 679.097317,179.030349 Z M507.772705,295.454412 C505.150552,295.331537 502.926515,297.360203 502.804869,299.983584 L501.944744,318.620036 L499.977515,351.473124 C493.173926,351.393256 482.14098,350.680581 475.07321,350.160819 L474.498155,340.271839 C488.45184,339.887241 489.707622,337.747987 490.657446,336.138324 C492.444049,333.108227 493.370526,318.733081 493.413532,293.381511 L548.717112,293.721874 C547.800465,295.692789 546.617179,298.244903 545.084927,301.549012 C538.651192,315.411769 543.45069,351.877383 545.059124,362.643691 L538.563951,363.353908 C538.428789,363.362509 538.297312,363.378483 538.169522,363.396914 L466.819696,371.200706 C461.561875,360.369274 456.605097,350.169421 452.048892,340.807574 L465.104361,342.537654 L465.82318,354.859559 C465.959571,357.227361 467.821127,359.130694 470.185242,359.322379 C471.261627,359.409621 496.623027,361.443202 504.780699,360.890264 C507.220996,360.715782 509.061664,358.818592 509.204199,356.431131 L511.440524,319.122594 L512.303106,300.421019 C512.423524,297.798867 510.396086,295.574829 507.772705,295.454412 Z M236.308654,248.936395 C238.767382,238.489562 242.787852,222.932358 243.283039,221.022881 C247.157287,220.813993 251.100346,220.606335 255.104842,220.403591 L256.997117,244.750043 C252.796021,245.478692 245.676644,246.814343 236.308654,248.936395 Z M234.980375,259.002314 C247.314567,256.124582 256.269697,254.511233 260.298769,253.837878 L274.882802,274.252331 C274.915979,274.297794 274.955299,274.339572 274.989704,274.385036 C275.132239,274.571806 275.28829,274.745059 275.454171,274.906026 C275.487347,274.939202 275.510694,274.976064 275.54387,275.008012 L286.044767,284.664758 C287.052342,285.591236 288.46049,286.023756 289.770337,285.893508 L311.933301,283.517106 L311.436886,297.290164 C311.402481,298.217871 311.58065,299.140662 311.956647,299.988499 L341.934461,367.564834 L326.425179,373.440717 C321.766987,361.625057 317.290651,350.735874 315.48316,347.734038 C313.852609,345.025873 309.002732,336.975103 273.344407,352.766998 C258.0563,319.067301 250.048536,292.636888 249.96621,292.361648 C249.842106,291.950017 249.674996,291.551902 249.468566,291.174676 C243.111014,279.619511 236.534744,265.354952 234.980375,259.002314 Z M214.692484,308.380862 C205.459656,306.119962 194.359129,302.474261 185.359764,299.070623 L185.78614,289.431079 L187.179542,289.494975 C188.565572,290.287518 189.90491,291.105866 191.101712,291.940187 L214.692484,308.380862 Z M205.432624,290.337897 L235.894565,291.743587 C236.828415,293.522817 237.69837,295.137394 238.450365,296.508679 C239.147066,298.772037 241.634056,306.659383 245.913792,318.225607 L235.723769,310.901028 C235.131511,310.474652 234.458156,310.196955 233.75654,310.076537 L205.432624,290.337897 Z M175.212746,501.947078 L176.570515,503.376114 L163.873841,516.205493 C163.035834,515.366257 162.201512,514.527021 161.369649,513.690242 L175.212746,501.947078 Z M142.599264,494.707283 C147.712092,489.238117 152.126991,484.332947 155.20501,480.865414 L166.78475,493.064445 L152.736451,504.98332 C149.273834,501.482611 145.889856,498.049483 142.599264,494.707283 Z M132.701682,484.647507 L146.945352,472.162178 L147.692432,472.949807 C144.711485,476.310438 140.215489,481.315137 134.962582,486.94527 C134.204444,486.176072 133.449991,485.408103 132.701682,484.647507 Z M144.01847,527.028323 L132.917942,531.269968 C131.866132,531.672998 130.990034,532.436052 130.448155,533.425196 C130.430952,533.454686 128.612402,536.509358 125.910381,537.225719 C124.429737,537.615233 122.806559,537.242922 120.929029,536.089126 C117.965284,534.265661 113.40785,531.401444 108.674705,528.411896 C110.745149,526.056382 112.799619,523.947847 114.817226,522.179676 C118.918794,518.580667 123.220647,514.509818 127.468436,510.312408 C133.056791,515.981861 138.575107,521.556699 144.01847,527.028323 Z M533.280326,840.828956 L535.155399,850.504133 C534.065497,850.850641 532.973139,851.199606 531.884466,851.552257 C504.421904,860.433662 490.487879,857.632112 483.637597,853.713628 C478.127882,850.561885 476.391659,846.10398 475.972655,844.733923 C477.121536,843.265567 483.268972,837.153765 508.341616,833.01042 C547.966346,826.467326 617.331741,806.432557 642.060335,799.114122 C645.903865,807.211584 649.429149,814.796658 652.353574,821.449111 C631.52749,825.430261 589.326071,834.161758 546.905935,846.876863 L545.282756,838.500475 C544.64012,835.186536 541.431854,833.017792 538.119144,833.665343 C534.802747,834.306751 532.638919,837.51256 533.280326,840.828956 Z M760.12355,675.20943 C758.759637,677.895477 757.470679,680.435303 756.343915,682.844882 C747.091427,702.641273 751.108211,742.949188 751.485437,746.500276 L751.678351,750.460537 L730.47627,755.446805 L726.051541,565.139233 L782.881229,571.125703 C783.201932,616.633688 774.859949,643.28159 766.761257,661.494122 L758.325889,657.069393 C756.003551,655.849245 753.160224,656.24736 751.263034,658.062223 L735.881541,672.76176 C733.440015,675.095156 733.351545,678.96449 735.684941,681.404787 C738.018337,683.846313 741.891357,683.932326 744.32674,681.601387 L756.534371,669.935635 L761.48009,672.529526 C761.019309,673.444945 760.5659,674.337017 760.12355,675.20943 Z M78.8996349,88.4026645 L56.4724899,75.8657282 C60.2349224,71.0379695 64.1939549,65.3230532 68.0989224,58.634967 L84.5580286,64.3572557 L78.8996349,88.4026645 Z M788.419205,31.9747782 L788.951254,28.147222 L920.445935,48.4646032 L926.341477,69.860827 L787.398114,53.3279958 L788.419205,31.9747782 Z M695.266439,896.702676 C697.62441,896.508533 700.004499,896.311933 702.423907,896.112876 C708.318221,895.626291 714.411592,895.123732 720.66593,894.597827 L736.234192,983.000246 L748.647025,983.000246 L732.89445,893.555847 C749.401477,892.130497 768.9214,890.729722 789.520165,889.403901 L794.898404,906.978712 L771.525121,908.614178 C768.133771,908.846412 765.617291,911.770837 765.853211,915.137612 C766.089131,918.506844 769.00987,921.045442 772.377874,920.809522 L803.235472,918.650608 C803.354661,918.645693 803.534059,918.645693 803.589352,918.624804 L822.068524,917.332159 L827.618787,963.658492 L773.338756,968.719713 C773.328926,968.719713 773.320325,968.720942 773.310495,968.722171 C769.96338,969.04779 767.507109,972.020136 767.819211,975.372166 C768.132542,978.734026 771.111032,981.205042 774.472892,980.891711 L800.785345,978.439126 L801.269472,983.000246 L813.563116,983.000246 L812.957342,977.303761 L835.001117,975.248062 C835.010947,975.246833 835.019549,975.245605 835.026921,975.245605 C836.658701,975.085867 838.159005,974.27735 839.189926,973.001907 C840.225762,971.719092 840.70006,970.071338 840.50346,968.434643 L833.51433,910.102194 C833.126045,906.866896 830.269201,904.50401 827.019157,904.732557 L807.414451,906.102613 L802.062016,888.612586 C831.738786,886.779291 862.783155,885.118021 889.705067,883.767624 L889.277462,893.06189 L854.670947,891.464515 C852.975272,891.392018 851.318917,892.018681 850.10737,893.20934 C848.894594,894.399998 848.231069,896.040379 848.27899,897.74097 L848.684477,912.261108 C848.777862,915.636484 851.589242,918.294271 854.964619,918.200886 C855.108382,918.1972 855.250917,918.188598 855.394681,918.173853 C858.56117,917.864208 860.994095,915.1499 860.904396,911.919516 L860.681992,903.980562 L894.820354,905.55582 C896.438617,905.628316 898.022476,905.058176 899.221736,903.965817 C900.41731,902.873458 901.132442,901.351037 901.208625,899.730316 L901.972907,883.159393 C933.276542,881.625913 957.068829,880.59745 963.14254,880.338183 C969.911724,881.942931 976.496595,883.391627 983.000369,884.700246 L983.000369,862.504106 C977.660221,861.385943 972.256179,860.173167 966.72066,858.848574 C965.743804,858.615112 964.741144,858.518041 963.737255,858.559818 C963.367401,858.575792 954.076822,858.966534 939.100817,859.647262 L939.301104,709.401856 L971.227715,710.876356 C973.998546,711.259726 978.159094,711.808977 983.000369,712.43564 L983.000369,700.107591 C978.71326,699.550967 975.078617,699.069297 972.633405,698.727705 C972.446635,698.70313 972.259865,698.685927 972.070637,698.676097 L933.553011,696.898096 C933.508776,696.895638 933.460855,696.893181 933.414162,696.890723 L910.618392,695.840142 L911.91841,667.672277 C911.920867,667.618212 911.923325,667.565376 911.924554,667.510082 L913.448204,634.543948 L967.955554,647.471627 C969.754444,647.899232 971.650405,647.48883 973.11016,646.355922 C974.572372,645.223014 975.442327,643.491706 975.477961,641.643666 L976.44253,591.51681 L976.617012,591.53647 C976.703025,591.545071 976.789037,591.552443 976.877507,591.557358 L980.340125,591.787135 C981.194106,591.843657 982.086179,591.902637 983.000369,591.964075 L983.000369,578.349525 C982.404425,578.310205 981.806024,578.270885 981.237112,578.232793 L977.9072,578.012847 L976.704254,577.886286 L976.803782,572.715706 C976.809926,572.558426 976.808697,572.39746 976.801325,572.238951 C976.792724,572.032521 976.775521,571.831006 976.746031,571.633177 L954.025215,389.477133 C969.097062,387.721249 981.028225,387.860098 981.240799,387.862556 C981.410366,387.865013 981.58362,387.860098 981.753187,387.846582 L983.000369,387.747053 L983.000369,376.846812 L981.144956,376.993033 C977.316171,376.954942 939.88476,376.866472 912.39025,388.188174 C896.253076,394.833255 875.671514,395.253487 857.417204,393.873601 C856.430517,393.271513 855.265662,392.937293 854.023396,392.981528 C853.32178,393.006103 852.664399,393.173213 852.04388,393.414048 C842.570217,392.507231 833.948079,391.214586 827.226816,390.203324 C823.512305,389.644243 820.305267,389.162573 817.651167,388.839412 C807.23874,387.573799 799.739679,390.030071 794.792731,392.872169 C793.318231,386.227089 791.472649,380.943464 789.758542,376.963543 C845.707216,347.350668 925.741847,320.824413 983.000369,303.791481 L983.000369,281.020286 C928.139139,297.103395 849.660105,322.633133 790.423296,352.190714 L769.074994,309.077563 C827.612644,276.064737 947.924471,199.152359 954.008012,195.260908 C956.853797,193.44113 957.683204,189.661495 955.863425,186.816938 C954.044875,183.97484 950.266469,183.141747 947.419455,184.962754 C945.952327,185.90152 825.484449,262.917112 766.028922,296.779004 L756.046557,249.119478 L790.637099,250.716853 C793.275225,250.8385 795.486975,248.808605 795.606164,246.186452 C795.72781,243.564299 793.700372,241.339033 791.076991,241.217387 L754.032636,239.508196 L743.682875,190.094014 C756.690422,186.565045 781.806072,185.453026 816.721004,186.882062 C817.291144,187.181877 817.93378,187.371104 818.618194,187.416568 L884.59101,191.817951 C887.1763,191.991204 889.418769,190.064525 889.646087,187.486607 C889.868491,184.907461 887.988504,182.623214 885.415501,182.346746 C885.119372,182.316027 856.432975,179.258897 823.923936,177.684868 L824.385946,167.692673 L840.529264,167.797117 C843.160017,167.821692 845.298042,165.699641 845.314016,163.075031 C845.332447,160.449192 843.21654,158.307481 840.59193,158.290278 L811.718762,158.101051 C809.177707,158.075247 807.075316,160.064593 806.941382,162.599504 C806.804991,165.135644 808.684979,167.330192 811.21006,167.585772 L814.854532,167.953168 L814.42447,177.274466 C778.032581,175.898266 752.806344,177.289211 739.39208,181.420268 C739.227427,181.471876 739.040657,181.523483 738.866175,181.575091 L704.153987,161.529263 L723.340919,128.971074 C732.38329,131.17791 741.3974,132.930107 749.916324,133.922937 C809.916186,140.905923 822.845094,141.116039 826.791839,135.177491 C830.092261,130.212112 837.17109,105.09892 827.935805,94.9654182 C817.947296,84.011112 810.831605,90.2543907 810.535476,90.5259445 C808.592822,92.292887 808.450287,95.2996382 810.21723,97.242292 C811.813376,98.9944895 814.420784,99.2832457 816.34132,98.0176332 C816.894257,98.0802995 818.511292,98.7438245 820.907355,101.372121 C825.380005,106.277291 821.690069,124.423471 819.228882,129.291778 C814.40481,130.870722 794.298774,129.204537 775.186796,127.193073 L783.987104,63.8682133 L920.8932,80.1614383 L920.777697,82.659487 C920.70643,84.2298295 921.318347,85.7645382 922.454941,86.8495245 C923.591535,87.9357395 925.144675,88.4960495 926.708874,88.3522857 L981.245714,83.3537307 C981.255544,83.352502 981.265374,83.3512733 981.273975,83.3512733 C981.892036,83.2898358 982.465862,83.1079807 983.000369,82.8597732 L983.000369,72.9511333 C982.250831,72.6009395 981.422654,72.396967 980.542869,72.4289145 L938.73465,73.9267607 L929.989636,42.1881483 C929.419496,40.1263057 927.694331,38.5879107 925.579652,38.2610633 L786.044031,16.7014158 C785.440715,16.3782545 784.76736,16.164452 784.046084,16.0894982 L737.77996,11.2482232 L738.298492,0.00024575 L727.420369,0.00024575 L726.978019,9.59432575 L699.17755,7.21055075 C698.049557,7.1134795 696.973172,7.3739745 696.055296,7.89127825 L670.59191,0.00024575 L610.203762,0.00024575 L652.086935,4.77516825 L643.921891,90.8798245 C624.330701,85.8173745 578.110041,82.4641158 560.135886,81.3115482 C562.793672,53.4029495 565.503066,23.7753295 567.647235,0.00024575 L545.824635,0.00024575 C544.073666,19.3948358 541.967589,42.4535582 539.829564,65.1940345 L539.121804,64.473987 C538.475481,63.8166058 537.652219,63.3607395 536.751545,63.1629107 L498.060665,54.6697907 C495.550329,54.1205395 493.057195,55.6626207 492.429304,58.1545257 L478.093477,115.220133 C463.033917,114.083539 452.166852,113.235702 448.94507,112.919913 C448.657542,112.892881 448.372472,112.878136 448.084945,112.857247 L455.598751,81.4381095 L461.935415,82.5280107 C464.310589,82.9371845 466.613266,81.5069195 467.298909,79.1980982 L490.86019,0.00024575 L480.939262,0.00024575 L474.711957,20.9344595 L371.742707,11.254367 L373.005862,0.00024575 L366.172784,0.00024575 L364.980896,10.6191033 L358.684781,10.0268458 C356.19902,6.53473825 353.821389,3.203597 351.530999,0.00024575 L324.768824,0.00024575 C325.929992,1.611137 327.114507,3.25643325 328.338342,4.95702325 C325.773941,4.432347 323.191109,3.90275575 320.615649,3.370707 L321.252141,0.00024575 L314.339194,0.00024575 L313.963196,1.99327825 C310.697179,1.31500825 307.498742,0.6453395 304.436697,0.00024575 L269.091704,0.00024575 C267.088841,4.33527575 264.625197,12.202962 261.3002,27.1126145 C259.362461,35.799877 257.706106,44.3753232 256.751367,49.5016683 L226.270995,43.3259707 C230.436457,28.687872 235.277732,14.021512 241.124125,0.00024575 L217.710294,0.00024575 C216.432394,3.316642 215.1975,6.65024075 214.016671,10.001042 C207.145501,7.57917575 197.030431,4.01334325 185.647291,0.00024575 L157.064109,0.00024575 C177.972519,7.376432 199.240952,14.8730357 210.96077,19.0040933 C202.865765,43.7634057 197.084496,68.9060882 192.015902,91.6551658 L93.9063586,57.5413795 C93.3521924,56.899972 92.6198574,56.3998708 91.7560461,56.1246307 L72.7743161,50.0718082 C74.6702774,46.357297 76.5244611,42.395807 78.3086061,38.1799658 C84.7816611,22.8746557 89.0036461,9.91134325 92.1332724,0.00024575 L82.1570511,0.00024575 C79.1847049,9.308027 75.2527049,20.9946682 69.5500761,34.4752845 C55.4784311,67.7498345 36.4868711,84.1524183 31.1454949,88.296992 L29.5063424,89.5023958 C27.4272974,91.0309608 26.9493136,93.939412 28.4250424,96.0540907 C29.9044574,98.1699982 32.7981636,98.7204783 34.9497049,97.2951282 C35.1217299,97.1808545 35.9511361,96.623002 37.2941599,95.5785645 L52.3868961,84.4755795 L76.0919411,97.7264195 L30.8358499,217.73106 L0.000368625,231.55204 L0.000368625,241.973068 L36.5323349,225.597517 C37.6885886,225.080213 38.5880336,224.121788 39.0352986,222.936044 L86.1185411,98.087672 C86.3778074,97.6637532 86.5952961,97.2140307 86.7120274,96.7176157 L93.5868836,67.496712 L189.936857,100.998581 C185.722245,119.929932 181.671056,137.670624 177.004264,151.381017 C161.246774,197.676631 123.962812,270.015601 121.373836,275.016613 C119.298477,278.506263 97.8137836,314.535671 74.1185686,352.24478 L0.000368625,310.655278 L0.000368625,324.674087 L67.5840761,362.595769 C54.6871161,382.925438 41.6046149,402.922116 31.0201624,417.772788 C20.6581136,413.651561 10.2247974,409.918618 0.000368625,406.512523 L0.000368625,429.466802 C5.79761113,431.468436 11.6304874,433.573284 17.4437036,435.798551 C12.1109286,442.555447 6.18098113,449.818588 0.000368625,457.278329 L0.000368625,496.380841 L46.7837961,517.381407 C47.7889136,517.832358 48.8505536,517.989638 49.8753311,517.890109 C51.9863236,517.68368 53.9314349,516.382433 54.8640561,514.307074 C56.2476286,511.227827 54.8701999,507.610387 51.7897236,506.228043 L4.99277988,485.220104 C16.9288574,470.983807 28.7469749,456.753653 38.3201661,444.380141 C63.4284436,455.513844 86.7464324,469.091532 103.284179,485.776728 C105.960396,488.476292 108.723855,491.275384 111.554895,494.148202 L87.1789524,515.514936 C86.7292299,515.490361 86.2770499,515.508792 85.8346999,515.616922 C84.5801461,515.916737 83.5013036,516.712967 82.8451511,517.823757 L59.0356624,558.163619 C57.1691911,556.808308 54.7952461,555.2736 52.0305586,553.878968 C44.0768599,549.860956 19.8373086,552.005125 14.3067049,556.200077 C12.7818261,557.35756 10.9165836,559.112214 8.75766987,561.145796 C6.25224863,563.502538 2.86949987,566.687458 0.000368625,568.783706 L0.000368625,579.636026 C4.93994363,577.789214 10.4201686,572.638295 15.2737311,568.067345 C17.1537186,566.299173 18.9292624,564.626844 20.0105624,563.806039 C23.1795086,561.757713 42.8960311,559.915817 47.7446786,562.367173 C53.3072299,565.176096 56.9394149,568.703837 56.9664474,568.729641 C58.0084274,569.761791 59.4423786,570.259434 60.9217936,570.06775 C62.3754049,569.88098 63.6631349,569.031913 64.4077574,567.769987 L88.5330349,526.89439 C89.9362674,527.786462 91.6282561,528.862847 93.4787536,530.038761 C77.2125611,552.135372 62.2660461,584.030036 55.4329674,601.128092 C48.8800436,617.524532 46.0674349,627.450375 44.9517299,632.058187 L34.2591474,636.393217 L0.000368625,636.074971 L0.000368625,648.301033 L17.9315174,648.466915 C13.0533799,660.901864 6.56680862,676.178913 0.000368625,689.937227 L0.000368625,713.679135 C12.5176449,691.550576 25.1233911,659.961871 28.8809086,650.298981 L33.0549724,648.606992 L42.7522674,648.696691 L219.295381,676.128535 C219.922044,676.234207 220.567137,676.242808 221.209774,676.146966 C221.843809,676.05481 222.448354,675.863125 223.009892,675.586656 L267.081469,654.631553 C268.656726,659.175471 270.95326,667.186921 272.150062,677.916366 L258.120195,677.267586 C254.74359,677.112763 251.887975,679.720171 251.731924,683.094318 C251.577101,686.466008 254.18328,689.32531 257.557427,689.481361 L272.921717,690.19035 C273.013874,696.206309 272.709144,703.059048 271.727372,710.612175 L216.850169,726.976667 L211.706621,719.770048 C209.746765,717.022563 205.930267,716.384842 203.180325,718.344698 C200.43284,720.305783 199.795119,724.12351 201.754975,726.872223 L209.337591,737.494767 C209.401486,737.589381 209.46661,737.682766 209.53542,737.773693 L242.553161,784.041046 C241.176961,785.699858 239.740552,787.309521 238.257451,788.86389 L180.43862,707.460431 C178.483679,704.705573 174.665952,704.06048 171.914781,706.01665 C169.16361,707.971591 168.517287,711.78686 170.471,714.539259 L229.202792,797.226762 C201.904882,819.558065 163.121846,828.857245 133.970981,832.706918 L141.198489,805.084618 L154.384205,784.242561 C155.466734,782.529683 155.630157,780.392887 154.822869,778.535017 L136.081974,735.490676 C134.735264,732.392997 131.127654,730.97502 128.038576,732.324187 C124.942126,733.673355 123.526606,737.274821 124.873316,740.368813 L142.320337,780.444495 L132.538259,795.905856 L105.412374,791.267324 L90.7005499,757.593431 C89.3476961,754.500667 85.7450011,753.088833 82.6522374,754.43923 C79.5582449,755.790855 78.1464111,759.39355 79.4968074,762.487542 L95.2874736,798.626308 L28.4176699,799.085861 C25.0177186,799.110436 22.3242986,801.865293 22.3464161,805.24067 C22.3697624,808.617275 25.1258486,811.33527 28.4999961,811.310694 L99.4062436,810.82411 C102.792679,810.801992 105.498386,808.044677 105.47504,804.669301 C105.47504,804.327708 105.443092,803.991031 105.387799,803.664183 L127.925531,807.518772 L120.956061,834.155615 C104.709529,835.627657 93.6962424,835.388051 93.3337611,835.376992 C89.9485549,835.289751 87.1470049,837.937707 87.0487049,841.313083 C86.9528624,844.686002 89.6069624,847.49984 92.9811099,847.59814 C93.9542799,847.626401 111.379184,848.073666 135.22062,844.961242 L134.124575,868.697006 C134.118431,868.79162 134.114745,868.885005 134.113516,868.97839 L131.683049,921.621726 L113.130152,920.765287 C109.762149,920.611693 106.899161,923.217872 106.74311,926.590791 C106.588287,929.962481 109.195695,932.823011 112.568614,932.979062 L177.054642,935.955094 C170.157669,944.244242 167.014526,951.721186 166.108937,954.129536 C143.525741,947.316117 119.909166,942.070583 91.8432874,952.600971 C91.5717336,952.362593 91.2854349,952.137732 90.9659599,951.944818 L0.000368625,897.293705 L0.000368625,911.554577 L78.3602136,958.634133 C49.4575561,972.597648 23.2876386,978.9466 0.000368625,981.105513 L0.000368625,983.000246 L77.4435661,983.000246 C81.9948561,981.007213 86.5596624,978.872875 91.1453574,976.586171 C119.647442,962.376906 142.026666,969.353748 167.939775,977.436466 C173.995055,979.326283 180.293627,981.282453 186.858839,983.000246 L257.095417,983.000246 C269.389061,979.994723 281.967775,976.11556 294.267562,972.319951 C334.473491,959.912033 372.440637,948.192216 387.652562,969.504885 C390.941926,974.112697 394.268152,978.61238 397.599294,983.000246 L427.27975,983.000246 C429.378455,979.694908 431.702021,976.304787 434.338919,972.817595 C437.238769,968.982666 440.75668,964.84055 444.160317,960.832367 C449.527497,954.512906 454.596091,948.544867 458.222132,942.829951 C458.698887,942.079184 459.163355,941.330876 459.615535,940.58011 C475.439377,940.161106 495.255429,938.700122 514.664764,935.538548 L523.709592,983.000246 L536.155601,983.000246 L526.689311,933.332942 C530.648344,932.523196 534.543481,931.631123 538.347691,930.655496 L550.03679,983.000246 L562.561439,983.000246 L550.112972,927.250629 C556.476669,925.165441 562.398015,922.789038 567.646006,920.082102 C583.996982,911.646733 604.040352,906.815288 629.314511,903.302292 L639.363229,946.077537 C639.374287,946.125458 639.386575,946.174608 639.396405,946.22253 L648.036975,983.000246 L660.593571,983.000246 L652.39658,948.10006 L672.840522,938.062401 C675.87062,936.573156 677.121487,932.911481 675.6347,929.880155 C674.146684,926.850057 670.485009,925.59919 667.452454,927.088435 L649.527449,935.887513 L641.508626,901.749152 C651.365659,900.594127 661.95134,899.568121 673.351682,898.561775 C679.614621,924.40976 687.207067,955.262443 694.068407,983.000246 L716.461147,983.000246 C709.554344,955.094104 701.748095,923.403413 695.266439,896.702676 Z" id="Fill-5" fill="#FEF4F1" mask="url(#mask-4)"></path>
                            </g>
                            <polygon id="Fill-8" stroke="none" fill="#FEF4F1" fill-rule="evenodd" points="742 32.4746644 735.174672 32.1711211 735.41128 27.2273552 730.29604 27 730.060684 31.9425565 723.236608 31.6378038 723 36.5815697 729.824076 36.8851131 729.352112 46.7714355 734.4661 47 734.938064 37.1136776 741.763392 37.4184303"></polygon>
                            <polygon id="Fill-10" stroke="none" fill="#FEF4F1" fill-rule="evenodd" points="582.197027 200.830624 585.362435 199.295735 584.613261 202.831113 587 205.47562 583.523124 205.830013 581.832468 209 580.432043 205.683368 577 204.996578 579.613261 202.591592 579.180274 199"></polygon>
                            <mask id="mask-6" fill="white">
                                <use xlink:href="#path-5"></use>
                            </mask>
                            <g id="Clip-12" stroke="none" fill="none"></g>
                            <text id="6" stroke="none" fill="none" mask="url(#mask-6)" font-family="AmericanTypewriter-Bold, American Typewriter" font-size="16.7572" font-weight="bold">
                                <tspan x="512" y="27" fill="#000000">6</tspan>
                            </text>
                        </g>
                    </g>
                </g>
            </g>
        </g>
    </g>
</svg>