<?xml version="1.0" encoding="UTF-8"?>
<svg width="15px" height="15px" viewBox="0 0 15 15" version="1.1" xmlns="http://www.w3.org/2000/svg" xmlns:xlink="http://www.w3.org/1999/xlink">
    <!-- Generator: sketchtool 51.3 (57544) - http://www.bohemiancoding.com/sketch -->
    <title>5B09C978-CAC7-4E15-A1DB-FD6B56DF7658</title>
    <desc>Created with sketchtool.</desc>
    <defs></defs>
    <g id="Web-App" stroke="none" stroke-width="1" fill="none" fill-rule="evenodd">
        <g id="Request-&gt;-Multi-City-Trip-Delete" transform="translate(-1165.000000, -535.000000)" fill="#FF5359" fill-rule="nonzero">
            <g id="Modal" transform="translate(240.000000, 50.000000)">
                <g id="Modal-Header" transform="translate(30.000000, 20.000000)">
                    <g id="Group-8" transform="translate(895.000000, 6.000000)">
                        <g id="round-clear-24px" transform="translate(0.357143, 0.357143)">
                            <g id="Rounded_1_">
                                <path d="M13.6894198,459.321198 C13.2753129,458.907091 12.6063709,458.907091 12.1922639,459.321198 L7,464.502844 L1.80773606,459.31058 C1.39362912,458.896473 0.724687144,458.896473 0.310580205,459.31058 C-0.103526735,459.724687 -0.103526735,460.393629 0.310580205,460.807736 L5.50284414,466 L0.310580205,471.192264 C-0.103526735,471.606371 -0.103526735,472.275313 0.310580205,472.68942 C0.724687144,473.103527 1.39362912,473.103527 1.80773606,472.68942 L7,467.497156 L12.1922639,472.68942 C12.6063709,473.103527 13.2753129,473.103527 13.6894198,472.68942 C14.1035267,472.275313 14.1035267,471.606371 13.6894198,471.192264 L8.49715586,466 L13.6894198,460.807736 C14.0929086,460.404247 14.0929086,459.724687 13.6894198,459.321198 Z" id="Shape-Copy"></path>
                            </g>
                        </g>
                    </g>
                </g>
            </g>
        </g>
    </g>
</svg>