<?xml version="1.0" encoding="UTF-8"?>
<svg width="11px" height="12px" viewBox="0 0 11 12" version="1.1" xmlns="http://www.w3.org/2000/svg" xmlns:xlink="http://www.w3.org/1999/xlink">
    <!-- Generator: Sketch 52.4 (67378) - http://www.bohemiancoding.com/sketch -->
    <title></title>
    <desc>Created with Sketch.</desc>
    <g id="Web-App" stroke="none" stroke-width="1" fill="none" fill-rule="evenodd">
        <g id="Request-&gt;-Travel-Checklist" transform="translate(-1161.000000, -522.000000)" fill="#4F4F4F">
            <g id="Request-Options" transform="translate(1145.000000, 413.000000)">
                <path d="M20.125,109 L22.125,109 C22.4166681,109 22.6562491,109.093749 22.84375,109.28125 C23.0312509,109.468751 23.125,109.708332 23.125,110 L23.125,110.5 L26.125,110.5 L26.125,111.5 L25.625,111.5 L25.625,119.5 C25.625,119.916669 25.4791681,120.270832 25.1875,120.5625 C24.8958319,120.854168 24.5416687,121 24.125,121 L18.125,121 C17.7083313,121 17.3541681,120.854168 17.0625,120.5625 C16.7708319,120.270832 16.625,119.916669 16.625,119.5 L16.625,111.5 L16.125,111.5 L16.125,110.5 L19.125,110.5 L19.125,110 C19.125,109.708332 19.2187491,109.468751 19.40625,109.28125 C19.5937509,109.093749 19.8333319,109 20.125,109 Z M20.125,110 L20.125,110.5 L22.125,110.5 L22.125,110 L20.125,110 Z M17.625,111.5 L17.625,119.5 C17.625,119.645834 17.6718745,119.765625 17.765625,119.859375 C17.8593755,119.953125 17.9791659,120 18.125,120 L24.125,120 C24.2708341,120 24.3906245,119.953125 24.484375,119.859375 C24.5781255,119.765625 24.625,119.645834 24.625,119.5 L24.625,111.5 L17.625,111.5 Z M18.625,113 L19.625,113 L19.625,118.5 L18.625,118.5 L18.625,113 Z M20.625,113 L21.625,113 L21.625,118.5 L20.625,118.5 L20.625,113 Z M22.625,113 L23.625,113 L23.625,118.5 L22.625,118.5 L22.625,113 Z" id=""></path>
            </g>
        </g>
    </g>
</svg>