<?xml version="1.0" encoding="UTF-8"?>
<svg width="10px" height="12px" viewBox="0 0 10 12" version="1.1" xmlns="http://www.w3.org/2000/svg" xmlns:xlink="http://www.w3.org/1999/xlink">
    <!-- Generator: sketchtool 52.2 (67145) - http://www.bohemiancoding.com/sketch -->
    <title>25164FEA-FBE5-4F52-B12E-7928D313B2EF</title>
    <desc>Created with sketchtool.</desc>
    <g id="Web-App" stroke="none" stroke-width="1" fill="none" fill-rule="evenodd">
        <g id="Documents-&gt;-Options" transform="translate(-1188.000000, -368.000000)" fill="#4F4F4F">
            <g id="Group-12" transform="translate(1172.000000, 288.000000)">
                <path d="M20,80 L22,80 C22.2916681,80 22.5312491,80.0937491 22.71875,80.28125 C22.9062509,80.4687509 23,80.7083319 23,81 L23,81.5 L26,81.5 L26,82.5 L25.5,82.5 L25.5,90.5 C25.5,90.9166687 25.3541681,91.2708319 25.0625,91.5625 C24.7708319,91.8541681 24.4166687,92 24,92 L18,92 C17.5833313,92 17.2291681,91.8541681 16.9375,91.5625 C16.6458319,91.2708319 16.5,90.9166687 16.5,90.5 L16.5,82.5 L16,82.5 L16,81.5 L19,81.5 L19,81 C19,80.7083319 19.0937491,80.4687509 19.28125,80.28125 C19.4687509,80.0937491 19.7083319,80 20,80 Z M20,81 L20,81.5 L22,81.5 L22,81 L20,81 Z M17.5,82.5 L17.5,90.5 C17.5,90.6458341 17.5468745,90.7656245 17.640625,90.859375 C17.7343755,90.9531255 17.8541659,91 18,91 L24,91 C24.1458341,91 24.2656245,90.9531255 24.359375,90.859375 C24.4531255,90.7656245 24.5,90.6458341 24.5,90.5 L24.5,82.5 L17.5,82.5 Z M18.5,84 L19.5,84 L19.5,89.5 L18.5,89.5 L18.5,84 Z M20.5,84 L21.5,84 L21.5,89.5 L20.5,89.5 L20.5,84 Z M22.5,84 L23.5,84 L23.5,89.5 L22.5,89.5 L22.5,84 Z" id="ï-copy"></path>
            </g>
        </g>
    </g>
</svg>