<?xml version="1.0" encoding="UTF-8"?>
<svg width="13px" height="12px" viewBox="0 0 13 12" version="1.1" xmlns="http://www.w3.org/2000/svg" xmlns:xlink="http://www.w3.org/1999/xlink">
    <!-- Generator: sketchtool 51.3 (57544) - http://www.bohemiancoding.com/sketch -->
    <title>19613E5A-7131-4841-A5D2-2B6A8D0B80F7</title>
    <desc>Created with sketchtool.</desc>
    <defs></defs>
    <g id="Web-App" stroke="none" stroke-width="1" fill="none" fill-rule="evenodd">
        <g id="Requests" transform="translate(-1307.000000, -385.000000)" fill="#4F4F4F">
            <g id="Group-12" transform="translate(1291.000000, 366.000000)">
                <path d="M25.7226562,20.1601562 C25.9960951,19.8867174 26.328123,19.75 26.71875,19.75 C27.109377,19.75 27.4365221,19.8867174 27.7001953,20.1601562 C27.9638685,20.4335951 28.0957031,20.765623 28.0957031,21.15625 C28.0957031,21.546877 27.9687513,21.8789049 27.7148438,22.1523438 L22.96875,26.8984375 L22.8222656,26.8984375 L21.1816406,27.25 L20.5078125,27.3671875 L20.625,26.6933594 L20.9765625,25.0527344 L20.9765625,24.90625 L25.7226562,20.1601562 Z M27.0410156,20.8339844 C26.9433589,20.7363276 26.8359381,20.6875 26.71875,20.6875 C26.6015619,20.6875 26.4941411,20.7363276 26.3964844,20.8339844 L21.8554688,25.375 L21.6796875,26.1953125 L22.5,26.0195312 L27.0410156,21.4785156 C27.2558604,21.2636708 27.2558604,21.0488292 27.0410156,20.8339844 Z M16.875,21.625 L23.0566406,21.625 L22.1191406,22.5625 L17.8125,22.5625 L17.8125,30.0625 L25.3125,30.0625 L25.3125,25.7558594 L26.25,24.8183594 L26.25,31 L16.875,31 L16.875,21.625 Z" id="ï‡"></path>
            </g>
        </g>
    </g>
</svg>