<?xml version="1.0" encoding="UTF-8"?>
<svg width="13px" height="16px" viewBox="0 0 13 16" version="1.1" xmlns="http://www.w3.org/2000/svg" xmlns:xlink="http://www.w3.org/1999/xlink">
    <!-- Generator: sketchtool 51.1 (57501) - http://www.bohemiancoding.com/sketch -->
    <title>E43DDB85-2DF5-4563-96DE-F7E0BDECC461</title>
    <desc>Created with sketchtool.</desc>
    <defs></defs>
    <g id="Web-App" stroke="none" stroke-width="1" fill="none" fill-rule="evenodd">
        <g id="Landing-Page" transform="translate(-82.000000, -732.000000)" fill="#3359DB">
            <g id="Group-3-Copy" transform="translate(80.000000, 728.000000)">
                <path d="M2.8125,4.9375 L10.3359375,4.9375 L10.546875,5.078125 L13.921875,8.453125 L14.0625,8.6640625 L14.0625,19.5625 L2.8125,19.5625 L2.8125,4.9375 Z M3.9375,6.0625 L3.9375,18.4375 L12.9375,18.4375 L12.9375,9.4375 L9.5625,9.4375 L9.5625,6.0625 L3.9375,6.0625 Z M10.6875,6.87109375 L10.6875,8.3125 L12.1289062,8.3125 L10.6875,6.87109375 Z M5.625,10.5625 L11.25,10.5625 L11.25,11.6875 L5.625,11.6875 L5.625,10.5625 Z M5.625,12.8125 L11.25,12.8125 L11.25,13.9375 L5.625,13.9375 L5.625,12.8125 Z M5.625,15.0625 L11.25,15.0625 L11.25,16.1875 L5.625,16.1875 L5.625,15.0625 Z" id=""></path>
            </g>
        </g>
    </g>
</svg>