<?xml version="1.0" encoding="UTF-8"?>
<svg width="15px" height="15px" viewBox="0 0 15 15" version="1.1" xmlns="http://www.w3.org/2000/svg" xmlns:xlink="http://www.w3.org/1999/xlink">
    <!-- Generator: sketchtool 52.2 (67145) - http://www.bohemiancoding.com/sketch -->
    <title>D817B021-816B-4FC5-BE1B-5FACA2DA2339</title>
    <desc>Created with sketchtool.</desc>
    <defs>
        <path d="M14.2105263,13.1734643 L0.789473684,13.1734643 C0.355263158,13.1734643 0,13.5287275 0,13.962938 C0,14.3971485 0.355263158,14.7524117 0.789473684,14.7524117 L14.2105263,14.7524117 C14.6447368,14.7524117 15,14.3971485 15,13.962938 C15,13.5287275 14.6447368,13.1734643 14.2105263,13.1734643 Z M0.797368421,7.33925381 L13.2947368,10.6866222 C13.9263158,10.8524117 14.5736842,10.4813591 14.7473684,9.84978012 C14.9131579,9.21820118 14.5421053,8.57083275 13.9105263,8.39714854 L9.71842105,7.27609591 L7.68157895,0.605043281 C7.59473684,0.320832754 7.37368421,0.10767486 7.08947368,0.0287274912 C6.55263158,-0.113377772 6.02368421,0.289253807 6.02368421,0.849780123 L6.02368421,6.28135907 L2.09210526,5.23925381 L1.5,3.77083275 C1.40526316,3.54188539 1.21578947,3.36820118 0.971052632,3.30504328 L0.710526316,3.23399065 C0.457894737,3.16293802 0.213157895,3.3524117 0.213157895,3.61293802 L0.213157895,6.57346433 C0.213157895,6.93662223 0.45,7.24451696 0.797368421,7.33925381 Z" id="path-1"></path>
    </defs>
    <g id="Web-App" stroke="none" stroke-width="1" fill="none" fill-rule="evenodd">
        <g id="Analytics-&gt;-Export" transform="translate(-335.000000, -1381.000000)">
            <g id="icon/action/flight_land_24px" transform="translate(335.000000, 1381.000000)">
                <mask id="mask-2" fill="white">
                    <use xlink:href="#path-1"></use>
                </mask>
                <use fill="#999999" fill-rule="nonzero" xlink:href="#path-1"></use>
            </g>
        </g>
    </g>
</svg>