<?xml version="1.0" encoding="UTF-8"?>
<svg width="15px" height="15px" viewBox="0 0 15 15" version="1.1" xmlns="http://www.w3.org/2000/svg" xmlns:xlink="http://www.w3.org/1999/xlink">
    <!-- Generator: sketchtool 52.2 (67145) - http://www.bohemiancoding.com/sketch -->
    <title>663F6EDA-8402-455C-976B-FFE98AE28CD0</title>
    <desc>Created with sketchtool.</desc>
    <defs>
        <path d="M13.7861232,13.2668823 L1.0426046,13.2668823 C0.63031429,13.2668823 0.292985857,13.6568338 0.292985857,14.1334412 C0.292985857,14.6100485 0.63031429,15 1.0426046,15 L13.7861232,15 C14.1984135,15 14.5357419,14.6100485 14.5357419,14.1334412 C14.5357419,13.6568338 14.1984135,13.2668823 13.7861232,13.2668823 Z M14.9630246,5.1558916 C14.7981085,4.46264453 14.1834211,4.05536188 13.5837261,4.23733923 L9.6032506,5.46785278 L4.76071355,0.251168577 C4.55831649,0.0258632787 4.26596518,-0.0521270167 3.99610243,0.0345288671 C3.48636169,0.199175046 3.24648369,0.87509094 3.50885025,1.40369183 L6.08753872,6.56838251 L2.36193358,7.72090576 L1.18503216,6.6463728 C0.997627473,6.48172662 0.757749476,6.4210675 0.525367667,6.49039221 L0.277993482,6.56838251 C0.0381154857,6.63770721 -0.0743273253,6.95833398 0.0531078605,7.20097046 L1.46239109,10.0172867 C1.6348034,10.3552446 1.97962802,10.5198908 2.30196408,10.4245693 L14.1609325,6.75035986 C14.7606275,6.55971692 15.1204445,5.84913867 14.9630246,5.1558916 Z" id="path-1"></path>
    </defs>
    <g id="Web-App" stroke="none" stroke-width="1" fill="none" fill-rule="evenodd">
        <g id="Analytics-&gt;-Export" transform="translate(-856.000000, -1381.000000)">
            <g id="icon/action/flight_takeoff_24px" transform="translate(856.000000, 1381.000000)">
                <mask id="mask-2" fill="white">
                    <use xlink:href="#path-1"></use>
                </mask>
                <use fill="#999999" fill-rule="nonzero" xlink:href="#path-1"></use>
            </g>
        </g>
    </g>
</svg>