<?xml version="1.0" encoding="UTF-8"?>
<svg width="35px" height="32px" viewBox="0 0 35 32" version="1.1" xmlns="http://www.w3.org/2000/svg" xmlns:xlink="http://www.w3.org/1999/xlink">
    <!-- Generator: sketchtool 51.3 (57544) - http://www.bohemiancoding.com/sketch -->
    <title>EFABC0C0-EBEF-4BE9-89F6-4ED96598B5B7</title>
    <desc>Created with sketchtool.</desc>
    <defs>
        <filter x="-11.3%" y="-16.7%" width="121.9%" height="138.1%" filterUnits="objectBoundingBox" id="filter-1">
            <feOffset dx="0" dy="2" in="SourceAlpha" result="shadowOffsetOuter1"></feOffset>
            <feGaussianBlur stdDeviation="5" in="shadowOffsetOuter1" result="shadowBlurOuter1"></feGaussianBlur>
            <feColorMatrix values="0 0 0 0 0   0 0 0 0 0   0 0 0 0 0  0 0 0 0.15 0" type="matrix" in="shadowBlurOuter1" result="shadowMatrixOuter1"></feColorMatrix>
            <feMerge>
                <feMergeNode in="shadowMatrixOuter1"></feMergeNode>
                <feMergeNode in="SourceGraphic"></feMergeNode>
            </feMerge>
        </filter>
        <path d="M13.3333333,4 L1.33333333,4 C0.6,4 0,4.6 0,5.33333333 L0,6.99333333 L1.33333333,6.99333333 L1.33333333,5.32 L13.3333333,5.32 L13.3333333,14.6733333 L1.33333333,14.6733333 L1.33333333,12.9933333 L0,12.9933333 L0,14.6666667 C0,15.4 0.6,15.9866667 1.33333333,15.9866667 L13.3333333,15.9866667 C14.0666667,15.9866667 14.6666667,15.4 14.6666667,14.6666667 L14.6666667,5.33333333 C14.6666667,4.59333333 14.0666667,4 13.3333333,4 Z M2.66666667,12.66 L0,9.99333333 L2.66666667,7.32666667 L2.66666667,9.32666667 L9.33333333,9.32666667 L9.33333333,10.66 L2.66666667,10.66 L2.66666667,12.66 Z" id="path-2"></path>
    </defs>
    <g id="Web-App" stroke="none" stroke-width="1" fill="none" fill-rule="evenodd">
        <g id="Logout" transform="translate(-1222.000000, -110.000000)">
            <g id="Group-8" filter="url(#filter-1)" transform="translate(1218.000000, 61.000000)">
                <g id="Logout" transform="translate(14.000000, 53.000000)">
                    <mask id="mask-3" fill="white">
                        <use xlink:href="#path-2"></use>
                    </mask>
                    <use id="icon/action/input_24px" fill="#D4D4D4" fill-rule="nonzero" transform="translate(7.333333, 9.993333) scale(-1, 1) translate(-7.333333, -9.993333) " xlink:href="#path-2"></use>
                </g>
            </g>
        </g>
    </g>
</svg>