<?xml version="1.0" encoding="UTF-8"?>
<svg width="17px" height="16px" viewBox="0 0 17 16" version="1.1" xmlns="http://www.w3.org/2000/svg" xmlns:xlink="http://www.w3.org/1999/xlink">
    <!-- Generator: sketchtool 51.1 (57501) - http://www.bohemiancoding.com/sketch -->
    <title>947AE217-7ABE-4506-94BD-5DAD036171BE</title>
    <desc>Created with sketchtool.</desc>
    <defs></defs>
    <g id="Web-App" stroke="none" stroke-width="1" fill="none" fill-rule="evenodd" opacity="0.4">
        <g id="Home" transform="translate(-1003.000000, -31.000000)" fill="#BCBCBC">
            <g id="Search" transform="translate(675.000000, 21.000000)">
                <path d="M334.25,21.508 C331.346,21.508 328.992,19.154 328.992,16.25 C328.992,13.346 331.346,10.991 334.25,10.991 C337.154,10.991 339.508,13.346 339.508,16.25 C339.508,19.154 337.154,21.508 334.25,21.508 M343.907,25.141 L339.048,20.252 C339.954,19.168 340.5,17.773 340.5,16.25 C340.5,12.798 337.702,10 334.25,10 C330.798,10 328,12.798 328,16.25 C328,19.701 330.798,22.5 334.25,22.5 C335.818,22.5 337.248,21.918 338.345,20.964 L343.2,25.848 C343.395,26.043 343.712,26.043 343.907,25.848 C344.102,25.653 344.102,25.336 343.907,25.141" id="Loupe"></path>
            </g>
        </g>
    </g>
</svg>