<?xml version="1.0" encoding="UTF-8"?>
<svg width="17px" height="22px" viewBox="0 0 17 22" version="1.1" xmlns="http://www.w3.org/2000/svg" xmlns:xlink="http://www.w3.org/1999/xlink">
    <!-- Generator: sketchtool 51.2 (57519) - http://www.bohemiancoding.com/sketch -->
    <title>9F400E22-FD9A-4ED5-BCA3-1BA134DE6C14</title>
    <desc>Created with sketchtool.</desc>
    <defs></defs>
    <g id="Web-App" stroke="none" stroke-width="1" fill="none" fill-rule="evenodd">
        <g id="Requests" transform="translate(-1147.000000, -29.000000)" fill="#999999">
            <g id="Group" transform="translate(1147.000000, 24.000000)">
                <path d="M7.01953125,6.1953125 C7.35807461,5.85676914 7.74739363,5.6875 8.1875,5.6875 C8.62760637,5.6875 9.00846193,5.84830568 9.33007812,6.16992188 C9.65169432,6.49153807 9.8125,6.87239363 9.8125,7.3125 L9.8125,7.515625 C11.2343821,7.8880227 12.4023392,8.68358766 13.3164062,9.90234375 C14.2304733,11.1210998 14.6875,12.4921799 14.6875,14.015625 L14.6875,21.125 C14.6875,21.6666694 14.9583306,21.9375 15.5,21.9375 L16.3125,21.9375 L16.3125,23.5625 L10.4726562,23.5625 C10.5742193,23.8333347 10.625,24.1041653 10.625,24.375 C10.625,25.0520867 10.3880232,25.6276018 9.9140625,26.1015625 C9.4401018,26.5755232 8.86458672,26.8125 8.1875,26.8125 C7.51041328,26.8125 6.9348982,26.5755232 6.4609375,26.1015625 C5.9869768,25.6276018 5.75,25.0520867 5.75,24.375 C5.75,24.1041653 5.80078074,23.8333347 5.90234375,23.5625 L0.0625,23.5625 L0.0625,21.9375 L0.875,21.9375 C1.41666938,21.9375 1.6875,21.6666694 1.6875,21.125 L1.6875,13.8125 C1.6875,12.3229092 2.15299014,10.9941465 3.08398438,9.82617188 C4.01497861,8.65819729 5.17447223,7.8880227 6.5625,7.515625 L6.5625,7.3125 C6.5625,6.87239363 6.71484223,6.50000152 7.01953125,6.1953125 Z M7.83203125,8.9375 C6.54556648,9.03906301 5.47070744,9.55533389 4.60742188,10.4863281 C3.74413631,11.4173224 3.3125,12.5260352 3.3125,13.8125 L3.3125,21.125 C3.3125,21.3958347 3.26171926,21.6666653 3.16015625,21.9375 L13.2148438,21.9375 C13.1132807,21.6666653 13.0625,21.3958347 13.0625,21.125 L13.0625,14.015625 C13.0625,12.6614516 12.6054733,11.485031 11.6914062,10.4863281 C10.7773392,9.48762521 9.66016285,8.97135434 8.33984375,8.9375 L7.83203125,8.9375 Z M9,24.375 C9,23.8333306 8.72916938,23.5625 8.1875,23.5625 C7.64583062,23.5625 7.375,23.8333306 7.375,24.375 C7.375,24.9166694 7.64583062,25.1875 8.1875,25.1875 C8.72916938,25.1875 9,24.9166694 9,24.375 Z" id=""></path>
            </g>
        </g>
    </g>
</svg>