<?xml version="1.0" encoding="UTF-8"?>
<svg width="12px" height="12px" viewBox="0 0 12 12" version="1.1" xmlns="http://www.w3.org/2000/svg" xmlns:xlink="http://www.w3.org/1999/xlink">
    <!-- Generator: sketchtool 51.2 (57519) - http://www.bohemiancoding.com/sketch -->
    <title>5FBCE69B-A83E-4A5B-81E4-4977E8C91721</title>
    <desc>Created with sketchtool.</desc>
    <defs>
        <path d="M12.8275,4.66666667 C12.8275,4.24666667 12.6116667,3.87916667 12.2791667,3.675 L7,0.583333333 L1.72083333,3.675 C1.38833333,3.87916667 1.16666667,4.24666667 1.16666667,4.66666667 L1.16666667,10.5 C1.16666667,11.1416667 1.69166667,11.6666667 2.33333333,11.6666667 L11.6666667,11.6666667 C12.3083333,11.6666667 12.8333333,11.1416667 12.8333333,10.5 L12.8275,4.66666667 Z M7,7.58333333 L2.18166667,4.57333333 L7,1.75 L11.8183333,4.57333333 L7,7.58333333 Z" id="path-1"></path>
    </defs>
    <g id="Web-App" stroke="none" stroke-width="1" fill="none" fill-rule="evenodd">
        <g id="Notifications" transform="translate(-1385.000000, -740.000000)">
            <g id="Group-11" transform="translate(1079.000000, 78.000000)">
                <g id="Group-7" transform="translate(1.000000, 604.000000)">
                    <g id="Group-Copy-5" transform="translate(40.000000, 10.000000)">
                        <g id="icon/content/drafts_24px" transform="translate(264.000000, 48.000000)">
                            <mask id="mask-2" fill="white">
                                <use xlink:href="#path-1"></use>
                            </mask>
                            <g fill-rule="nonzero"></g>
                            <g id="✱-/-Color-/-Icons-/-Grey-light" mask="url(#mask-2)" fill="#BCBCBC" fill-rule="evenodd">
                                <rect id="Rectangle" x="0" y="0" width="14" height="14"></rect>
                            </g>
                        </g>
                    </g>
                </g>
            </g>
        </g>
    </g>
</svg>