<?xml version="1.0" encoding="UTF-8"?>
<svg width="15px" height="15px" viewBox="0 0 15 15" version="1.1" xmlns="http://www.w3.org/2000/svg" xmlns:xlink="http://www.w3.org/1999/xlink">
    <!-- Generator: sketchtool 52.2 (67145) - http://www.bohemiancoding.com/sketch -->
    <title>CAE14093-CA1B-46D7-B20F-FB1DA97AF125</title>
    <desc>Created with sketchtool.</desc>
    <defs>
        <path d="M12.6944444,8.02777778 L12.6944444,11.9166667 C12.6944444,12.3444444 12.3444444,12.6944444 11.9166667,12.6944444 L2.58333333,12.6944444 C2.15555556,12.6944444 1.80555556,12.3444444 1.80555556,11.9166667 L1.80555556,8.02777778 C1.80555556,7.6 1.45555556,7.25 1.02777778,7.25 C0.6,7.25 0.25,7.6 0.25,8.02777778 L0.25,12.6944444 C0.25,13.55 0.95,14.25 1.80555556,14.25 L12.6944444,14.25 C13.55,14.25 14.25,13.55 14.25,12.6944444 L14.25,8.02777778 C14.25,7.6 13.9,7.25 13.4722222,7.25 C13.0444444,7.25 12.6944444,7.6 12.6944444,8.02777778 Z M8.02777778,7.77111111 L9.49,6.30888889 C9.79333333,6.00555556 10.2833333,6.00555556 10.5866667,6.30888889 C10.89,6.61222222 10.89,7.10222222 10.5866667,7.40555556 L7.79444444,10.1977778 C7.49111111,10.5011111 7.00111111,10.5011111 6.69777778,10.1977778 L3.90555556,7.40555556 C3.75991459,7.26024215 3.67806675,7.06295817 3.67806675,6.85722222 C3.67806675,6.65148628 3.75991459,6.4542023 3.90555556,6.30888889 C4.20888889,6.00555556 4.69888889,6.00555556 5.00222222,6.30888889 L6.47222222,7.77111111 L6.47222222,1.02777778 C6.47222222,0.6 6.82222222,0.25 7.25,0.25 C7.67777778,0.25 8.02777778,0.6 8.02777778,1.02777778 L8.02777778,7.77111111 Z" id="path-1"></path>
    </defs>
    <g id="Web-App" stroke="none" stroke-width="1" fill="none" fill-rule="evenodd">
        <g id="Trip-Planner-&gt;-Complete-Checklist" transform="translate(-856.000000, -302.000000)">
            <g id="Modal" transform="translate(420.000000, 27.000000)">
                <g id="Rectangle-9">
                    <g id="Group-5" transform="translate(30.000000, 229.000000)">
                        <g id="Group-18" transform="translate(0.000000, 28.000000)">
                            <g id="icon/file/download_24px" transform="translate(406.000000, 18.000000)">
                                <g id="icon/content/save_alt_24px">
                                    <mask id="mask-2" fill="white">
                                        <use xlink:href="#path-1"></use>
                                    </mask>
                                    <use fill="#999999" fill-rule="nonzero" xlink:href="#path-1"></use>
                                </g>
                            </g>
                        </g>
                    </g>
                </g>
            </g>
        </g>
    </g>
</svg>