<?xml version="1.0" encoding="UTF-8"?>
<svg width="10px" height="10px" viewBox="0 0 10 10" version="1.1" xmlns="http://www.w3.org/2000/svg" xmlns:xlink="http://www.w3.org/1999/xlink">
    <!-- Generator: sketchtool 52.2 (67145) - http://www.bohemiancoding.com/sketch -->
    <title>C3F06A05-3D2A-47F7-BD6D-07F02A4715C6</title>
    <desc>Created with sketchtool.</desc>
    <defs>
        <path d="M8.88888889,5.55555556 L8.88888889,8.33333333 C8.88888889,8.63888889 8.63888889,8.88888889 8.33333333,8.88888889 L1.66666667,8.88888889 C1.36111111,8.88888889 1.11111111,8.63888889 1.11111111,8.33333333 L1.11111111,5.55555556 C1.11111111,5.25 0.861111111,5 0.555555556,5 C0.25,5 0,5.25 0,5.55555556 L0,8.88888889 C0,9.5 0.5,10 1.11111111,10 L8.88888889,10 C9.5,10 10,9.5 10,8.88888889 L10,5.55555556 C10,5.25 9.75,5 9.44444444,5 C9.13888889,5 8.88888889,5.25 8.88888889,5.55555556 Z M5.55555556,5.37222222 L6.6,4.32777778 C6.81666667,4.11111111 7.16666667,4.11111111 7.38333333,4.32777778 C7.6,4.54444444 7.6,4.89444444 7.38333333,5.11111111 L5.38888889,7.10555556 C5.17222222,7.32222222 4.82222222,7.32222222 4.60555556,7.10555556 L2.61111111,5.11111111 C2.50708185,5.00731582 2.44861911,4.86639869 2.44861911,4.71944444 C2.44861911,4.5724902 2.50708185,4.43157307 2.61111111,4.32777778 C2.82777778,4.11111111 3.17777778,4.11111111 3.39444444,4.32777778 L4.44444444,5.37222222 L4.44444444,0.555555556 C4.44444444,0.25 4.69444444,0 5,0 C5.30555556,0 5.55555556,0.25 5.55555556,0.555555556 L5.55555556,5.37222222 Z" id="path-1"></path>
    </defs>
    <g id="Web-App" stroke="none" stroke-width="1" fill="none" fill-rule="evenodd">
        <g id="Documents-&gt;-Options" transform="translate(-1188.000000, -339.000000)">
            <g id="Group-12" transform="translate(1172.000000, 288.000000)">
                <g id="icon/content/save_alt_24px" transform="translate(16.000000, 51.000000)">
                    <mask id="mask-2" fill="white">
                        <use xlink:href="#path-1"></use>
                    </mask>
                    <use fill="#4F4F4F" fill-rule="nonzero" xlink:href="#path-1"></use>
                </g>
            </g>
        </g>
    </g>
</svg>