<?xml version="1.0" encoding="UTF-8"?>
<svg width="48px" height="48px" viewBox="0 0 48 48" version="1.1" xmlns="http://www.w3.org/2000/svg" xmlns:xlink="http://www.w3.org/1999/xlink">
    <!-- Generator: Sketch 51.2 (57519) - http://www.bohemiancoding.com/sketch -->
    <title>Favicon</title>
    <desc>Created with Sketch.</desc>
    <defs>
        <polygon id="path-1" points="0.142904419 0.3256 34.6201092 0.3256 34.6201092 19.97432 0.142904419 19.97432"></polygon>
        <polygon id="path-3" points="0 0.172227273 45.7841228 0.172227273 45.7841228 36 0 36"></polygon>
    </defs>
    <g id="Favicon" stroke="none" stroke-width="1" fill="none" fill-rule="evenodd">
        <g id="Group-9" transform="translate(1.000000, 3.000000)">
            <path d="M21.0124625,29.3970027 C20.876834,30.5312981 21.8565603,31.8873999 23.544756,32.9116486 C25.5593868,34.0742051 27.9008738,34.3508208 28.9623142,33.5205456 C29.9963762,32.6902705 30.3232325,28.9259853 29.6425627,24 C24.7422461,25.7436207 21.2576046,27.653382 21.0124625,29.3970027" id="Fill-1" fill="#FAAD30"></path>
            <g id="Group-5" transform="translate(10.000000, 0.000000)">
                <mask id="mask-2" fill="white">
                    <use xlink:href="#path-1"></use>
                </mask>
                <g id="Clip-4"></g>
                <path d="M4.84758046,12.26992 C7.55183333,9.32272 10.6459138,5.93592 13.8703391,6.27192 C16.912523,6.53032 19.0447069,11.72712 20.2930402,16.07032 C20.630569,17.15632 20.9689023,18.52672 21.2549368,19.97432 C25.8576379,18.57832 30.8236149,17.51832 34.6201092,16.84592 L26.7414885,3.27272 C25.7011437,1.43712 23.7250517,0.32552 21.6186149,0.32552 L4.71763793,0.32552 C3.41740805,0.32552 2.16947701,0.76512 1.15528161,1.54072 L1.12913218,1.54072 C0.167235632,8.70232 -0.249143678,15.06192 0.609362069,16.17392 C1.07723563,16.38072 3.70344253,13.51112 4.84758046,12.26992" id="Fill-3" fill="#3359DB" mask="url(#mask-2)"></path>
            </g>
            <g id="Group-8" transform="translate(0.000000, 6.000000)">
                <mask id="mask-4" fill="white">
                    <use xlink:href="#path-3"></use>
                </mask>
                <g id="Clip-7"></g>
                <path d="M45.5558579,13.4987727 C40.8614368,14.3709545 35.8018404,15.561 31.4725947,16.9359545 C32.2025421,21.8274545 32.2545947,27.1157727 29.9077877,28.9403182 C28.8905421,29.7335455 27.5864018,30.0244091 26.2564368,29.9450455 C24.7174544,29.8656818 23.1268228,29.3101364 21.8226825,28.5435 C19.2148053,27.0098182 17.8323842,24.7622727 18.1192789,22.5679091 C18.536507,19.5537273 22.9964895,17.0685 28.5253667,15.1114091 C28.2642965,13.7892273 27.9257526,12.4146818 27.5343491,11.0131364 C25.8129807,5.01095455 23.987507,2.94831818 23.3612614,2.89595455 C21.457507,2.81618182 18.6668404,5.75140909 16.4765947,8.21045455 C13.7117526,11.2512273 11.338314,13.8951818 8.96487544,12.6527727 C7.13940175,11.7008182 6.98284035,6.54463636 7.5832614,0.172227273 L0.801892982,12.0706364 C-0.267405263,13.9483636 -0.267405263,16.2486818 0.801892982,18.126 L9.27799825,32.9858182 C10.3214719,34.8631364 12.303507,36 14.4158754,36 L31.368086,36 C33.4804544,36 35.4624895,34.8631364 36.5059632,32.9858182 L44.9820684,18.126 C45.7907,16.6978636 45.999314,15.0324545 45.5558579,13.4987727" id="Fill-6" fill="#3359DB" mask="url(#mask-4)"></path>
            </g>
        </g>
    </g>
</svg>