<?xml version="1.0" encoding="UTF-8"?>
<svg width="129px" height="37px" viewBox="0 0 129 37" version="1.1" xmlns="http://www.w3.org/2000/svg" xmlns:xlink="http://www.w3.org/1999/xlink">
    <!-- Generator: sketchtool 51.2 (57519) - http://www.bohemiancoding.com/sketch -->
    <title>7D92F739-D6E3-48D3-B642-5FF1BE28E268</title>
    <desc>Created with sketchtool.</desc>
    <defs>
        <polygon id="path-1" points="1.97166667 0.699491228 12.4503509 0.699491228 12.4503509 13.9321228 1.97166667 13.9321228"></polygon>
        <polygon id="path-3" points="0 1.02608772 40.0374971 1.02608772 40.0374971 31.9295965 0 31.9295965"></polygon>
    </defs>
    <g id="Web-App" stroke="none" stroke-width="1" fill="none" fill-rule="evenodd">
        <g id="Logout" transform="translate(-51.000000, -21.000000)">
            <g id="Logo_blue" transform="translate(50.000000, 19.000000)">
                <g id="Group-23" transform="translate(1.000000, 2.000000)">
                    <path d="M56.465386,27.0311053 C54.0432807,27.0311053 52.9188947,25.2977719 52.9188947,23.4344386 L52.9188947,16.0928596 L51.441,16.0928596 L51.441,14.1040877 L52.9188947,14.1040877 L52.9188947,10.4047895 L55.5211754,10.4047895 L55.5211754,14.1040877 L58.0208246,14.1040877 L58.0208246,16.0928596 L55.5211754,16.0928596 L55.5211754,23.309 C55.5211754,24.2509298 55.9795965,24.8119825 56.9488947,24.8119825 L58.0208246,24.8119825 L58.0208246,27.0311053 L56.465386,27.0311053 Z" id="Fill-1" fill="#3359DB"></path>
                    <path d="M68.4525263,17.1376491 C67.8686667,16.5515088 67.4079649,16.2709825 66.5162105,16.2709825 C65.1135789,16.2709825 63.9412982,17.390807 63.9412982,19.1765965 L63.9412982,27.0313333 L61.3390175,27.0313333 L61.3390175,14.1020351 L63.8911228,14.1020351 L63.8911228,15.5046667 C64.5525263,14.5855439 65.8798947,13.9492281 67.3327018,13.9492281 C68.5825263,13.9492281 69.5267368,14.2822105 70.4162105,15.1739649 L68.4525263,17.1376491 Z" id="Fill-3" fill="#3359DB"></path>
                    <path d="M79.1944035,21.3193158 L76.2112456,21.3193158 C74.6307193,21.3193158 73.8393158,21.983 73.8393158,23.1803684 C73.8393158,24.3777368 74.5805439,25.0163333 76.2887895,25.0163333 C77.2056316,25.0163333 77.9445789,24.9137018 78.6356316,24.2751053 C79.0438772,23.8942281 79.1944035,23.2807193 79.1944035,22.3638772 L79.1944035,21.3193158 Z M79.2445789,27.030193 L79.2445789,25.8579123 C78.3026491,26.8021228 77.4108947,27.183 75.8052807,27.183 C74.197386,27.183 73.1254561,26.8021228 72.3363333,26.0107193 C71.6726491,25.3219474 71.3168596,24.3275614 71.3168596,23.2305439 C71.3168596,21.0638772 72.8198421,19.5084386 75.8052807,19.5084386 L79.1944035,19.5084386 L79.1944035,18.5915965 C79.1944035,16.9335263 78.4052807,16.1672105 76.3663333,16.1672105 C74.9865088,16.1672105 74.2749298,16.5252807 73.5359825,17.4444035 L71.8505439,15.8365088 C73.050193,14.4087895 74.3000175,13.9503684 76.4666842,13.9503684 C80.0359825,13.9503684 81.7966842,15.4784386 81.7966842,18.3863333 L81.7966842,27.030193 L79.2445789,27.030193 Z" id="Fill-5" fill="#3359DB"></path>
                    <polygon id="Fill-7" fill="#3359DB" points="90.8052281 27.0311053 88.6887368 27.0311053 83.9448772 14.1040877 86.6976842 14.1040877 89.7606667 23.2063684 92.794 14.1040877 95.546807 14.1040877"></polygon>
                    <path d="M104.939193,17.7491053 C104.50586,16.779807 103.611825,16.1161228 102.389368,16.1161228 C101.139544,16.1161228 100.245509,16.779807 99.8121754,17.7491053 C99.5590175,18.3101579 99.5065614,18.7184035 99.4814737,19.5075263 L105.294982,19.5075263 C105.244807,18.7184035 105.192351,18.3101579 104.939193,17.7491053 Z M99.4814737,21.3184035 C99.4814737,23.562614 100.628667,24.9401579 102.770246,24.9401579 C104.225333,24.9401579 104.989368,24.5319123 105.908491,23.6150702 L107.564281,25.1682281 C106.239193,26.4955965 104.989368,27.1843684 102.72007,27.1843684 C99.4814737,27.1843684 96.9065614,25.4761228 96.9065614,20.5543684 C96.9065614,16.3464737 99.0755088,13.9494561 102.389368,13.9494561 C105.856035,13.9494561 107.869895,16.4491053 107.869895,20.221386 L107.869895,21.3184035 L99.4814737,21.3184035 Z" id="Fill-9" fill="#3359DB"></path>
                    <path d="M114.788175,27.0311053 C112.315895,27.0311053 111.243965,25.3730351 111.243965,23.461807 L111.243965,8.8744386 L113.843965,8.8744386 L113.843965,23.309 C113.843965,24.303386 114.202035,24.8119825 115.246596,24.8119825 L116.39607,24.8119825 L116.39607,27.0311053 L114.788175,27.0311053 Z" id="Fill-11" fill="#3359DB"></path>
                    <g id="Group-15" transform="translate(116.315789, 13.250877)">
                        <mask id="mask-2" fill="white">
                            <use xlink:href="#path-1"></use>
                        </mask>
                        <g id="Clip-14"></g>
                        <path d="M9.84921053,8.0684386 L6.86605263,8.0684386 C5.28552632,8.0684386 4.49412281,8.73212281 4.49412281,9.92949123 C4.49412281,11.1268596 5.23535088,11.7654561 6.94359649,11.7654561 C7.8604386,11.7654561 8.59938596,11.6628246 9.2904386,11.0242281 C9.69868421,10.6433509 9.84921053,10.0298421 9.84921053,9.113 L9.84921053,8.0684386 Z M9.89938596,13.7793158 L9.89938596,12.6070351 C8.95517544,13.5512456 8.06570175,13.9321228 6.46008772,13.9321228 C4.85219298,13.9321228 3.78026316,13.5512456 2.99114035,12.7598421 C2.32745614,12.0710702 1.97166667,11.0766842 1.97166667,9.97966667 C1.97166667,7.813 3.47464912,6.2575614 6.46008772,6.2575614 L9.84921053,6.2575614 L9.84921053,5.3407193 C9.84921053,3.68264912 9.06008772,2.91633333 7.02114035,2.91633333 C5.64131579,2.91633333 4.92745614,3.27440351 4.19078947,4.19352632 L2.50535088,2.58563158 C3.705,1.15791228 4.95482456,0.699491228 7.12149123,0.699491228 C10.6907895,0.699491228 12.4514912,2.2275614 12.4514912,5.13545614 L12.4514912,13.7793158 L9.89938596,13.7793158 Z" id="Fill-13" fill="#3359DB" mask="url(#mask-2)"></path>
                    </g>
                    <path d="M18.1032982,24.768193 C17.9892632,25.7032807 18.8103158,26.8208246 20.2243509,27.6646842 C21.9120702,28.6225789 23.8734737,28.8506491 24.7629474,28.1664386 C25.629614,27.4822281 25.9032982,24.3804737 25.3331228,20.3208246 C21.2278596,21.7576667 18.3085614,23.3313509 18.1032982,24.768193" id="Fill-16" fill="#FAAD30"></path>
                    <path d="M12.7201579,10.5372982 C15.0920877,7.93729825 17.8061228,4.94957895 20.634193,5.24607018 C23.302614,5.47414035 25.1727895,10.0583509 26.2675263,13.8899298 C26.5640175,14.8478246 26.8605088,16.0565965 27.111386,17.3337895 C31.1482281,16.1022105 35.5043684,15.1671228 38.834193,14.5741404 L31.9236667,2.60045614 C31.0136667,0.981157895 29.2780526,0.000456140351 27.4306842,0.000456140351 L12.6061228,0.000456140351 C11.4657719,0.000456140351 10.3710351,0.388175439 9.4815614,1.07238596 L9.45875439,1.07238596 C8.61489474,7.38992982 8.24998246,13.0004561 9.00261404,13.9811579 C9.41314035,14.163614 11.7166491,11.6320351 12.7201579,10.5372982" id="Fill-18" fill="#3359DB"></path>
                    <g id="Group-22" transform="translate(0.000000, 4.128070)">
                        <mask id="mask-4" fill="white">
                            <use xlink:href="#path-3"></use>
                        </mask>
                        <g id="Clip-21"></g>
                        <path d="M39.8379298,12.5208246 C35.7326667,13.2734561 31.3081053,14.2997719 27.5221404,15.4857368 C28.1607368,19.7050351 28.2063509,24.2664386 26.1537193,25.8401228 C25.2642456,26.5243333 24.1238947,26.7752105 22.9607368,26.7067895 C21.6151228,26.6383684 20.2238947,26.1594211 19.0835439,25.4980175 C16.8028421,24.1752105 15.5940702,22.236614 15.8449474,20.3436316 C16.2098596,17.7436316 20.1098596,15.5997719 24.9449474,13.9120526 C24.7168772,12.7717018 24.420386,11.5857368 24.0782807,10.3769649 C22.5730175,5.19977193 20.9765263,3.42082456 20.4291579,3.37521053 C18.7642456,3.30678947 16.3238947,5.83836842 14.4081053,7.95942105 C11.9905614,10.5822281 9.91512281,12.8629298 7.83968421,11.791 C6.24319298,10.9699474 6.10635088,6.52257895 6.63091228,1.02608772 L0.701087719,11.2892456 C-0.234,12.9085439 -0.234,14.8927544 0.701087719,16.5120526 L8.11336842,29.3295965 C9.02564912,30.9488947 10.7589825,31.9295965 12.6063509,31.9295965 L27.4309123,31.9295965 C29.2782807,31.9295965 31.011614,30.9488947 31.9238947,29.3295965 L39.3361754,16.5120526 C40.043193,15.2804737 40.2256491,13.8436316 39.8379298,12.5208246" id="Fill-20" fill="#3359DB" mask="url(#mask-4)"></path>
                    </g>
                </g>
            </g>
        </g>
    </g>
</svg>