<?xml version="1.0" encoding="UTF-8"?>
<svg width="159px" height="45px" viewBox="0 0 159 45" version="1.1" xmlns="http://www.w3.org/2000/svg" xmlns:xlink="http://www.w3.org/1999/xlink">
    <!-- Generator: sketchtool 51.2 (57519) - http://www.bohemiancoding.com/sketch -->
    <title>761EB404-50B4-4F20-811D-C7E3D6576A3F</title>
    <desc>Created with sketchtool.</desc>
    <defs>
        <polygon id="path-1" points="2.42666667 0.856876754 15.3235088 0.856876754 15.3235088 17.0668504 2.42666667 17.0668504"></polygon>
        <polygon id="path-3" points="0 1.25695746 49.2769195 1.25695746 49.2769195 39.1137557 0 39.1137557"></polygon>
    </defs>
    <g id="Web-App" stroke="none" stroke-width="1" fill="none" fill-rule="evenodd">
        <g id="Landing-Page" transform="translate(-81.000000, -82.000000)">
            <g id="Logo_blue" transform="translate(80.000000, 80.000000)">
                <g id="Group-23" transform="translate(1.230769, 2.450000)">
                    <path d="M69.4958596,33.1131039 C66.514807,33.1131039 65.1309474,30.9897706 65.1309474,28.7071873 L65.1309474,19.7137531 L63.312,19.7137531 L63.312,17.2775075 L65.1309474,17.2775075 L65.1309474,12.7458671 L68.3337544,12.7458671 L68.3337544,17.2775075 L71.4102456,17.2775075 L71.4102456,19.7137531 L68.3337544,19.7137531 L68.3337544,28.553525 C68.3337544,29.707389 68.8979649,30.3946785 70.0909474,30.3946785 L71.4102456,30.3946785 L71.4102456,33.1131039 L69.4958596,33.1131039 Z" id="Fill-1" fill="#3359DB"></path>
                    <path d="M84.2492632,20.9936202 C83.5306667,20.2755982 82.9636491,19.9319535 81.8661053,19.9319535 C80.1397895,19.9319535 78.6969825,21.3037386 78.6969825,23.4913307 L78.6969825,33.1133833 L75.4941754,33.1133833 L75.4941754,17.274993 L78.6352281,17.274993 L78.6352281,18.9932167 C79.4492632,17.8672912 81.0829474,17.0878044 82.8710175,17.0878044 C84.4092632,17.0878044 85.5713684,17.4957079 86.6661053,18.588107 L84.2492632,20.9936202 Z" id="Fill-3" fill="#3359DB"></path>
                    <path d="M97.4700351,26.1161618 L93.7984561,26.1161618 C91.853193,26.1161618 90.8791579,26.929175 90.8791579,28.3959513 C90.8791579,29.8627276 91.7914386,30.6450083 93.8938947,30.6450083 C95.0223158,30.6450083 95.9317895,30.5192846 96.7823158,29.7370039 C97.2847719,29.2704294 97.4700351,28.5188811 97.4700351,27.3957496 L97.4700351,26.1161618 Z M97.5317895,33.1119864 L97.5317895,31.6759425 C96.3724912,32.8326004 95.2749474,33.299175 93.298807,33.299175 C91.3198596,33.299175 90.0005614,32.8326004 89.0293333,31.8631311 C88.2124912,31.0193855 87.7745965,29.8012627 87.7745965,28.4574162 C87.7745965,25.8032496 89.6244211,23.8978373 93.298807,23.8978373 L97.4700351,23.8978373 L97.4700351,22.7747057 C97.4700351,20.7435697 96.498807,19.8048329 93.9893333,19.8048329 C92.2910877,19.8048329 91.4152982,20.2434689 90.5058246,21.3693943 L88.4314386,19.3997232 C89.9079298,17.6507671 91.4461754,17.0892013 94.1128421,17.0892013 C98.5058246,17.0892013 100.672842,18.9610873 100.672842,22.5232583 L100.672842,33.1119864 L97.5317895,33.1119864 Z" id="Fill-5" fill="#3359DB"></path>
                    <polygon id="Fill-7" fill="#3359DB" points="111.760281 33.1131039 109.155368 33.1131039 103.316772 17.2775075 106.704842 17.2775075 110.474667 28.4278013 114.208 17.2775075 117.59607 17.2775075"></polygon>
                    <path d="M129.15593,21.7426539 C128.622596,20.5552636 127.522246,19.7422504 126.017684,19.7422504 C124.479439,19.7422504 123.379088,20.5552636 122.845754,21.7426539 C122.534175,22.4299434 122.469614,22.9300443 122.438737,23.8967197 L129.593825,23.8967197 C129.53207,22.9300443 129.467509,22.4299434 129.15593,21.7426539 Z M122.438737,26.1150443 C122.438737,28.8642022 123.850667,30.5516934 126.486456,30.5516934 C128.277333,30.5516934 129.217684,30.0515925 130.348912,28.928461 L132.386807,30.8310794 C130.75593,32.4571057 129.217684,33.3008513 126.424702,33.3008513 C122.438737,33.3008513 119.269614,31.2082504 119.269614,25.1791013 C119.269614,20.0244303 121.939088,17.0880838 126.017684,17.0880838 C130.284351,17.0880838 132.762947,20.1501539 132.762947,24.7711978 L132.762947,26.1150443 L122.438737,26.1150443 Z" id="Fill-9" fill="#3359DB"></path>
                    <path d="M141.277754,33.1131039 C138.234947,33.1131039 136.915649,31.081968 136.915649,28.7407136 L136.915649,10.8711873 L140.115649,10.8711873 L140.115649,28.553525 C140.115649,29.7716478 140.556351,30.3946785 141.841965,30.3946785 L143.256702,30.3946785 L143.256702,33.1131039 L141.277754,33.1131039 Z" id="Fill-11" fill="#3359DB"></path>
                    <g id="Group-15" transform="translate(143.157895, 16.232325)">
                        <mask id="mask-2" fill="white">
                            <use xlink:href="#path-1"></use>
                        </mask>
                        <g id="Clip-14"></g>
                        <path d="M12.1221053,9.88383728 L8.45052632,9.88383728 C6.50526316,9.88383728 5.53122807,10.6968504 5.53122807,12.1636268 C5.53122807,13.6304031 6.44350877,14.4126838 8.54596491,14.4126838 C9.67438596,14.4126838 10.5838596,14.2869601 11.434386,13.5046794 C11.9368421,13.0381048 12.1221053,12.2865566 12.1221053,11.163425 L12.1221053,9.88383728 Z M12.1838596,16.8796618 L12.1838596,15.443618 C11.0217544,16.6002759 9.92701754,17.0668504 7.95087719,17.0668504 C5.97192982,17.0668504 4.65263158,16.6002759 3.68140351,15.6308066 C2.8645614,14.787061 2.42666667,13.5689382 2.42666667,12.2250917 C2.42666667,9.570925 4.27649123,7.66551272 7.95087719,7.66551272 L12.1221053,7.66551272 L12.1221053,6.54238114 C12.1221053,4.51124518 11.1508772,3.57250833 8.64140351,3.57250833 C6.94315789,3.57250833 6.0645614,4.0111443 5.15789474,5.13706974 L3.08350877,3.16739868 C4.56,1.41844254 6.09824561,0.856876754 8.76491228,0.856876754 C13.1578947,0.856876754 15.3249123,2.72876272 15.3249123,6.29093377 L15.3249123,16.8796618 L12.1838596,16.8796618 Z" id="Fill-13" fill="#3359DB" mask="url(#mask-2)"></path>
                    </g>
                    <path d="M22.2809825,30.3410364 C22.1406316,31.4865189 23.1511579,32.8555101 24.8915088,33.8892382 C26.9687018,35.0626592 29.3827368,35.3420452 30.4774737,34.5038873 C31.5441404,33.6657294 31.8809825,29.8660803 31.1792281,24.8930101 C26.1265965,26.6531417 22.533614,28.5809048 22.2809825,30.3410364" id="Fill-16" fill="#FAAD30"></path>
                    <path d="M15.6555789,12.9081904 C18.5748772,9.72319035 21.9152281,6.06323421 25.3959298,6.42643596 C28.6801404,6.70582193 30.9818947,12.3214798 32.3292632,17.015164 C32.6941754,18.1885851 33.0590877,19.6693307 33.3678596,21.2338921 C38.3362807,19.7252079 43.6976842,18.5797254 47.7959298,17.8533219 L39.2906667,3.18555877 C38.1706667,1.20191842 36.0345263,0.00055877193 33.7608421,0.00055877193 L15.5152281,0.00055877193 C14.1117193,0.00055877193 12.7643509,0.475514912 11.669614,1.31367281 L11.6415439,1.31367281 C10.6029474,9.05266404 10.1538246,15.9255588 11.0801404,17.1269184 C11.5854035,17.3504272 14.4204912,14.249243 15.6555789,12.9081904" id="Fill-18" fill="#3359DB"></path>
                    <g id="Group-22" transform="translate(0.000000, 5.056886)">
                        <mask id="mask-4" fill="white">
                            <use xlink:href="#path-3"></use>
                        </mask>
                        <g id="Clip-21"></g>
                        <path d="M49.0312982,15.3380101 C43.9786667,16.2599838 38.5330526,17.5172206 33.8734035,18.9700276 C34.6593684,24.138668 34.7155088,29.7263873 32.189193,31.6541504 C31.0944561,32.4923083 29.6909474,32.7996329 28.2593684,32.7158171 C26.6032281,32.6320013 24.8909474,32.0452908 23.4874386,31.2350715 C20.6804211,29.6146329 19.1927018,27.2398522 19.5014737,24.9209487 C19.9505965,21.7359487 24.7505965,19.1097206 30.7014737,17.0422645 C30.4207719,15.6453346 30.0558596,14.1925276 29.634807,12.711782 C27.7821754,6.36972061 25.8172632,4.19051009 25.1435789,4.13463289 C23.0944561,4.05081711 20.0909474,7.15200132 17.7330526,9.75029079 C14.757614,12.9632294 12.2032281,15.757089 9.64884211,14.443975 C7.68392982,13.4381855 7.51550877,7.99015921 8.16112281,1.25695746 L0.862877193,13.8293259 C-0.288,15.8129662 -0.288,18.2436241 0.862877193,20.2272645 L9.98568421,35.9287557 C11.1084912,37.9123961 13.2418246,39.1137557 15.5155088,39.1137557 L33.7611228,39.1137557 C36.034807,39.1137557 38.1681404,37.9123961 39.2909474,35.9287557 L48.4137544,20.2272645 C49.2839298,18.7185803 49.5084912,16.9584487 49.0312982,15.3380101" id="Fill-20" fill="#3359DB" mask="url(#mask-4)"></path>
                    </g>
                </g>
            </g>
        </g>
    </g>
</svg>