<?xml version="1.0" encoding="UTF-8"?>
<svg width="12px" height="10px" viewBox="0 0 12 10" version="1.1" xmlns="http://www.w3.org/2000/svg" xmlns:xlink="http://www.w3.org/1999/xlink">
    <!-- Generator: sketchtool 51.2 (57519) - http://www.bohemiancoding.com/sketch -->
    <title>74995377-EF66-4FBA-A75E-3BF4F565F452</title>
    <desc>Created with sketchtool.</desc>
    <defs>
        <path d="M11.6666667,2.33333333 L2.33333333,2.33333333 C1.69166667,2.33333333 1.1725,2.85833333 1.1725,3.5 L1.16666667,10.5 C1.16666667,11.1416667 1.69166667,11.6666667 2.33333333,11.6666667 L11.6666667,11.6666667 C12.3083333,11.6666667 12.8333333,11.1416667 12.8333333,10.5 L12.8333333,3.5 C12.8333333,2.85833333 12.3083333,2.33333333 11.6666667,2.33333333 Z M11.6666667,4.66666667 L7,7.58333333 L2.33333333,4.66666667 L2.33333333,3.5 L7,6.41666667 L11.6666667,3.5 L11.6666667,4.66666667 Z" id="path-1"></path>
    </defs>
    <g id="Web-App" stroke="none" stroke-width="1" fill="none" fill-rule="evenodd">
        <g id="Notifications" transform="translate(-1385.000000, -339.000000)">
            <g id="Group-11" transform="translate(1079.000000, 78.000000)">
                <g id="Group-3" transform="translate(1.000000, 119.000000)">
                    <g id="icon/content/markunread_24px" transform="translate(304.000000, 140.000000)">
                        <mask id="mask-2" fill="white">
                            <use xlink:href="#path-1"></use>
                        </mask>
                        <g fill-rule="nonzero"></g>
                        <g id="✱-/-Color-/-Icons-/-Grey-light" mask="url(#mask-2)" fill="#BCBCBC" fill-rule="evenodd">
                            <rect id="Rectangle" x="0" y="0" width="14" height="14"></rect>
                        </g>
                    </g>
                </g>
            </g>
        </g>
    </g>
</svg>