<?xml version="1.0" encoding="UTF-8"?>
<svg width="22px" height="16px" viewBox="0 0 22 16" version="1.1" xmlns="http://www.w3.org/2000/svg" xmlns:xlink="http://www.w3.org/1999/xlink">
    <!-- Generator: sketchtool 51.3 (57544) - http://www.bohemiancoding.com/sketch -->
    <title>C60EAF6E-2608-4BB5-82D5-99BFA6C8DDD7</title>
    <desc>Created with sketchtool.</desc>
    <defs>
        <path d="M6,8.5 C7.66,8.5 9,7.16 9,5.5 C9,3.84 7.66,2.5 6,2.5 C4.34,2.5 3,3.84 3,5.5 C3,7.16 4.34,8.5 6,8.5 Z M18,2.5 L12,2.5 C10.9,2.5 10,3.4 10,4.5 L10,9.5 L2,9.5 L2,1.5 C2,0.95 1.55,0.5 1,0.5 C0.45,0.5 0,0.95 0,1.5 L0,14.5 C0,15.05 0.45,15.5 1,15.5 C1.55,15.5 2,15.05 2,14.5 L2,12.5 L20,12.5 L20,14.5 C20,15.05 20.45,15.5 21,15.5 C21.55,15.5 22,15.05 22,14.5 L22,6.5 C22,4.29 20.21,2.5 18,2.5 Z" id="path-1"></path>
    </defs>
    <g id="Web-App" stroke="none" stroke-width="1" fill="none" fill-rule="evenodd">
        <g id="Accomodation" transform="translate(-51.000000, -195.000000)">
            <g id="Group-4-Copy-2" transform="translate(51.000000, 193.000000)">
                <g id="accommodation-blue" transform="translate(0.000000, 2.000000)">
                    <mask id="mask-2" fill="white">
                        <use xlink:href="#path-1"></use>
                    </mask>
                    <use id="icon/maps/hotel_24px" fill="#3359DB" fill-rule="nonzero" xlink:href="#path-1"></use>
                </g>
            </g>
        </g>
    </g>
</svg>
