<?xml version="1.0" encoding="UTF-8"?>
<svg width="22px" height="16px" viewBox="0 0 22 16" version="1.1" xmlns="http://www.w3.org/2000/svg" xmlns:xlink="http://www.w3.org/1999/xlink">
    <!-- Generator: sketchtool 51.3 (57544) - http://www.bohemiancoding.com/sketch -->
    <title>3B9775ED-F0C4-4139-B1BF-DA01351207B5</title>
    <desc>Created with sketchtool.</desc>
    <defs>
        <path d="M6,9.5 C7.66,9.5 9,8.16 9,6.5 C9,4.84 7.66,3.5 6,3.5 C4.34,3.5 3,4.84 3,6.5 C3,8.16 4.34,9.5 6,9.5 Z M6,5.5 C6.55,5.5 7,5.95 7,6.5 C7,7.05 6.55,7.5 6,7.5 C5.45,7.5 5,7.05 5,6.5 C5,5.95 5.45,5.5 6,5.5 Z M18,2.5 L10,2.5 L10,10.5 L2,10.5 L2,0.5 L0,0.5 L0,15.5 L2,15.5 L2,12.5 L20,12.5 L20,15.5 L22,15.5 L22,6.5 C22,4.29 20.21,2.5 18,2.5 Z M20,10.5 L12,10.5 L12,4.5 L18,4.5 C19.1,4.5 20,5.4 20,6.5 L20,10.5 Z" id="path-1"></path>
    </defs>
    <g id="Web-App" stroke="none" stroke-width="1" fill="none" fill-rule="evenodd">
        <g id="Accomodation" transform="translate(-321.000000, -507.000000)">
            <g id="Group-2" transform="translate(300.000000, 196.000000)">
                <g id="icon/maps/hotel_24px" transform="translate(21.000000, 311.000000)">
                    <mask id="mask-2" fill="white">
                        <use xlink:href="#path-1"></use>
                    </mask>
                    <use fill="#999999" fill-rule="nonzero" xlink:href="#path-1"></use>
                </g>
            </g>
        </g>
    </g>
</svg>