<?xml version="1.0" encoding="UTF-8"?>
<svg width="8px" height="16px" viewBox="0 0 8 16" version="1.1" xmlns="http://www.w3.org/2000/svg" xmlns:xlink="http://www.w3.org/1999/xlink">
    <!-- Generator: sketchtool 52.4 (67378) - http://www.bohemiancoding.com/sketch -->
    <title>74C71C88-81A8-416F-9AB1-F6777ED3E95B</title>
    <desc>Created with sketchtool.</desc>
    <defs>
        <path d="M6.76509064,4.09406868 L6.76509064,11.6282433 C6.76509064,13.1165632 5.67555499,14.4410968 4.19435619,14.5835197 C2.49240181,14.7473061 1.06817221,13.4156515 1.06817221,11.7493028 L1.06817221,2.94756385 C1.06817221,2.01469345 1.73756012,1.16727684 2.66330937,1.07470191 C3.73148157,0.967884691 4.62874622,1.80105901 4.62874622,2.84786777 L4.62874622,10.3250732 C4.62874622,10.7167364 4.30829456,11.037188 3.91663142,11.037188 C3.52496828,11.037188 3.20451662,10.7167364 3.20451662,10.3250732 L3.20451662,4.09406868 C3.20451662,3.80210161 2.96239758,3.55998258 2.67043051,3.55998258 C2.37846344,3.55998258 2.13634441,3.80210161 2.13634441,4.09406868 L2.13634441,10.2253771 C2.13634441,11.1582475 2.80573233,12.0056641 3.73148157,12.0982391 C4.79965378,12.2050563 5.69691843,11.371882 5.69691843,10.3250732 L5.69691843,2.96892729 C5.69691843,1.48060735 4.60738278,0.156073815 3.12618399,0.0136508541 C1.43135076,-0.150135551 0,1.18151913 0,2.84786777 L0,11.5855164 C0,13.6292859 1.49544109,15.4594209 3.53208943,15.6516919 C5.87494713,15.8653264 7.83326284,14.0423125 7.83326284,11.7493028 L7.83326284,4.09406868 C7.83326284,3.80210161 7.59114381,3.55998258 7.29917674,3.55998258 C7.00720967,3.55998258 6.76509064,3.80210161 6.76509064,4.09406868 Z" id="path-1"></path>
    </defs>
    <g id="Web-App" stroke="none" stroke-width="1" fill="none" fill-rule="evenodd">
        <g id="Request-modal-&gt;-View-Attachments" transform="translate(-380.000000, -335.000000)">
            <g id="Group-2" transform="translate(350.000000, 17.000000)">
                <g id="Rectangle-17">
                    <g id="icon/editor/format_underlined_24px" transform="translate(30.000000, 318.000000)">
                        <mask id="mask-2" fill="white">
                            <use xlink:href="#path-1"></use>
                        </mask>
                        <use id="icon/editor/attach_file_24px" fill="#999999" fill-rule="nonzero" xlink:href="#path-1"></use>
                    </g>
                </g>
            </g>
        </g>
    </g>
</svg>
