<?xml version="1.0" encoding="UTF-8"?>
<svg width="12px" height="12px" viewBox="0 0 12 12" version="1.1" xmlns="http://www.w3.org/2000/svg" xmlns:xlink="http://www.w3.org/1999/xlink">
    <!-- Generator: sketchtool 52.3 (67297) - http://www.bohemiancoding.com/sketch -->
    <title>D186CD3B-D755-46FD-9C90-807F251D1F1D</title>
    <desc>Created with sketchtool.</desc>
    <g id="Web-App" stroke="none" stroke-width="1" fill="none" fill-rule="evenodd">
        <g id="Request-modal-&gt;-View-Attachments" transform="translate(-1058.000000, -414.000000)" fill="#999999" fill-rule="nonzero">
            <path d="M1068.66667,420.666667 L1068.66667,424 C1068.66667,424.366667 1068.36667,424.666667 1068,424.666667 L1060,424.666667 C1059.63333,424.666667 1059.33333,424.366667 1059.33333,424 L1059.33333,420.666667 C1059.33333,420.3 1059.03333,420 1058.66667,420 C1058.3,420 1058,420.3 1058,420.666667 L1058,424.666667 C1058,425.4 1058.6,426 1059.33333,426 L1068.66667,426 C1069.4,426 1070,425.4 1070,424.666667 L1070,420.666667 C1070,420.3 1069.7,420 1069.33333,420 C1068.96667,420 1068.66667,420.3 1068.66667,420.666667 Z M1064.66667,420.446667 L1065.92,419.193333 C1066.18,418.933333 1066.6,418.933333 1066.86,419.193333 C1067.12,419.453333 1067.12,419.873333 1066.86,420.133333 L1064.46667,422.526667 C1064.20667,422.786667 1063.78667,422.786667 1063.52667,422.526667 L1061.13333,420.133333 C1061.0085,420.008779 1060.93834,419.839678 1060.93834,419.663333 C1060.93834,419.486988 1061.0085,419.317888 1061.13333,419.193333 C1061.39333,418.933333 1061.81333,418.933333 1062.07333,419.193333 L1063.33333,420.446667 L1063.33333,414.666667 C1063.33333,414.3 1063.63333,414 1064,414 C1064.36667,414 1064.66667,414.3 1064.66667,414.666667 L1064.66667,420.446667 Z" id="icon/content/save_alt_24px-copy-3"></path>
        </g>
    </g>
</svg>