<?xml version="1.0" encoding="UTF-8"?>
<svg width="15px" height="15px" viewBox="0 0 15 15" version="1.1" xmlns="http://www.w3.org/2000/svg" xmlns:xlink="http://www.w3.org/1999/xlink">
    <!-- Generator: sketchtool 52.2 (67145) - http://www.bohemiancoding.com/sketch -->
    <title>472336FD-F261-445C-86E2-7EF6FF56C44D</title>
    <desc>Created with sketchtool.</desc>
    <defs>
        <path d="M11.7,1.18181818 L11.05,1.18181818 L11.05,0 L9.75,0 L9.75,1.18181818 L3.25,1.18181818 L3.25,0 L1.95,0 L1.95,1.18181818 L1.3,1.18181818 C0.585,1.18181818 0,1.71363636 0,2.36363636 L0,11.8181818 C0,12.4681818 0.585,13 1.3,13 L11.7,13 C12.415,13 13,12.4681818 13,11.8181818 L13,2.36363636 C13,1.71363636 12.415,1.18181818 11.7,1.18181818 Z M11.7,11.8181818 L1.3,11.8181818 L1.3,5.31818182 L11.7,5.31818182 L11.7,11.8181818 Z M11.7,4.13636364 L1.3,4.13636364 L1.3,2.36363636 L11.7,2.36363636 L11.7,4.13636364 Z" id="path-1"></path>
    </defs>
    <g id="Web-App" stroke="none" stroke-width="1" fill="none" fill-rule="evenodd">
        <g id="Analytics" transform="translate(-1305.000000, -141.000000)">
            <g id="Dynamic-group-Copy" transform="translate(1205.000000, 130.000000)">
                <g id="icon/action/calendar_today_24px" transform="translate(101.000000, 12.000000)">
                    <mask id="mask-2" fill="white">
                        <use xlink:href="#path-1"></use>
                    </mask>
                    <use stroke="#FFAF30" stroke-width="0.2" fill="#FFAF30" fill-rule="nonzero" xlink:href="#path-1"></use>
                </g>
            </g>
        </g>
    </g>
</svg>