<?xml version="1.0" encoding="UTF-8"?>
<svg width="19px" height="19px" viewBox="0 0 19 19" version="1.1" xmlns="http://www.w3.org/2000/svg" xmlns:xlink="http://www.w3.org/1999/xlink">
    <!-- Generator: sketchtool 52.1 (67048) - http://www.bohemiancoding.com/sketch -->
    <title>AA4321AE-A600-4563-BBA8-538452FD3B4A</title>
    <desc>Created with sketchtool.</desc>
    <defs>
        <path d="M9.5,6.33333333 L13.7222222,6.33333333 C14.3027778,6.33333333 14.7777778,5.85833333 14.7777778,5.27777778 C14.7777778,4.69722222 14.3027778,4.22222222 13.7222222,4.22222222 L9.5,4.22222222 C8.91944444,4.22222222 8.44444444,4.69722222 8.44444444,5.27777778 C8.44444444,5.85833333 8.91944444,6.33333333 9.5,6.33333333 Z M9.5,10.5555556 L13.7222222,10.5555556 C14.3027778,10.5555556 14.7777778,10.0805556 14.7777778,9.5 C14.7777778,8.91944444 14.3027778,8.44444444 13.7222222,8.44444444 L9.5,8.44444444 C8.91944444,8.44444444 8.44444444,8.91944444 8.44444444,9.5 C8.44444444,10.0805556 8.91944444,10.5555556 9.5,10.5555556 Z M9.5,14.7777778 L13.7222222,14.7777778 C14.3027778,14.7777778 14.7777778,14.3027778 14.7777778,13.7222222 C14.7777778,13.1416667 14.3027778,12.6666667 13.7222222,12.6666667 L9.5,12.6666667 C8.91944444,12.6666667 8.44444444,13.1416667 8.44444444,13.7222222 C8.44444444,14.3027778 8.91944444,14.7777778 9.5,14.7777778 Z M4.22222222,4.22222222 L6.33333333,4.22222222 L6.33333333,6.33333333 L4.22222222,6.33333333 L4.22222222,4.22222222 Z M4.22222222,8.44444444 L6.33333333,8.44444444 L6.33333333,10.5555556 L4.22222222,10.5555556 L4.22222222,8.44444444 Z M4.22222222,12.6666667 L6.33333333,12.6666667 L6.33333333,14.7777778 L4.22222222,14.7777778 L4.22222222,12.6666667 Z M17.9444444,0 L1.05555556,0 C0.475,0 0,0.475 0,1.05555556 L0,17.9444444 C0,18.525 0.475,19 1.05555556,19 L17.9444444,19 C18.525,19 19,18.525 19,17.9444444 L19,1.05555556 C19,0.475 18.525,0 17.9444444,0 Z M16.8888889,16.8888889 L2.11111111,16.8888889 L2.11111111,2.11111111 L16.8888889,2.11111111 L16.8888889,16.8888889 Z" id="path-1"></path>
    </defs>
    <g id="Web-App" stroke="none" stroke-width="1" fill="none" fill-rule="evenodd">
        <g id="Trip-Planner" transform="translate(-52.000000, -234.000000)">
            <g id="Group-3-Copy" transform="translate(52.000000, 233.000000)">
                <g id="accommodation-blue" transform="translate(0.000000, 1.000000)">
                    <g id="icon/communication/list_alt_24px">
                        <mask id="mask-2" fill="white">
                            <use xlink:href="#path-1"></use>
                        </mask>
                        <use fill="#3359DB" fill-rule="nonzero" xlink:href="#path-1"></use>
                    </g>
                </g>
            </g>
        </g>
    </g>
</svg>