<?xml version="1.0" encoding="UTF-8"?>
<svg width="17px" height="17px" viewBox="0 0 17 17" version="1.1" xmlns="http://www.w3.org/2000/svg" xmlns:xlink="http://www.w3.org/1999/xlink">
    <!-- Generator: sketchtool 51.2 (57519) - http://www.bohemiancoding.com/sketch -->
    <title>21F68F69-8238-4480-BABC-F4047F9DD63C</title>
    <desc>Created with sketchtool.</desc>
    <defs></defs>
    <g id="Web-App" stroke="none" stroke-width="1" fill="none" fill-rule="evenodd">
        <g id="Request-&gt;-Other-Destination" transform="translate(-975.000000, -68.000000)" fill="#999999" fill-rule="nonzero">
            <g id="Group" transform="translate(420.000000, 42.000000)">
                <g id="Modal-Header" transform="translate(30.000000, 20.000000)">
                    <g id="Group-8" transform="translate(525.000000, 6.000000)">
                        <g id="round-clear-24px" transform="translate(0.357143, 0.357143)">
                            <g id="Rounded_1_">
                                <path d="M16.1307115,0.784538901 C15.6553336,0.309161036 14.8874155,0.309161036 14.4120377,0.784538901 L8.45153061,6.73285679 L2.49102354,0.772349725 C2.01564568,0.29697186 1.24772759,0.29697186 0.772349725,0.772349725 C0.29697186,1.24772759 0.29697186,2.01564568 0.772349725,2.49102354 L6.73285679,8.45153061 L0.772349725,14.4120377 C0.29697186,14.8874155 0.29697186,15.6553336 0.772349725,16.1307115 C1.24772759,16.6060894 2.01564568,16.6060894 2.49102354,16.1307115 L8.45153061,10.1702044 L14.4120377,16.1307115 C14.8874155,16.6060894 15.6553336,16.6060894 16.1307115,16.1307115 C16.6060894,15.6553336 16.6060894,14.8874155 16.1307115,14.4120377 L10.1702044,8.45153061 L16.1307115,2.49102354 C16.5939002,2.02783485 16.5939002,1.24772759 16.1307115,0.784538901 Z" id="Shape"></path>
                            </g>
                        </g>
                    </g>
                </g>
            </g>
        </g>
    </g>
</svg>