<?xml version="1.0" encoding="UTF-8"?>
<svg width="18px" height="18px" viewBox="0 0 18 18" version="1.1" xmlns="http://www.w3.org/2000/svg" xmlns:xlink="http://www.w3.org/1999/xlink">
    <!-- Generator: sketchtool 52.2 (67145) - http://www.bohemiancoding.com/sketch -->
    <title>D62797C1-F9A4-48B6-A3CE-49CFB1188B05</title>
    <desc>Created with sketchtool.</desc>
    <g id="Web-App" stroke="none" stroke-width="1" fill="none" fill-rule="evenodd">
        <g id="Analytics" transform="translate(-53.000000, -143.000000)" fill="#3359DB" fill-rule="nonzero">
            <g transform="translate(53.000000, 143.000000)" id="Combined-Shape">
                <path d="M14.4,16.2 L16.2,16.2 L16.2,1.8 L14.4,1.8 L14.4,16.2 Z M13.05,0 L17.55,0 C17.7985281,0 18,0.237025721 18,0.529411765 L18,17.4705882 C18,17.7629743 17.7985281,18 17.55,18 L13.05,18 C12.8014719,18 12.6,17.7629743 12.6,17.4705882 L12.6,0.529411765 C12.6,0.237025721 12.8014719,0 13.05,0 Z M8.1,16.2 L9.9,16.2 L9.9,9.9 L8.1,9.9 L8.1,16.2 Z M6.75,8.1 L11.25,8.1 C11.4985281,8.1 11.7,8.23036415 11.7,8.39117647 L11.7,17.7088235 C11.7,17.8696359 11.4985281,18 11.25,18 L6.75,18 C6.50147186,18 6.3,17.8696359 6.3,17.7088235 L6.3,8.39117647 C6.3,8.23036415 6.50147186,8.1 6.75,8.1 Z M1.8,16.2 L3.6,16.2 L3.6,6.3 L1.8,6.3 L1.8,16.2 Z M0.45,4.5 L4.95,4.5 C5.19852814,4.5 5.4,4.67776929 5.4,4.89705882 L5.4,17.6029412 C5.4,17.8222307 5.19852814,18 4.95,18 L0.45,18 C0.201471863,18 0,17.8222307 0,17.6029412 L0,4.89705882 C0,4.67776929 0.201471863,4.5 0.45,4.5 Z"></path>
            </g>
        </g>
    </g>
</svg>