<?xml version="1.0" encoding="iso-8859-1"?>
<!-- Generator: Adobe Illustrator 19.0.0, SVG Export Plug-In . SVG Version: 6.00 Build 0)  -->
<svg version="1.1" id="Capa_1" xmlns="http://www.w3.org/2000/svg" xmlns:xlink="http://www.w3.org/1999/xlink" x="0px" y="0px"
	 viewBox="0 0 512 512" style="enable-background:new 0 0 512 512;" xml:space="preserve">
<g>
	<path style="fill:#FD003A;" d="M257,512c-34.416,0-67.933-6.855-99.618-20.376c-30.537-13.03-58.022-31.64-81.694-55.312
		s-42.281-51.157-55.312-81.694C6.855,322.932,0,289.416,0,255c0-68.024,26.901-132.082,75.748-180.373
		C124.427,26.503,188.796,0,257,0c68.113,0,132.149,26.524,180.313,74.688C485.476,122.851,512,186.887,512,255
		c0,68.204-26.503,132.573-74.627,181.251C389.082,485.099,325.024,512,257,512z M257,30C131.832,30,30,130.935,30,255
		c0,125.168,101.832,227,227,227c124.065,0,225-101.832,225-227C482,130.935,381.065,30,257,30z"/>
	<path style="fill:#FD003A;" d="M403.667,376.246c-3.961,0-7.781-1.569-10.605-4.394L140.147,118.938
		c-3.12-3.12-4.708-7.455-4.342-11.851c0.366-4.397,2.649-8.409,6.242-10.97C174.724,72.827,215.548,60,257,60
		c107.523,0,195,87.477,195,195c0,41.453-12.827,82.277-36.117,114.953c-2.562,3.593-6.573,5.875-10.971,6.242
		C404.497,376.229,404.081,376.246,403.667,376.246z M174.634,110.999l226.368,226.368C414.628,312.718,422,284.072,422,255
		c0-90.981-74.019-165-165-165C227.929,90,199.283,97.372,174.634,110.999z"/>
	<path style="fill:#FD003A;" d="M257,452c-52.012,0-101.315-20.659-138.828-58.172S60,307.012,60,255
		c0-40.746,12.489-79.804,36.117-112.953c2.562-3.593,6.573-5.875,10.971-6.242c4.388-0.362,8.731,1.222,11.851,4.342
		l252.914,252.914c3.12,3.12,4.708,7.455,4.342,11.851c-0.366,4.397-2.649,8.409-6.242,10.97C336.803,439.511,297.744,452,257,452z
		 M110.947,174.583C97.195,199.076,90,226.55,90,255c0,90.523,76.477,167,167,167c28.449,0,55.923-7.196,80.417-20.948
		L110.947,174.583z"/>
</g>
<g>
</g>
<g>
</g>
<g>
</g>
<g>
</g>
<g>
</g>
<g>
</g>
<g>
</g>
<g>
</g>
<g>
</g>
<g>
</g>
<g>
</g>
<g>
</g>
<g>
</g>
<g>
</g>
<g>
</g>
</svg>
