<?xml version="1.0" encoding="UTF-8"?>
<svg width="20px" height="14px" viewBox="0 0 20 14" version="1.1" xmlns="http://www.w3.org/2000/svg" xmlns:xlink="http://www.w3.org/1999/xlink">
    <!-- Generator: sketchtool 52.2 (67145) - http://www.bohemiancoding.com/sketch -->
    <title>84A09E58-A55B-4D1A-B82B-DCCC0F2D0BEB</title>
    <desc>Created with sketchtool.</desc>
    <defs>
        <path d="M16.125,5.03333333 C15.5583333,2.15833333 13.0333333,0 10,0 C7.59166667,0 5.5,1.36666667 4.45833333,3.36666667 C1.95,3.63333333 0,5.75833333 0,8.33333333 C0,11.0916667 2.24166667,13.3333333 5,13.3333333 L15.8333333,13.3333333 C18.1333333,13.3333333 20,11.4666667 20,9.16666667 C20,6.96666667 18.2916667,5.18333333 16.125,5.03333333 Z M11.6666667,7.5 L11.6666667,10.8333333 L8.33333333,10.8333333 L8.33333333,7.5 L5.83333333,7.5 L9.70833333,3.625 C9.875,3.45833333 10.1333333,3.45833333 10.3,3.625 L14.1666667,7.5 L11.6666667,7.5 Z" id="path-1"></path>
    </defs>
    <g id="Web-App" stroke="none" stroke-width="1" fill="none" fill-rule="evenodd">
        <g id="Documents-&gt;-Add-File" transform="translate(-525.000000, -388.000000)">
            <g id="Modal" transform="translate(480.000000, 240.000000)">
                <g id="Group-3" transform="translate(30.000000, 97.000000)">
                    <g id="Group-19-Copy" transform="translate(0.000000, 28.000000)">
                        <g id="icon/file/cloud_upload_24px" transform="translate(15.000000, 23.000000)">
                            <mask id="mask-2" fill="white">
                                <use xlink:href="#path-1"></use>
                            </mask>
                            <use fill="#3359DB" fill-rule="nonzero" xlink:href="#path-1"></use>
                        </g>
                    </g>
                </g>
            </g>
        </g>
    </g>
</svg>