<?xml version="1.0" encoding="UTF-8"?>
<svg width="16px" height="16px" viewBox="0 0 16 16" version="1.1" xmlns="http://www.w3.org/2000/svg" xmlns:xlink="http://www.w3.org/1999/xlink">
    <!-- Generator: sketchtool 52.2 (67145) - http://www.bohemiancoding.com/sketch -->
    <title>064C8E86-9B9F-47A4-A062-6165492CDFC7</title>
    <desc>Created with sketchtool.</desc>
    <defs>
        <path d="M14.2222222,8.88888889 L14.2222222,13.3333333 C14.2222222,13.8222222 13.8222222,14.2222222 13.3333333,14.2222222 L2.66666667,14.2222222 C2.17777778,14.2222222 1.77777778,13.8222222 1.77777778,13.3333333 L1.77777778,8.88888889 C1.77777778,8.4 1.37777778,8 0.888888889,8 C0.4,8 0,8.4 0,8.88888889 L0,14.2222222 C0,15.2 0.8,16 1.77777778,16 L14.2222222,16 C15.2,16 16,15.2 16,14.2222222 L16,8.88888889 C16,8.4 15.6,8 15.1111111,8 C14.6222222,8 14.2222222,8.4 14.2222222,8.88888889 Z M8.88888889,8.59555556 L10.56,6.92444444 C10.9066667,6.57777778 11.4666667,6.57777778 11.8133333,6.92444444 C12.16,7.27111111 12.16,7.83111111 11.8133333,8.17777778 L8.62222222,11.3688889 C8.27555556,11.7155556 7.71555556,11.7155556 7.36888889,11.3688889 L4.17777778,8.17777778 C4.01133096,8.01170531 3.91779057,7.7862379 3.91779057,7.55111111 C3.91779057,7.31598432 4.01133096,7.09051691 4.17777778,6.92444444 C4.52444444,6.57777778 5.08444444,6.57777778 5.43111111,6.92444444 L7.11111111,8.59555556 L7.11111111,0.888888889 C7.11111111,0.4 7.51111111,0 8,0 C8.48888889,0 8.88888889,0.4 8.88888889,0.888888889 L8.88888889,8.59555556 Z" id="path-1"></path>
    </defs>
    <g id="Web-App" stroke="none" stroke-width="1" fill="none" fill-rule="evenodd">
        <g id="Analytics" transform="translate(-1361.000000, -140.000000)">
            <g id="Group-8" transform="translate(1351.000000, 130.000000)">
                <g id="icon/content/save_alt_24px" transform="translate(10.000000, 10.000000)">
                    <mask id="mask-2" fill="white">
                        <use xlink:href="#path-1"></use>
                    </mask>
                    <use fill="#FFAF30" fill-rule="nonzero" xlink:href="#path-1"></use>
                </g>
            </g>
        </g>
    </g>
</svg>