<?xml version="1.0" encoding="UTF-8"?>
<svg width="14px" height="15px" viewBox="0 0 14 15" version="1.1" xmlns="http://www.w3.org/2000/svg" xmlns:xlink="http://www.w3.org/1999/xlink">
    <!-- Generator: sketchtool 52.1 (67048) - http://www.bohemiancoding.com/sketch -->
    <title>9E329E34-7775-4298-8BCA-867A66767BFF</title>
    <desc>Created with sketchtool.</desc>
    <g id="Web-App" stroke="none" stroke-width="1" fill="none" fill-rule="evenodd">
        <g id="Accomodation-&gt;-Calendar-options" transform="translate(-1198.000000, -143.000000)" fill="#BCBCBC" fill-rule="nonzero">
            <path d="M1209.03916,143.511749 C1209.38033,143.170581 1209.7946,143 1210.28198,143 C1210.76937,143 1211.17754,143.170581 1211.50653,143.511749 C1211.83551,143.852917 1212,144.267186 1212,144.754569 C1212,145.241952 1211.8416,145.656221 1211.5248,145.997389 L1205.60313,151.91906 L1205.42037,151.91906 L1203.37337,152.357702 L1202.53264,152.503916 L1202.67885,151.663185 L1203.11749,149.616188 L1203.11749,149.43342 L1209.03916,143.511749 Z M1210.68407,144.35248 C1210.56223,144.230635 1210.4282,144.169713 1210.28198,144.169713 C1210.13577,144.169713 1210.00174,144.230635 1209.8799,144.35248 L1204.2141,150.018277 L1203.99478,151.041775 L1205.01828,150.822454 L1210.68407,145.156658 C1210.95213,144.888597 1210.95213,144.620541 1210.68407,144.35248 Z M1198,145.339426 L1205.71279,145.339426 L1204.54308,146.509138 L1199.16971,146.509138 L1199.16971,155.866841 L1208.52742,155.866841 L1208.52742,150.493473 L1209.69713,149.32376 L1209.69713,157.036554 L1198,157.036554 L1198,145.339426 Z" id="ï‡"></path>
        </g>
    </g>
</svg>