<?xml version="1.0" encoding="UTF-8"?>
<svg width="11px" height="14px" viewBox="0 0 11 14" version="1.1" xmlns="http://www.w3.org/2000/svg" xmlns:xlink="http://www.w3.org/1999/xlink">
    <!-- Generator: sketchtool 52.2 (67145) - http://www.bohemiancoding.com/sketch -->
    <title>843E3D03-0533-453B-8644-D1E9F5F4C2C9</title>
    <desc>Created with sketchtool.</desc>
    <g id="Web-App" stroke="none" stroke-width="1" fill="none" fill-rule="evenodd">
        <g id="Documents" transform="translate(-332.000000, -274.000000)" fill="#4F4F4F">
            <g id="Group-2" transform="translate(300.000000, 254.000000)">
                <path d="M33,20.5 L39.0361122,20.5 C39.1348247,20.5 39.2313285,20.529219 39.3134623,20.5839749 L39.375,20.625 L42.375,23.625 L42.4160251,23.6865377 C42.470781,23.7686715 42.5,23.8651753 42.5,23.9638878 L42.5,33 C42.5,33.2761424 42.2761424,33.5 42,33.5 L33,33.5 C32.7238576,33.5 32.5,33.2761424 32.5,33 L32.5,21 C32.5,20.7238576 32.7238576,20.5 33,20.5 Z M33.5,21.5 L33.5,32.5 L41.5,32.5 L41.5,24.5 L39,24.5 C38.7238576,24.5 38.5,24.2761424 38.5,24 L38.5,21.5 L33.5,21.5 Z M39.5,22.21875 L39.5,23.5 L40.78125,23.5 L39.5,22.21875 Z M35,25.5 L40,25.5 L40,26.5 L35,26.5 L35,25.5 Z M35,27.5 L40,27.5 L40,28.5 L35,28.5 L35,27.5 Z M35,29.5 L40,29.5 L40,30.5 L35,30.5 L35,29.5 Z" id=""></path>
            </g>
        </g>
    </g>
</svg>