<?xml version="1.0" encoding="UTF-8"?>
<svg width="24px" height="24px" viewBox="0 0 24 24" version="1.1" xmlns="http://www.w3.org/2000/svg" xmlns:xlink="http://www.w3.org/1999/xlink">
    <!-- Generator: sketchtool 52.2 (67145) - http://www.bohemiancoding.com/sketch -->
    <title>014CA6F4-02D8-4C77-8859-4AB071FB68CF</title>
    <desc>Created with sketchtool.</desc>
    <defs>
        <path d="M83.7368421,100.431285 L62.2631579,100.431285 C61.5684211,100.431285 61,101.009246 61,101.715643 C61,102.422039 61.5684211,103 62.2631579,103 L83.7368421,103 C84.4315789,103 85,102.422039 85,101.715643 C85,101.009246 84.4315789,100.431285 83.7368421,100.431285 Z M62.2757895,90.9398845 L82.2715789,96.3855596 C83.2821053,96.6552747 84.3178947,96.0516267 84.5957895,95.0241408 C84.8610526,93.996655 84.2673684,92.9434819 83.2568421,92.6609233 L76.5494737,90.8371359 L73.2905263,79.9843163 C73.1515789,79.5219476 72.7978947,79.1751711 72.3431579,79.0467354 C71.4842105,78.8155511 70.6378947,79.4705733 70.6378947,80.382467 L70.6378947,89.2188456 L64.3473684,87.5234939 L63.4,85.1345892 C63.2484211,84.7621256 62.9452632,84.479567 62.5536842,84.3768184 L62.1368421,84.2612262 C61.7326316,84.1456341 61.3410526,84.4538798 61.3410526,84.8777178 L61.3410526,89.6940578 C61.3410526,90.2848622 61.72,90.7857616 62.2757895,90.9398845 Z" id="path-1"></path>
    </defs>
    <g id="Web-App" stroke="none" stroke-width="1" fill="none" fill-rule="evenodd">
        <g id="Analytics" transform="translate(-361.000000, -531.000000)">
            <g id="Group-10" transform="translate(300.000000, 452.000000)">
                <mask id="mask-2" fill="white">
                    <use xlink:href="#path-1"></use>
                </mask>
                <use id="icon/action/flight_land_24px" fill-opacity="0.7" fill="#FFFFFF" fill-rule="nonzero" xlink:href="#path-1"></use>
            </g>
        </g>
    </g>
</svg>