<?xml version="1.0" encoding="UTF-8"?>
<svg width="24px" height="24px" viewBox="0 0 24 24" version="1.1" xmlns="http://www.w3.org/2000/svg" xmlns:xlink="http://www.w3.org/1999/xlink">
    <!-- Generator: sketchtool 52.2 (67145) - http://www.bohemiancoding.com/sketch -->
    <title>1D99B437-CE6F-49A5-B046-CF34B9325455</title>
    <desc>Created with sketchtool.</desc>
    <defs>
        <path d="M84,104.218457 C84,103.782953 83.76,103.38374 83.3810526,103.141793 L73.8947368,97.4681397 L73.8947368,90.8146014 C73.8947368,89.8105219 73.0484211,89 72,89 C70.9515789,89 70.1052632,89.8105219 70.1052632,90.8146014 L70.1052632,97.4681397 L60.6189474,103.141793 C60.24,103.371643 60,103.782953 60,104.218457 C60,105.065271 60.8589474,105.682235 61.7178947,105.428191 L70.1052632,102.911944 L70.1052632,109.565482 L67.8315789,111.198623 C67.6673684,111.3075 67.5789474,111.48896 67.5789474,111.682517 L67.5789474,112.39626 C67.5789474,112.795473 67.9831579,113.085809 68.3873684,112.976933 L72,111.984951 L75.6126316,112.976933 C76.0168421,113.085809 76.4210526,112.795473 76.4210526,112.39626 L76.4210526,111.682517 C76.4210526,111.48896 76.3326316,111.3075 76.1684211,111.198623 L73.8947368,109.565482 L73.8947368,102.911944 L82.2821053,105.428191 C83.1410526,105.682235 84,105.065271 84,104.218457 Z" id="path-1"></path>
    </defs>
    <g id="Web-App" stroke="none" stroke-width="1" fill="none" fill-rule="evenodd">
        <g id="Analytics" transform="translate(-360.000000, -285.000000)">
            <g id="Group-4" transform="translate(300.000000, 196.000000)">
                <mask id="mask-2" fill="white">
                    <use xlink:href="#path-1"></use>
                </mask>
                <use id="icon/maps/flight_24px" fill="#FFAF30" fill-rule="nonzero" xlink:href="#path-1"></use>
            </g>
        </g>
    </g>
</svg>