<?xml version="1.0" encoding="UTF-8"?>
<svg width="24px" height="24px" viewBox="0 0 24 24" version="1.1" xmlns="http://www.w3.org/2000/svg" xmlns:xlink="http://www.w3.org/1999/xlink">
    <!-- Generator: sketchtool 52.2 (67145) - http://www.bohemiancoding.com/sketch -->
    <title>109C3AD5-33BF-44BC-962B-1B42BE13AF02</title>
    <desc>Created with sketchtool.</desc>
    <defs>
        <path d="M82.0577971,100.227012 L61.6681674,100.227012 C61.0085029,100.227012 60.4687774,100.850934 60.4687774,101.613506 C60.4687774,102.376078 61.0085029,103 61.6681674,103 L82.0577971,103 C82.7174616,103 83.2571871,102.376078 83.2571871,101.613506 C83.2571871,100.850934 82.7174616,100.227012 82.0577971,100.227012 Z M83.9408393,87.2494266 C83.6769736,86.1402312 82.6934738,85.488579 81.7339618,85.7797428 L75.365201,87.7485645 L67.6171417,79.4018697 C67.2933064,79.0413812 66.8255443,78.9165968 66.3937639,79.0552462 C65.5781787,79.3186801 65.1943739,80.4001455 65.6141604,81.2459069 L69.7400619,89.509412 L63.7790937,91.3534492 L61.8960515,89.6341965 C61.596204,89.3707626 61.2123992,89.273708 60.8405883,89.3846275 L60.4447896,89.509412 C60.0609848,89.6203315 59.8810763,90.1333344 60.0849726,90.5215527 L62.3398257,95.0276587 C62.6156854,95.5683914 63.1674048,95.8318253 63.6831425,95.6793109 L82.6574921,89.8005758 C83.6170041,89.4955471 84.1927112,88.3586219 83.9408393,87.2494266 Z" id="path-1"></path>
    </defs>
    <g id="Web-App" stroke="none" stroke-width="1" fill="none" fill-rule="evenodd">
        <g id="Analytics" transform="translate(-730.000000, -531.000000)">
            <g id="Group-5" transform="translate(670.000000, 452.000000)">
                <mask id="mask-2" fill="white">
                    <use xlink:href="#path-1"></use>
                </mask>
                <use id="icon/action/flight_takeoff_24px" fill-opacity="0.7" fill="#FFFFFF" fill-rule="nonzero" xlink:href="#path-1"></use>
            </g>
        </g>
    </g>
</svg>