<?xml version="1.0" encoding="UTF-8"?>
<svg width="20px" height="20px" viewBox="0 0 20 20" version="1.1" xmlns="http://www.w3.org/2000/svg" xmlns:xlink="http://www.w3.org/1999/xlink">
    <!-- Generator: sketchtool 51.3 (57544) - http://www.bohemiancoding.com/sketch -->
    <title>B18165A8-6BC4-428C-976E-8D0A56161EC1</title>
    <desc>Created with sketchtool.</desc>
    <defs>
        <path d="M5,1.5 C3.8954305,1.5 3,2.3954305 3,3.5 C3,4.6045695 3.8954305,5.5 5,5.5 C6.1045695,5.5 7,4.6045695 7,3.5 C7,2.3954305 6.1045695,1.5 5,1.5 Z M9.15,9.5 C8.84,9.28 8.56,9.04 8.33,8.78 L6.93,7.23 C6.74,7.02 6.5,6.85 6.24,6.73 C5.95,6.59 5.62,6.5 5.28,6.5 L5.25,6.5 C4.01,6.5 3,7.51 3,8.75 L3,9.5 L0,9.5 L0,17.5 C0,18.6 0.9,19.5 2,19.5 L18,19.5 C19.1,19.5 20,18.6 20,17.5 L20,9.5 L9.15,9.5 Z M5,17.5 L3,17.5 L3,11.5 L5,11.5 L5,17.5 Z M9,17.5 L7,17.5 L7,11.5 L9,11.5 L9,17.5 Z M13,17.5 L11,17.5 L11,11.5 L13,11.5 L13,17.5 Z M17,17.5 L15,17.5 L15,11.5 L17,11.5 L17,17.5 Z M15.42,4.71 C15.99,5.33 16.24,6.12 16.09,6.91 L15.98,7.5 L17.89,7.5 L17.95,7.07 C18.16,5.71 17.68,4.36 16.65,3.36 L16.58,3.29 C16.01,2.67 15.76,1.88 15.91,1.09 L16,0.5 L14.11,0.5 L14.05,0.93 C13.85,2.29 14.32,3.64 15.35,4.65 L15.42,4.71 Z M11.42,4.71 C11.99,5.33 12.24,6.12 12.09,6.91 L11.98,7.5 L13.89,7.5 L13.95,7.07 C14.16,5.71 13.68,4.36 12.65,3.36 L12.58,3.29 C12.01,2.67 11.76,1.88 11.91,1.09 L12,0.5 L10.11,0.5 L10.05,0.93 C9.85,2.29 10.32,3.64 11.35,4.65 L11.42,4.71 Z" id="path-1"></path>
    </defs>
    <g id="Web-App" stroke="none" stroke-width="1" fill="none" fill-rule="evenodd">
        <g id="Accomodation" transform="translate(-818.000000, -505.000000)">
            <g id="Group-2-Copy" transform="translate(657.000000, 196.000000)">
                <g id="icon/maps/hotel_24px-copy" transform="translate(161.000000, 309.000000)">
                    <mask id="mask-2" fill="white">
                        <use xlink:href="#path-1"></use>
                    </mask>
                    <use id="icon/places/hot_tub_24px" fill="#999999" fill-rule="nonzero" xlink:href="#path-1"></use>
                </g>
            </g>
        </g>
    </g>
</svg>