<?xml version="1.0" encoding="UTF-8"?>
<svg width="9px" height="12px" viewBox="0 0 9 12" version="1.1" xmlns="http://www.w3.org/2000/svg" xmlns:xlink="http://www.w3.org/1999/xlink">
    <!-- Generator: sketchtool 52.2 (67145) - http://www.bohemiancoding.com/sketch -->
    <title>DE14D4D0-C0EC-49FE-A768-EE2FBF9E62D2</title>
    <desc>Created with sketchtool.</desc>
    <g id="Web-App" stroke="none" stroke-width="1" fill="none" fill-rule="evenodd">
        <g id="Documents" transform="translate(-332.000000, -442.000000)" fill="#4F4F4F">
            <g id="Group-2-Copy-3" transform="translate(300.000000, 422.000000)">
                <path d="M32.6875,20.0625 L37.8876747,20.0625 C37.9863872,20.0625 38.082891,20.091719 38.1650248,20.1464749 L38.203125,20.171875 L40.828125,22.796875 L40.8535251,22.8349752 C40.908281,22.917109 40.9375,23.0136128 40.9375,23.1123253 L40.9375,30.9375 C40.9375,31.2136424 40.7136424,31.4375 40.4375,31.4375 L32.6875,31.4375 C32.4113576,31.4375 32.1875,31.2136424 32.1875,30.9375 L32.1875,20.5625 C32.1875,20.2863576 32.4113576,20.0625 32.6875,20.0625 Z M33.0625,20.9375 L33.0625,30.5625 L40.0625,30.5625 L40.0625,23.5625 L37.4375,20.9375 L33.0625,20.9375 Z M38.4765625,25.0117188 C38.5677088,24.9205725 38.6725254,24.875 38.7910156,24.875 C38.9095058,24.875 39.0143225,24.9160152 39.1054688,24.9980469 C39.196615,25.0800785 39.2421875,25.1848952 39.2421875,25.3125 C39.2421875,25.4401048 39.196615,25.5449215 39.1054688,25.6269531 C39.0143225,25.7089848 38.9095058,25.75 38.7910156,25.75 C38.6725254,25.75 38.572266,25.7089848 38.4902344,25.6269531 C38.4082027,25.5449215 38.3671875,25.4401048 38.3671875,25.3125 C38.3671875,25.1848952 38.4036455,25.0846358 38.4765625,25.0117188 Z M35.6875,25.5859375 L36.015625,25.859375 L37,26.8710938 L37.546875,26.296875 L37.875,26.0234375 L38.203125,26.296875 L39.515625,27.609375 L38.859375,28.265625 L37.875,27.2539062 L37.328125,27.828125 L37,28.1015625 L36.671875,27.828125 L35.6875,26.8164062 L34.265625,28.265625 L33.609375,27.609375 L35.359375,25.859375 L35.6875,25.5859375 Z" id=""></path>
            </g>
        </g>
    </g>
</svg>