<?xml version="1.0" encoding="UTF-8"?>
<svg width="12px" height="16px" viewBox="0 0 12 16" version="1.1" xmlns="http://www.w3.org/2000/svg" xmlns:xlink="http://www.w3.org/1999/xlink">
    <!-- Generator: sketchtool 52.2 (67145) - http://www.bohemiancoding.com/sketch -->
    <title>1B66C305-FB3B-4989-911F-EA561C530DD1</title>
    <desc>Created with sketchtool.</desc>
    <g id="Web-App" stroke="none" stroke-width="1" fill="none" fill-rule="evenodd">
        <g id="Analytics-&gt;-Export" transform="translate(-1161.000000, -140.000000)" fill="#FFAF30" stroke="#FFAF30" stroke-width="0.2">
            <g id="Dynamic-group-Copy-2" transform="translate(1059.000000, 130.000000)">
                <path d="M104.459696,12.4596963 C105.432832,11.4865606 106.614479,11 108.004673,11 C109.394867,11 110.576514,11.4865606 111.54965,12.4596963 C112.522785,13.432832 113.009346,14.614479 113.009346,16.0046729 C113.009346,16.65343 112.754481,17.5338729 112.244743,18.646028 C111.874025,19.5496541 111.364295,20.5459447 110.715537,21.6349299 C110.391159,22.2141774 110.037823,22.8050009 109.65552,23.4074182 C109.273217,24.0098356 108.977805,24.4616418 108.769276,24.7628505 L108.456484,25.2146612 L108.004673,25.875 L107.552862,25.2146612 C106.788256,24.125676 106.035245,22.9324442 105.293808,21.6349299 C104.645051,20.5459447 104.135321,19.5496541 103.764603,18.646028 C103.254865,17.5338729 103,16.65343 103,16.0046729 C103,14.614479 103.486561,13.432832 104.459696,12.4596963 Z M110.750292,13.2590537 C110.008855,12.4944471 109.093658,12.1121495 108.004673,12.1121495 C106.915688,12.1121495 105.994698,12.4886547 105.241676,13.2416764 C104.488655,13.9946981 104.11215,14.9156877 104.11215,16.0046729 C104.11215,16.4912408 104.320675,17.2326664 104.737734,18.228972 C105.085282,18.9935786 105.595012,19.9435301 106.266939,21.0788551 C106.846187,22.0751607 107.425425,23.0019428 108.004673,23.859229 C108.58392,23.0019428 109.163159,22.0751607 109.742407,21.0788551 C110.414334,19.9435301 110.924064,18.9935786 111.271612,18.228972 C111.68867,17.2326664 111.897196,16.4912408 111.897196,16.0046729 C111.897196,14.9156877 111.514899,14.0004905 110.750292,13.2590537 Z M107.205315,15.2400701 C107.437014,15.0083711 107.703464,14.8925234 108.004673,14.8925234 C108.305882,14.8925234 108.566539,15.0025787 108.786653,15.2226928 C109.006767,15.4428068 109.116822,15.7034642 109.116822,16.0046729 C109.116822,16.3058816 109.006767,16.566539 108.786653,16.786653 C108.566539,17.0067671 108.305882,17.1168224 108.004673,17.1168224 C107.703464,17.1168224 107.442807,17.0067671 107.222693,16.786653 C107.002579,16.566539 106.892523,16.3058816 106.892523,16.0046729 C106.892523,15.7034642 106.996786,15.4485992 107.205315,15.2400701 Z" id=""></path>
            </g>
        </g>
    </g>
</svg>