<?xml version="1.0" encoding="UTF-8"?>
<svg width="10px" height="15px" viewBox="0 0 10 15" version="1.1" xmlns="http://www.w3.org/2000/svg" xmlns:xlink="http://www.w3.org/1999/xlink">
    <!-- Generator: sketchtool 51.3 (57544) - http://www.bohemiancoding.com/sketch -->
    <title>B2FF42C9-E4A3-4F06-BA36-DD24BFC72BE6</title>
    <desc>Created with sketchtool.</desc>
    <defs></defs>
    <g id="Web-App" stroke="none" stroke-width="1" fill="none" fill-rule="evenodd">
        <g id="Request-&gt;-One-Way-Trip" transform="translate(-463.000000, -591.000000)" fill="#BCBCBC">
            <g id="Modal" transform="translate(240.000000, 80.000000)">
                <g id="Group-2" transform="translate(30.000000, 362.000000)">
                    <g id="Group-4">
                        <g id="Group-6" transform="translate(15.000000, 114.000000)">
                            <path d="M179.459696,36.4596963 C180.432832,35.4865606 181.614479,35 183.004673,35 C184.394867,35 185.576514,35.4865606 186.54965,36.4596963 C187.522785,37.432832 188.009346,38.614479 188.009346,40.0046729 C188.009346,40.65343 187.754481,41.5338729 187.244743,42.646028 C186.874025,43.5496541 186.364295,44.5459447 185.715537,45.6349299 C185.391159,46.2141774 185.037823,46.8050009 184.65552,47.4074182 C184.273217,48.0098356 183.977805,48.4616418 183.769276,48.7628505 L183.456484,49.2146612 L183.004673,49.875 L182.552862,49.2146612 C181.788256,48.125676 181.035245,46.9324442 180.293808,45.6349299 C179.645051,44.5459447 179.135321,43.5496541 178.764603,42.646028 C178.254865,41.5338729 178,40.65343 178,40.0046729 C178,38.614479 178.486561,37.432832 179.459696,36.4596963 Z M185.750292,37.2590537 C185.008855,36.4944471 184.093658,36.1121495 183.004673,36.1121495 C181.915688,36.1121495 180.994698,36.4886547 180.241676,37.2416764 C179.488655,37.9946981 179.11215,38.9156877 179.11215,40.0046729 C179.11215,40.4912408 179.320675,41.2326664 179.737734,42.228972 C180.085282,42.9935786 180.595012,43.9435301 181.266939,45.0788551 C181.846187,46.0751607 182.425425,47.0019428 183.004673,47.859229 C183.58392,47.0019428 184.163159,46.0751607 184.742407,45.0788551 C185.414334,43.9435301 185.924064,42.9935786 186.271612,42.228972 C186.68867,41.2326664 186.897196,40.4912408 186.897196,40.0046729 C186.897196,38.9156877 186.514899,38.0004905 185.750292,37.2590537 Z M182.205315,39.2400701 C182.437014,39.0083711 182.703464,38.8925234 183.004673,38.8925234 C183.305882,38.8925234 183.566539,39.0025787 183.786653,39.2226928 C184.006767,39.4428068 184.116822,39.7034642 184.116822,40.0046729 C184.116822,40.3058816 184.006767,40.566539 183.786653,40.786653 C183.566539,41.0067671 183.305882,41.1168224 183.004673,41.1168224 C182.703464,41.1168224 182.442807,41.0067671 182.222693,40.786653 C182.002579,40.566539 181.892523,40.3058816 181.892523,40.0046729 C181.892523,39.7034642 181.996786,39.4485992 182.205315,39.2400701 Z" id=""></path>
                        </g>
                    </g>
                </g>
            </g>
        </g>
    </g>
</svg>