<?xml version="1.0" encoding="UTF-8"?>
<svg width="12px" height="12px" viewBox="0 0 12 12" version="1.1" xmlns="http://www.w3.org/2000/svg" xmlns:xlink="http://www.w3.org/1999/xlink">
    <!-- Generator: sketchtool 52.2 (67145) - http://www.bohemiancoding.com/sketch -->
    <title>8E7AA4A6-4201-4701-B339-18E42B0DCA98</title>
    <desc>Created with sketchtool.</desc>
    <defs>
        <path d="M60.6666667,10.6666667 L60.6666667,14 C60.6666667,14.3666667 60.3666667,14.6666667 60,14.6666667 L52,14.6666667 C51.6333333,14.6666667 51.3333333,14.3666667 51.3333333,14 L51.3333333,10.6666667 C51.3333333,10.3 51.0333333,10 50.6666667,10 C50.3,10 50,10.3 50,10.6666667 L50,14.6666667 C50,15.4 50.6,16 51.3333333,16 L60.6666667,16 C61.4,16 62,15.4 62,14.6666667 L62,10.6666667 C62,10.3 61.7,10 61.3333333,10 C60.9666667,10 60.6666667,10.3 60.6666667,10.6666667 Z M56.6666667,10.4466667 L57.92,9.19333333 C58.18,8.93333333 58.6,8.93333333 58.86,9.19333333 C59.12,9.45333333 59.12,9.87333333 58.86,10.1333333 L56.4666667,12.5266667 C56.2066667,12.7866667 55.7866667,12.7866667 55.5266667,12.5266667 L53.1333333,10.1333333 C53.0084982,10.008779 52.9383429,9.83967843 52.9383429,9.66333333 C52.9383429,9.48698824 53.0084982,9.31788768 53.1333333,9.19333333 C53.3933333,8.93333333 53.8133333,8.93333333 54.0733333,9.19333333 L55.3333333,10.4466667 L55.3333333,4.66666667 C55.3333333,4.3 55.6333333,4 56,4 C56.3666667,4 56.6666667,4.3 56.6666667,4.66666667 L56.6666667,10.4466667 Z" id="path-1"></path>
    </defs>
    <g id="Web-App" stroke="none" stroke-width="1" fill="none" fill-rule="evenodd">
        <g id="Analytics" transform="translate(-1336.000000, -744.000000)">
            <g id="Group-12" transform="translate(855.000000, 717.000000)">
                <g id="Dynamic-group" transform="translate(419.000000, 20.000000)">
                    <g id="3:12" transform="translate(12.000000, 3.000000)">
                        <mask id="mask-2" fill="white">
                            <use xlink:href="#path-1"></use>
                        </mask>
                        <use id="icon/content/save_alt_24px-copy-2" fill="#999999" fill-rule="nonzero" xlink:href="#path-1"></use>
                    </g>
                </g>
            </g>
        </g>
    </g>
</svg>